
mtllib ./bridge.mtl

g s.0102
usemap Standard_7B512D
usemtl Standard_7B512D
v 0.1593926 0.1071116 0.02277004
v 0.2405447 0.1446986 0.03157612
v 0.2521822 0.1252521 0.03218644
v 0.1715201 0.08600932 0.02672418
v 0.2405447 0.1446986 0.03157612
v 0.2529072 0.1388161 -0.05724145
v 0.2621549 0.1171298 -0.0567557
v 0.2521822 0.1252521 0.03218644
v 0.2529072 0.1388161 -0.05724145
v 0.1717551 0.1012291 -0.06604753
v 0.1814946 0.07788745 -0.06221677
v 0.2621549 0.1171298 -0.0567557
v 0.07728584 0.08862349 -0.06603473
v 0.1717551 0.1012291 -0.06604753
v 0.1593926 0.1071116 0.02277004
v 0.0766314 0.09624881 0.02350686
v 0.1715201 0.08600932 0.02672418
v 0.2521822 0.1252521 0.03218644
v 0.2621549 0.1171298 -0.0567557
v 0.1814946 0.07788745 -0.06221677
v 0.1717551 0.1012291 -0.06604753
v 0.2529072 0.1388161 -0.05724145
v 0.2405447 0.1446986 0.03157612
v 0.1593926 0.1071116 0.02277004
v 0.0766314 0.09624881 0.02350686
v 0.1593926 0.1071116 0.02277004
v 0.1715201 0.08600932 0.02672418
v 0.07857975 0.07184619 0.02645955
v 0.07857975 0.07184619 0.02645955
v 0.1715201 0.08600932 0.02672418
v 0.1814946 0.07788745 -0.06221677
v 0.07610898 0.06325549 -0.06295905
v 0.07610898 0.06325549 -0.06295905
v 0.1814946 0.07788745 -0.06221677
v 0.1717551 0.1012291 -0.06604753
v 0.07728584 0.08862349 -0.06603473
v -0.02969235 0.1060755 -0.05532791
v 0.07728584 0.08862349 -0.06603473
v 0.0766314 0.09624881 0.02350686
v -0.02473795 0.1169908 0.0337382
v -0.02473795 0.1169908 0.0337382
v 0.0766314 0.09624881 0.02350686
v 0.07857975 0.07184619 0.02645955
v -0.03603941 0.09546821 0.03786915
v -0.03603941 0.09546821 0.03786915
v 0.07857975 0.07184619 0.02645955
v 0.07610898 0.06325549 -0.06295905
v -0.04414961 0.08540856 -0.05106085
v -0.04414961 0.08540856 -0.05106085
v 0.07610898 0.06325549 -0.06295905
v 0.07728584 0.08862349 -0.06603473
v -0.02969235 0.1060755 -0.05532791
v -0.1159066 0.1588341 -0.05198477
v -0.02969235 0.1060755 -0.05532791
v -0.02473795 0.1169908 0.0337382
v -0.109389 0.1677922 0.03719986
v -0.109389 0.1677922 0.03719986
v -0.02473795 0.1169908 0.0337382
v -0.03603941 0.09546821 0.03786915
v -0.1293207 0.1537616 0.04092833
v -0.1293207 0.1537616 0.04092833
v -0.03603941 0.09546821 0.03786915
v -0.04414961 0.08540856 -0.05106085
v -0.1382686 0.1469942 -0.04823212
v -0.1382686 0.1469942 -0.04823212
v -0.04414961 0.08540856 -0.05106085
v -0.02969235 0.1060755 -0.05532791
v -0.1159066 0.1588341 -0.05198477
v -0.1159066 0.1588341 -0.05198477
v -0.109389 0.1677922 0.03719986
v -0.1293207 0.1537616 0.04092833
v -0.1382686 0.1469942 -0.04823212

vn -0.1099964 0.04729031 0.9928064
vn -0.09586814 -0.02614168 0.9950508
vn -0.1099964 0.04729031 0.9928064
vn -0.1224088 0.1143832 0.9858664
vn 0.8882543 0.4530355 0.07591485
vn 0.9143049 0.3921573 0.1012885
vn 0.8882543 0.4530355 0.07591485
vn 0.8563703 0.5140246 0.04907943
vn 0.1105708 -0.04853611 -0.9926825
vn 0.1520893 -0.09794842 -0.9835014
vn 0.1105708 -0.04853611 -0.9926825
vn 0.06495814 0.005348961 -0.9978737
vn -0.1311542 0.9877646 -0.08437893
vn -0.1318104 0.9877295 -0.08376496
vn -0.1311542 0.9877646 -0.08437893
vn -0.1304111 0.9878033 -0.08507408
vn 0.4266857 -0.8950683 0.1295839
vn 0.4266834 -0.8950699 0.1295808
vn 0.4266857 -0.8950683 0.1295839
vn 0.4266881 -0.8950668 0.129587
vn -0.4069572 0.9059687 -0.1166473
vn -0.4069572 0.9059687 -0.1166473
vn -0.4069572 0.9059687 -0.1166473
vn -0.4069572 0.9059687 -0.1166473
vn -0.01793895 0.1446131 0.9893256
vn -0.01436099 0.1761763 0.9842539
vn -0.01793895 0.1446131 0.9893256
vn -0.02087762 0.1184536 0.9927401
vn 0.1424999 -0.9849033 0.09828193
vn 0.1494966 -0.9830065 0.1065313
vn 0.1424999 -0.9849033 0.09828193
vn 0.1363233 -0.9864754 0.09100652
vn 0.02222059 -0.1365189 -0.9903883
vn 0.02786372 -0.1505552 -0.9882088
vn 0.02222059 -0.1365189 -0.9903883
vn 0.01602168 -0.1210782 -0.9925137
vn 0.1690064 0.979921 -0.1057909
vn 0.1523824 0.9848508 -0.08275575
vn 0.1690064 0.979921 -0.1057909
vn 0.1861884 0.973914 -0.1297127
vn 0.1245716 0.1264242 0.9841235
vn 0.1256869 0.1290546 0.98364
vn 0.1245716 0.1264242 0.9841235
vn 0.1235772 0.1240799 0.984547
vn -0.1792695 -0.9773079 0.112835
vn -0.1913831 -0.9764994 0.09910312
vn -0.1792695 -0.9773079 0.112835
vn -0.1676616 -0.977773 0.1258948
vn -0.1184868 -0.1170363 -0.9860342
vn -0.1186057 -0.1140872 -0.9863654
vn -0.1184868 -0.1170363 -0.9860342
vn -0.1183369 -0.1207156 -0.9856085
vn 0.5103564 0.8504346 -0.1276617
vn 0.5136274 0.8477268 -0.1324622
vn 0.5103564 0.8504346 -0.1276617
vn 0.5069892 0.8531679 -0.1227464
vn 0.1103964 0.1210909 0.9864835
vn 0.1168889 0.1276608 0.984906
vn 0.1103964 0.1210909 0.9864835
vn 0.1040714 0.1146896 0.9879349
vn -0.5313978 -0.8370893 0.1299922
vn -0.521156 -0.8414451 0.1427115
vn -0.5313978 -0.8370893 0.1299922
vn -0.5412685 -0.8325975 0.1175154
vn -0.109497 -0.1194256 -0.9867867
vn -0.1116867 -0.125407 -0.9857988
vn -0.109497 -0.1194256 -0.9867867
vn -0.1066625 -0.1116936 -0.9880019
vn -0.525362 0.8503699 -0.02942301
vn -0.5800817 0.8136083 -0.03932998
vn -0.525362 0.8503699 -0.02942301
vn -0.4704178 0.8822228 -0.0197516

vt 0.2934573 0.7198862
vt 0.2738745 0.5977664
vt 0.2716075 0.6660922
vt 0.2938327 0.833026
vt 0.2738745 0.5977664
vt 0.1952941 0.5902835
vt 0.1933376 0.6605862
vt 0.2716075 0.6660922
vt 0.1952941 0.5902835
vt 0.1500944 0.6800544
vt 0.150674 0.796344
vt 0.1933376 0.6605862
vt 0 0.6320799
vt 0.1500944 0.6800544
vt 0.2934573 0.7198862
vt 0.4515257 0.7550454
vt 0.2938327 0.833026
vt 0.2716075 0.6660922
vt 0.1933376 0.6605862
vt 0.150674 0.796344
vt 0.1500944 0.6800544
vt 0.1952941 0.5902835
vt 0.2738745 0.5977664
vt 0.2934573 0.7198862
vt 0.4515257 0.7550454
vt 0.2934573 0.7198862
vt 0.2938327 0.833026
vt 0.4884828 1
vt 0.4884828 1
vt 0.2938327 0.833026
vt 0.150674 0.796344
vt 1 0.8461735
vt 1 0.8461735
vt 0.150674 0.796344
vt 0.1500944 0.6800544
vt 0 0.6320799
vt 0.8223693 0.1797152
vt 0 0.6320799
vt 0.4515257 0.7550454
vt 0.6523033 0.194851
vt 0.6523033 0.194851
vt 0.4515257 0.7550454
vt 0.4884828 1
vt 0.6662647 0.3146508
vt 0.6662647 0.3146508
vt 0.4884828 1
vt 1 0.8461735
vt 0.805591 0.2921156
vt 0.805591 0.2921156
vt 1 0.8461735
vt 0 0.6320799
vt 0.8223693 0.1797152
vt 0.7815549 5.960464E-08
vt 0.8223693 0.1797152
vt 0.6523033 0.194851
vt 0.677435 0.02127844
vt 0.677435 0.02127844
vt 0.6523033 0.194851
vt 0.6662647 0.3146508
vt 0.6851621 0.07819429
vt 0.6851621 0.07819429
vt 0.6662647 0.3146508
vt 0.805591 0.2921156
vt 0.7739883 0.0539259
vt 0.7739883 0.0539259
vt 0.805591 0.2921156
vt 0.8223693 0.1797152
vt 0.7815549 5.960464E-08
vt 0.7815549 5.960464E-08
vt 0.677435 0.02127844
vt 0.6851621 0.07819429
vt 0.7739883 0.0539259

usemap Standard_7B512D
usemtl Standard_7B512D
f 4/4/4 3/3/3 2/2/2 1/1/1 
f 8/8/8 7/7/7 6/6/6 5/5/5 
f 12/12/12 11/11/11 10/10/10 9/9/9 
f 16/16/16 15/15/15 14/14/14 13/13/13 
f 20/20/20 19/19/19 18/18/18 17/17/17 
f 24/24/24 23/23/23 22/22/22 21/21/21 
f 28/28/28 27/27/27 26/26/26 25/25/25 
f 32/32/32 31/31/31 30/30/30 29/29/29 
f 36/36/36 35/35/35 34/34/34 33/33/33 
f 40/40/40 39/39/39 38/38/38 37/37/37 
f 44/44/44 43/43/43 42/42/42 41/41/41 
f 48/48/48 47/47/47 46/46/46 45/45/45 
f 52/52/52 51/51/51 50/50/50 49/49/49 
f 56/56/56 55/55/55 54/54/54 53/53/53 
f 60/60/60 59/59/59 58/58/58 57/57/57 
f 64/64/64 63/63/63 62/62/62 61/61/61 
f 68/68/68 67/67/67 66/66/66 65/65/65 
f 72/72/72 71/71/71 70/70/70 69/69/69 
