
mtllib ./gemheart.mtl

g s.0073
usemap Standard_F10EFF
usemtl Standard_F10EFF
v 1.095486 -0.08245793 -0.3036751
v 1.096611 -0.08019827 -0.3065347
v 1.019031 0.4547906 -0.3205539
v 1.017746 0.4547186 -0.3179734
v 1.432861 -0.2386767 -0.2151267
v 1.638216 -0.1332169 -0.2095783
v 1.60563 0.5153375 -0.2170787
v 1.34112 0.4873386 -0.3517087
v 1.605879 0.5156585 -0.2140753
v 1.60563 0.5153375 -0.2170787
v 1.638216 -0.1332169 -0.2095783
v 1.639073 -0.1339479 -0.2062301
v 1.191125 0.5102485 0.3936866
v 1.458553 0.5661064 0.3639073
v 1.582468 -0.1031911 0.366143
v 1.239641 0.0357528 0.4104381
v 1.340098 0.4907878 -0.3480407
v 1.34112 0.4873386 -0.3517087
v 1.60563 0.5153375 -0.2170787
v 1.605879 0.5156585 -0.2140753
v 1.639073 -0.1339479 -0.2062301
v 1.638216 -0.1332169 -0.2095783
v 1.432861 -0.2386767 -0.2151267
v 1.238937 0.8322597 0.01509631
v 1.630501 0.547439 0.08326492
v 1.458553 0.5661064 0.3639073
v 1.630501 0.547439 0.08326492
v 1.827952 0.02296773 0.1169817
v 1.582468 -0.1031911 0.366143
v 1.458553 0.5661064 0.3639073
v 1.582468 -0.1031911 0.366143
v 1.827952 0.02296773 0.1169817
v 1.440233 -0.5267818 0.08185932
v 1.08366 -0.305859 0.04460088
v 0.8574849 0.2413547 -0.01181736
v 0.9502203 0.3919798 0.2775978
v 1.035044 -0.2291943 0.2753866
v 1.017746 0.4547186 -0.3179734
v 1.019031 0.4547906 -0.3205539
v 1.34112 0.4873386 -0.3517087
v 1.340098 0.4907878 -0.3480407
v 1.238937 0.8322597 0.01509631
v 1.191125 0.5102485 0.3936866
v 0.9502203 0.3919798 0.2775978
v 1.191125 0.5102485 0.3936866
v 1.239641 0.0357528 0.4104381
v 1.035044 -0.2291943 0.2753866
v 0.9502203 0.3919798 0.2775978
v 1.440233 -0.5267818 0.08185932
v 1.08366 -0.305859 0.04460088
v 1.035044 -0.2291943 0.2753866
v 1.432537 -0.241247 -0.2112017
v 1.432861 -0.2386767 -0.2151267
v 1.096611 -0.08019827 -0.3065347
v 1.095486 -0.08245793 -0.3036751
v 1.432861 -0.2386767 -0.2151267
v 1.34112 0.4873386 -0.3517087
v 1.019031 0.4547906 -0.3205539
v 1.096611 -0.08019827 -0.3065347
v 0.9502203 0.3919798 0.2775978
v 0.8574849 0.2413547 -0.01181736
v 1.238937 0.8322597 0.01509631
v 1.017746 0.4547186 -0.3179734
v 1.340098 0.4907878 -0.3480407
v 1.238937 0.8322597 0.01509631
v 1.238937 0.8322597 0.01509631
v 1.340098 0.4907878 -0.3480407
v 1.605879 0.5156585 -0.2140753
v 1.605879 0.5156585 -0.2140753
v 1.639073 -0.1339479 -0.2062301
v 1.827952 0.02296773 0.1169817
v 1.630501 0.547439 0.08326492
v 1.440233 -0.5267818 0.08185932
v 1.827952 0.02296773 0.1169817
v 1.639073 -0.1339479 -0.2062301
v 1.440233 -0.5267818 0.08185932
v 1.432537 -0.241247 -0.2112017
v 1.095486 -0.08245793 -0.3036751
v 1.095486 -0.08245793 -0.3036751
v 1.017746 0.4547186 -0.3179734
v 0.8574849 0.2413547 -0.01181736
v 1.08366 -0.305859 0.04460088
v 1.238937 0.8322597 0.01509631
v 0.8574849 0.2413547 -0.01181736
v 1.017746 0.4547186 -0.3179734
v 1.605879 0.5156585 -0.2140753
v 1.630501 0.547439 0.08326492
v 1.238937 0.8322597 0.01509631
v 1.458553 0.5661064 0.3639073
v 1.191125 0.5102485 0.3936866
v 1.238937 0.8322597 0.01509631
v 1.095486 -0.08245793 -0.3036751
v 1.08366 -0.305859 0.04460088
v 1.440233 -0.5267818 0.08185932
v 1.035044 -0.2291943 0.2753866
v 1.239641 0.0357528 0.4104381
v 1.440233 -0.5267818 0.08185932
v 1.440233 -0.5267818 0.08185932
v 1.239641 0.0357528 0.4104381
v 1.582468 -0.1031911 0.366143
v 1.639073 -0.1339479 -0.2062301
v 1.432537 -0.241247 -0.2112017
v 1.440233 -0.5267818 0.08185932
v 1.432861 -0.2386767 -0.2151267
v 1.432537 -0.241247 -0.2112017
v 1.639073 -0.1339479 -0.2062301

vn -0.8818299 -0.1396428 -0.4504176
vn -0.8789713 -0.1394127 -0.4560413
vn -0.8818299 -0.1396428 -0.4504176
vn -0.8849026 -0.139887 -0.4442736
vn 0.3038897 -0.07209063 -0.9499758
vn 0.03211074 -0.00994503 -0.9994349
vn 0.3038897 -0.07209063 -0.9499758
vn 0.4599953 -0.107682 -0.8813676
vn 0.9845603 0.04789831 -0.1683654
vn 0.9949489 0.0489756 -0.08762494
vn 0.9845603 0.04789831 -0.1683654
vn 0.970087 0.04669288 -0.2382248
vn 0.1251617 0.03532789 0.9915072
vn 0.1059095 0.02292903 0.9941114
vn 0.1251617 0.03532789 0.9915072
vn 0.1478826 0.04999178 0.9877406
vn 0.1529121 0.8678442 -0.4727203
vn 0.2414631 0.7396145 -0.6282246
vn 0.1529121 0.8678442 -0.4727203
vn -0.04117866 0.9938481 -0.1028117
vn 0.4424372 -0.8458526 -0.2979644
vn 0.4424372 -0.8458526 -0.2979644
vn 0.4424372 -0.8458526 -0.2979644
vn 0.5340663 0.799804 0.2740198
vn 0.5340663 0.799804 0.2740198
vn 0.5340663 0.799804 0.2740198
vn 0.7442276 0.2193485 0.6308815
vn 0.6103982 0.2774953 0.7418965
vn 0.7442276 0.2193485 0.6308815
vn 0.8465702 0.158433 0.5081515
vn 0.7209433 -0.5364814 0.4386665
vn 0.7209433 -0.5364814 0.4386665
vn 0.7209433 -0.5364814 0.4386665
vn -0.9513369 -0.2445249 0.1875252
vn -0.8486183 -0.3062827 0.4313211
vn -0.9513369 -0.2445249 0.1875252
vn -0.9778239 -0.1329502 -0.1618168
vn -0.1388377 0.848877 -0.5100314
vn -0.1027497 0.9944329 -0.02336048
vn -0.1388377 0.848877 -0.5100314
vn -0.1435895 0.7006788 -0.6988786
vn -0.5631492 0.6632059 0.4929717
vn -0.5631492 0.6632059 0.4929717
vn -0.5631492 0.6632059 0.4929717
vn -0.4613436 -0.04438509 0.8861107
vn -0.5287932 -0.0241161 0.8484081
vn -0.4613436 -0.04438509 0.8861107
vn -0.4096257 -0.05917669 0.9103323
vn -0.5318729 -0.830803 0.1639439
vn -0.5318729 -0.830803 0.1639439
vn -0.5318729 -0.830803 0.1639439
vn -0.2031285 -0.7766613 -0.5962685
vn -0.2309749 -0.8051415 -0.546258
vn -0.2031285 -0.7766613 -0.5962685
vn -0.1697649 -0.7396215 -0.6512603
vn 0.06989468 -0.1090386 -0.9915772
vn -0.07506543 -0.1935138 -0.9782217
vn 0.06989468 -0.1090386 -0.9915772
vn 0.2682929 0.01366454 -0.9632404
vn -0.8397996 0.5427319 -0.01337124
vn -0.8397996 0.5427319 -0.01337124
vn -0.8397996 0.5427319 -0.01337124
vn -0.1435894 0.70068 -0.6988775
vn -0.1435894 0.70068 -0.6988775
vn -0.1435894 0.70068 -0.6988775
vn 0.2466165 0.739347 -0.6265351
vn 0.2466165 0.739347 -0.6265351
vn 0.2466165 0.739347 -0.6265351
vn 0.9156126 0.166922 -0.365774
vn 0.8547584 0.03742491 -0.5176751
vn 0.9156126 0.166922 -0.365774
vn 0.9321743 0.3436187 -0.1139173
vn 0.8064743 -0.5559108 -0.2014012
vn 0.8064743 -0.5559108 -0.2014012
vn 0.8064743 -0.5559108 -0.2014012
vn -0.1458486 -0.7104968 -0.6884203
vn -0.1458486 -0.7104968 -0.6884203
vn -0.1458486 -0.7104968 -0.6884203
vn -0.8710362 -0.2708439 -0.4098044
vn -0.8360144 -0.1351419 -0.531805
vn -0.8710362 -0.2708439 -0.4098044
vn -0.8764563 -0.391198 -0.2806928
vn -0.8374111 0.5433012 -0.05972094
vn -0.8374111 0.5433012 -0.05972094
vn -0.8374111 0.5433012 -0.05972094
vn 0.5980799 0.7901583 -0.1339792
vn 0.5980799 0.7901583 -0.1339792
vn 0.5980799 0.7901583 -0.1339792
vn -0.08848712 0.7642308 0.6388438
vn -0.08848712 0.7642308 0.6388438
vn -0.08848712 0.7642308 0.6388438
vn -0.4175306 -0.7583286 -0.5006056
vn -0.4175306 -0.7583286 -0.5006056
vn -0.4175306 -0.7583286 -0.5006056
vn 0.05737771 -0.4882025 0.8708422
vn 0.05737771 -0.4882025 0.8708422
vn 0.05737771 -0.4882025 0.8708422
vn -0.1058001 -0.5293972 0.8417511
vn -0.1058001 -0.5293972 0.8417511
vn -0.1058001 -0.5293972 0.8417511
vn 0.360413 -0.6633589 -0.6557877
vn 0.360413 -0.6633589 -0.6557877
vn 0.360413 -0.6633589 -0.6557877
vn 0.4148214 -0.7764956 -0.4743183
vn 0.4148214 -0.7764956 -0.4743183
vn 0.4148214 -0.7764956 -0.4743183

vt 0.429848 0.3553182
vt 0.4287189 0.357099
vt 0.4363734 0.7124295
vt 0.4374643 0.7128574
vt 0.2781544 0.1846643
vt 0.1711407 0.2682633
vt 0.1470635 0.7154637
vt 0.2886467 0.7315715
vt 0.14589 0.7161364
vt 0.1470635 0.7154637
vt 0.1711407 0.2682633
vt 0.1697677 0.2670383
vt 0.844085 0.7291231
vt 0.9750642 0.7372948
vt 1 0.2698193
vt 0.8382297 0.3787607
vt 0.2886426 0.7348502
vt 0.2886467 0.7315715
vt 0.1470635 0.7154637
vt 0.14589 0.7161364
vt 0.1697677 0.2670383
vt 0.1711407 0.2682633
vt 0.2781544 0.1846643
vt 0.8706262 1
vt -5.960464E-08 0.7402781
vt 0.9750642 0.7372948
vt -5.960464E-08 0.7402781
vt 0.007183701 0.3634806
vt 1 0.2698193
vt 0.9750642 0.7372948
vt 1 0.2698193
vt 0.007183701 0.3634806
vt 0.0120866 -5.960464E-08
vt 0.5895265 0.1774002
vt 0.5837205 0.5876762
vt 0.7167011 0.6708077
vt 0.7052976 0.2514939
vt 0.4374643 0.7128574
vt 0.4363734 0.7124295
vt 0.2886467 0.7315715
vt 0.2886426 0.7348502
vt 0.8706262 1
vt 0.844085 0.7291231
vt 0.7167011 0.6708077
vt 0.844085 0.7291231
vt 0.8382297 0.3787607
vt 0.7052976 0.2514939
vt 0.7167011 0.6708077
vt 0.0120866 -5.960464E-08
vt 0.5895265 0.1774002
vt 0.7052976 0.2514939
vt 0.2780432 0.1815664
vt 0.2781544 0.1846643
vt 0.4287189 0.357099
vt 0.429848 0.3553182
vt 0.2781544 0.1846643
vt 0.2886467 0.7315715
vt 0.4363734 0.7124295
vt 0.4287189 0.357099
vt 0.7167011 0.6708077
vt 0.5837205 0.5876762
vt 0.8706262 1
vt 0.4374643 0.7128574
vt 0.2886426 0.7348502
vt 0.8706262 1
vt 0.8706262 1
vt 0.2886426 0.7348502
vt 0.14589 0.7161364
vt 0.14589 0.7161364
vt 0.1697677 0.2670383
vt 0.007183701 0.3634806
vt -5.960464E-08 0.7402781
vt 0.0120866 -5.960464E-08
vt 0.007183701 0.3634806
vt 0.1697677 0.2670383
vt 0.0120866 -5.960464E-08
vt 0.2780432 0.1815664
vt 0.429848 0.3553182
vt 0.429848 0.3553182
vt 0.4374643 0.7128574
vt 0.5837205 0.5876762
vt 0.5895265 0.1774002
vt 0.8706262 1
vt 0.5837205 0.5876762
vt 0.4374643 0.7128574
vt 0.14589 0.7161364
vt -5.960464E-08 0.7402781
vt 0.8706262 1
vt 0.9750642 0.7372948
vt 0.844085 0.7291231
vt 0.8706262 1
vt 0.429848 0.3553182
vt 0.5895265 0.1774002
vt 0.0120866 -5.960464E-08
vt 0.7052976 0.2514939
vt 0.8382297 0.3787607
vt 0.0120866 -5.960464E-08
vt 0.0120866 -5.960464E-08
vt 0.8382297 0.3787607
vt 1 0.2698193
vt 0.1697677 0.2670383
vt 0.2780432 0.1815664
vt 0.0120866 -5.960464E-08
vt 0.2781544 0.1846643
vt 0.2780432 0.1815664
vt 0.1697677 0.2670383

usemap Standard_F10EFF
usemtl Standard_F10EFF
f 4/4/4 3/3/3 2/2/2 1/1/1 
f 8/8/8 7/7/7 6/6/6 5/5/5 
f 12/12/12 11/11/11 10/10/10 9/9/9 
f 16/16/16 15/15/15 14/14/14 13/13/13 
f 20/20/20 19/19/19 18/18/18 17/17/17 
f 23/23/23 22/22/22 21/21/21 
f 26/26/26 25/25/25 24/24/24 
f 30/30/30 29/29/29 28/28/28 27/27/27 
f 33/33/33 32/32/32 31/31/31 
f 37/37/37 36/36/36 35/35/35 34/34/34 
f 41/41/41 40/40/40 39/39/39 38/38/38 
f 44/44/44 43/43/43 42/42/42 
f 48/48/48 47/47/47 46/46/46 45/45/45 
f 51/51/51 50/50/50 49/49/49 
f 55/55/55 54/54/54 53/53/53 52/52/52 
f 59/59/59 58/58/58 57/57/57 56/56/56 
f 62/62/62 61/61/61 60/60/60 
f 65/65/65 64/64/64 63/63/63 
f 68/68/68 67/67/67 66/66/66 
f 72/72/72 71/71/71 70/70/70 69/69/69 
f 75/75/75 74/74/74 73/73/73 
f 78/78/78 77/77/77 76/76/76 
f 82/82/82 81/81/81 80/80/80 79/79/79 
f 85/85/85 84/84/84 83/83/83 
f 88/88/88 87/87/87 86/86/86 
f 91/91/91 90/90/90 89/89/89 
f 94/94/94 93/93/93 92/92/92 
f 97/97/97 96/96/96 95/95/95 
f 100/100/100 99/99/99 98/98/98 
f 103/103/103 102/102/102 101/101/101 
f 106/106/106 105/105/105 104/104/104 
