
mtllib ./plateau.mtl

g s.0096
usemap Standard_775239
usemtl Standard_775239
v 0.9185969 1.533924 2.333573
v 0.5158335 1.53077 2.041975
v 1.141527 3.628817 1.531499
v 0.9684827 -0.3860524 2.285437
v 1.310729 -0.3546702 1.388407
v 0.7554169 -0.3289713 1.842164
v 0.5158335 1.53077 2.041975
v 0.4287911 1.556453 1.592119
v 1.141527 3.628817 1.531499
v 0.7554169 -0.3289713 1.842164
v 1.310729 -0.3546702 1.388407
v 0.2452657 -0.3780017 1.489121
v 0.4287911 1.556453 1.592119
v 0.2756853 1.489428 1.024906
v 1.141527 3.628817 1.531499
v 0.2452657 -0.3780017 1.489121
v 1.310729 -0.3546702 1.388407
v 0.5789614 -0.3300473 1.022483
v 0.2756853 1.489428 1.024906
v 0.832877 1.467418 0.5789075
v 1.141527 3.628817 1.531499
v 0.5789614 -0.3300473 1.022483
v 1.310729 -0.3546702 1.388407
v 0.7048264 -0.3517243 0.6429861
v 0.832877 1.467418 0.5789075
v 1.108621 1.585126 0.4882746
v 1.141527 3.628817 1.531499
v 0.7048264 -0.3517243 0.6429861
v 1.310729 -0.3546702 1.388407
v 1.218001 -0.2854933 0.2517539
v 1.108621 1.585126 0.4882746
v 1.603089 1.596689 0.5395147
v 1.141527 3.628817 1.531499
v 1.218001 -0.2854933 0.2517539
v 1.310729 -0.3546702 1.388407
v 1.767571 -0.3251044 0.5928454
v 1.603089 1.596689 0.5395147
v 2.005852 1.599843 0.8311127
v 1.141527 3.628817 1.531499
v 1.767571 -0.3251044 0.5928454
v 1.310729 -0.3546702 1.388407
v 2.368401 -0.2720777 0.8820677
v 2.005852 1.599843 0.8311127
v 2.125823 1.422959 1.365728
v 1.141527 3.628817 1.531499
v 2.368401 -0.2720777 0.8820677
v 1.310729 -0.3546702 1.388407
v 2.169171 -0.2927848 1.331908
v 2.125823 1.422959 1.365728
v 2.158074 1.580023 1.779382
v 1.141527 3.628817 1.531499
v 2.169171 -0.2927848 1.331908
v 1.310729 -0.3546702 1.388407
v 2.293108 -0.2720521 1.905704
v 2.158074 1.580023 1.779382
v 1.866745 1.562361 2.181965
v 1.141527 3.628817 1.531499
v 2.293108 -0.2720521 1.905704
v 1.310729 -0.3546702 1.388407
v 1.948243 -0.3182349 2.404442
v 1.866745 1.562361 2.181965
v 1.420394 1.473128 2.23956
v 1.141527 3.628817 1.531499
v 1.948243 -0.3182349 2.404442
v 1.310729 -0.3546702 1.388407
v 1.429407 -0.3550153 2.44097
v 1.420394 1.473128 2.23956
v 0.9185969 1.533924 2.333573
v 1.141527 3.628817 1.531499
v 1.429407 -0.3550153 2.44097
v 1.310729 -0.3546702 1.388407
v 0.9684827 -0.3860524 2.285437
v 0.9185969 1.533924 2.333573
v 0.9056996 0.4274756 2.409093
v 0.6297678 0.599427 1.994912
v 0.5158335 1.53077 2.041975
v 0.9056996 0.4274756 2.409093
v 0.9684827 -0.3860524 2.285437
v 0.7554169 -0.3289713 1.842164
v 0.6297678 0.599427 1.994912
v 0.5158335 1.53077 2.041975
v 0.6297678 0.599427 1.994912
v 0.3376375 0.5768818 1.564084
v 0.4287911 1.556453 1.592119
v 0.6297678 0.599427 1.994912
v 0.7554169 -0.3289713 1.842164
v 0.2452657 -0.3780017 1.489121
v 0.3376375 0.5768818 1.564084
v 0.4287911 1.556453 1.592119
v 0.3376375 0.5768818 1.564084
v 0.261411 0.5161186 0.9623768
v 0.2756853 1.489428 1.024906
v 0.3376375 0.5768818 1.564084
v 0.2452657 -0.3780017 1.489121
v 0.5789614 -0.3300473 1.022483
v 0.261411 0.5161186 0.9623768
v 0.2756853 1.489428 1.024906
v 0.261411 0.5161186 0.9623768
v 0.6833087 0.6353352 0.6975631
v 0.832877 1.467418 0.5789075
v 0.261411 0.5161186 0.9623768
v 0.5789614 -0.3300473 1.022483
v 0.7048264 -0.3517243 0.6429861
v 0.6833087 0.6353352 0.6975631
v 0.832877 1.467418 0.5789075
v 0.6833087 0.6353352 0.6975631
v 1.133564 0.6251374 0.4642063
v 1.108621 1.585126 0.4882746
v 0.6833087 0.6353352 0.6975631
v 0.7048264 -0.3517243 0.6429861
v 1.218001 -0.2854933 0.2517539
v 1.133564 0.6251374 0.4642063
v 1.108621 1.585126 0.4882746
v 1.133564 0.6251374 0.4642063
v 1.628032 0.6367003 0.5154464
v 1.603089 1.596689 0.5395147
v 1.133564 0.6251374 0.4642063
v 1.218001 -0.2854933 0.2517539
v 1.767571 -0.3251044 0.5928454
v 1.628032 0.6367003 0.5154464
v 1.603089 1.596689 0.5395147
v 1.628032 0.6367003 0.5154464
v 2.030795 0.6398543 0.8070445
v 2.005852 1.599843 0.8311127
v 1.628032 0.6367003 0.5154464
v 1.767571 -0.3251044 0.5928454
v 2.368401 -0.2720777 0.8820677
v 2.030795 0.6398543 0.8070445
v 2.005852 1.599843 0.8311127
v 2.030795 0.6398543 0.8070445
v 2.233934 0.6337544 1.260868
v 2.125823 1.422959 1.365728
v 2.030795 0.6398543 0.8070445
v 2.368401 -0.2720777 0.8820677
v 2.169171 -0.2927848 1.331908
v 2.233934 0.6337544 1.260868
v 2.125823 1.422959 1.365728
v 2.233934 0.6337544 1.260868
v 2.2687 0.766731 1.845263
v 2.158074 1.580023 1.779382
v 2.233934 0.6337544 1.260868
v 2.169171 -0.2927848 1.331908
v 2.293108 -0.2720521 1.905704
v 2.2687 0.766731 1.845263
v 2.158074 1.580023 1.779382
v 2.2687 0.766731 1.845263
v 1.833194 0.6952109 2.285117
v 1.866745 1.562361 2.181965
v 2.2687 0.766731 1.845263
v 2.293108 -0.2720521 1.905704
v 1.948243 -0.3182349 2.404442
v 1.833194 0.6952109 2.285117
v 1.866745 1.562361 2.181965
v 1.833194 0.6952109 2.285117
v 1.438007 0.5854987 2.360745
v 1.420394 1.473128 2.23956
v 1.833194 0.6952109 2.285117
v 1.948243 -0.3182349 2.404442
v 1.429407 -0.3550153 2.44097
v 1.438007 0.5854987 2.360745
v 1.420394 1.473128 2.23956
v 1.438007 0.5854987 2.360745
v 0.9056996 0.4274756 2.409093
v 0.9185969 1.533924 2.333573
v 1.438007 0.5854987 2.360745
v 1.429407 -0.3550153 2.44097
v 0.9684827 -0.3860524 2.285437
v 0.9056996 0.4274756 2.409093

vn -0.5513887 0.3488245 0.7578206
vn -0.5513887 0.3488245 0.7578206
vn -0.5513887 0.3488245 0.7578206
vn -0.107828 -0.9912742 -0.07581928
vn -0.107828 -0.9912742 -0.07581928
vn -0.107828 -0.9912742 -0.07581928
vn -0.9252154 0.3239818 0.1975156
vn -0.9252154 0.3239818 0.1975156
vn -0.9252154 0.3239818 0.1975156
vn 0.03066575 -0.9951104 0.0938881
vn 0.03066575 -0.9951104 0.0938881
vn 0.03066575 -0.9951104 0.0938881
vn -0.9224775 0.3234283 0.2107829
vn -0.9224775 0.3234283 0.2107829
vn -0.9224775 0.3234283 0.2107829
vn 0.01300948 -0.9955804 -0.09300841
vn 0.01300948 -0.9955804 -0.09300841
vn 0.01300948 -0.9955804 -0.09300841
vn -0.5632708 0.3992617 -0.723406
vn -0.5632708 0.3992617 -0.723406
vn -0.5632708 0.3992617 -0.723406
vn -0.05324486 -0.9978065 0.03933575
vn -0.05324486 -0.9978065 0.03933575
vn -0.05324486 -0.9978065 0.03933575
vn -0.4388798 0.4141212 -0.7974259
vn -0.4388798 0.4141212 -0.7974259
vn -0.4388798 0.4141212 -0.7974259
vn 0.07741457 -0.9947549 -0.06685637
vn 0.07741457 -0.9947549 -0.06685637
vn 0.07741457 -0.9947549 -0.06685637
vn 0.08147275 0.4520992 -0.888239
vn 0.08147275 0.4520992 -0.888239
vn 0.08147275 0.4520992 -0.888239
vn -0.03604909 -0.9976785 -0.05777804
vn -0.03604909 -0.9976785 -0.05777804
vn -0.03604909 -0.9976785 -0.05777804
vn 0.5159787 0.4675611 -0.7177414
vn 0.5159787 0.4675611 -0.7177414
vn 0.5159787 0.4675611 -0.7177414
vn 0.08286763 -0.9965047 0.01055224
vn 0.08286763 -0.9965047 0.01055224
vn 0.08286763 -0.9965047 0.01055224
vn 0.9091745 0.4108087 -0.0681022
vn 0.9091745 0.4108087 -0.0681022
vn 0.9091745 0.4108087 -0.0681022
vn 0.07094757 -0.9973748 -0.01448902
vn 0.07094757 -0.9973748 -0.01448902
vn 0.07094757 -0.9973748 -0.01448902
vn 0.8833969 0.4110948 -0.2249691
vn 0.8833969 0.4110948 -0.2249691
vn 0.8833969 0.4110948 -0.2249691
vn 0.07321265 -0.9971115 0.02021442
vn 0.07321265 -0.9971115 0.02021442
vn 0.07321265 -0.9971115 0.02021442
vn 0.7243384 0.4250692 0.5428169
vn 0.7243384 0.4250692 0.5428169
vn 0.7243384 0.4250692 0.5428169
vn 0.09690751 -0.9949763 -0.02512471
vn 0.09690751 -0.9949763 -0.02512471
vn 0.09690751 -0.9949763 -0.02512471
vn 0.0584481 0.3183424 0.9461724
vn 0.0584481 0.3183424 0.9461724
vn 0.0584481 0.3183424 0.9461724
vn 0.07013352 -0.9975037 -0.008234657
vn 0.07013352 -0.9975037 -0.008234657
vn 0.07013352 -0.9975037 -0.008234657
vn 0.2122891 0.3296258 0.9199349
vn 0.2122891 0.3296258 0.9199349
vn 0.2122891 0.3296258 0.9199349
vn 0.06994105 -0.9975174 -0.008212958
vn 0.06994105 -0.9975174 -0.008212958
vn 0.06994105 -0.9975174 -0.008212958
vn -0.7236829 -0.02625084 0.6896333
vn -0.8218808 0.04832208 0.5676064
vn -0.7236829 -0.02625084 0.6896333
vn -0.5821738 -0.1119144 0.8053253
vn -0.8750136 -0.1667681 0.4544663
vn -0.8998899 -0.1325998 0.4154703
vn -0.8750136 -0.1667681 0.4544663
vn -0.8516778 -0.1952801 0.4863236
vn -0.9182003 -0.02647874 0.3952306
vn -0.8176864 -0.1283874 0.5611645
vn -0.9182003 -0.02647874 0.3952306
vn -0.9772844 0.08538941 0.193969
vn -0.6909094 -0.09880032 0.7161583
vn -0.5431335 -0.2073741 0.8136351
vn -0.6909094 -0.09880032 0.7161583
vn -0.8280064 0.03617089 0.5595507
vn -0.9812341 0.04426962 0.1876701
vn -0.9892363 0.08872277 0.1163605
vn -0.9812341 0.04426962 0.1876701
vn -0.9653664 -0.002602346 0.2608851
vn -0.9656034 -0.1188181 -0.2312843
vn -0.8131616 0.1233175 -0.5688242
vn -0.9656034 -0.1188181 -0.2312843
vn -0.9288927 -0.3378143 0.1517896
vn -0.5890997 0.02835601 -0.8075628
vn -0.5430726 0.06176274 -0.8374112
vn -0.5890997 0.02835601 -0.8075628
vn -0.6248798 0.0009919654 -0.7807204
vn -0.7438997 -0.1395607 -0.6535565
vn -0.8932648 -0.3548308 -0.2759949
vn -0.7438997 -0.1395607 -0.6535565
vn -0.5383435 0.03482091 -0.8420058
vn -0.4049643 -0.02008541 -0.9141119
vn -0.4604888 -0.04365487 -0.8865914
vn -0.4049643 -0.02008541 -0.9141119
vn -0.3181783 0.01549827 -0.9479042
vn -0.5454798 0.08684386 -0.8336127
vn -0.6084898 0.03058056 -0.7929724
vn -0.5454798 0.08684386 -0.8336127
vn -0.4510917 0.1628926 -0.8774863
vn 0.1023967 0.0275906 -0.994361
vn 0.1023967 0.0275906 -0.994361
vn 0.1023967 0.0275906 -0.994361
vn 0.1023967 0.0275906 -0.994361
vn 0.3522316 0.1091772 -0.9295231
vn 0.5244135 0.2392701 -0.8171539
vn 0.3522316 0.1091772 -0.9295231
vn 0.1043555 -0.06472372 -0.9924318
vn 0.5858805 0.03552095 -0.8096186
vn 0.5858805 0.03552095 -0.8096186
vn 0.5858805 0.03552095 -0.8096186
vn 0.5858805 0.03552095 -0.8096186
vn 0.497742 0.05634464 -0.8654931
vn 0.4343931 -0.009457494 -0.9006737
vn 0.497742 0.05634464 -0.8654931
vn 0.5791705 0.1484704 -0.8015723
vn 0.951305 0.09400036 -0.2935688
vn 0.9123781 0.03393351 -0.4079396
vn 0.951305 0.09400036 -0.2935688
vn 0.9736053 0.1555628 -0.167012
vn 0.9891654 0.1468057 7.617473E-05
vn 0.851328 0.3475045 0.3930413
vn 0.9891654 0.1468057 7.617473E-05
vn 0.9081526 -0.09474301 -0.4077778
vn 0.9848868 0.1370124 -0.1059512
vn 0.9848211 0.1471417 -0.09206986
vn 0.9848868 0.1370124 -0.1059512
vn 0.9845423 0.1238915 -0.1238041
vn 0.9908338 -0.02916957 -0.1318997
vn 0.9746239 -0.08403166 -0.2074774
vn 0.9908338 -0.02916957 -0.1318997
vn 0.9977647 0.01972892 -0.0638476
vn 0.7480507 0.1002979 0.6560188
vn 0.6900395 0.1511966 0.707803
vn 0.7480507 0.1002979 0.6560188
vn 0.8087248 0.03852727 0.5869241
vn 0.7577637 0.1078651 0.6435522
vn 0.8190988 0.05248351 0.5712466
vn 0.7577637 0.1078651 0.6435522
vn 0.6880451 0.1614097 0.707489
vn 0.1263243 0.1246664 0.9841243
vn 0.1570856 0.1106605 0.9813656
vn 0.1263243 0.1246664 0.9841243
vn 0.09987898 0.1365406 0.9855866
vn 0.1042383 0.1066627 0.9888163
vn 0.06097363 0.1235415 0.9904644
vn 0.1042383 0.1066627 0.9888163
vn 0.1652301 0.08232189 0.9828134
vn 0.1267102 0.09767377 0.9871193
vn 0.04947706 0.1360698 0.989463
vn 0.1267102 0.09767377 0.9871193
vn 0.1913222 0.06461833 0.979398
vn -0.1020231 -0.02777381 0.9943943
vn -0.3236473 0.08335389 0.9424991
vn -0.1020231 -0.02777381 0.9943943
vn 0.1304669 -0.1391415 0.9816405

vt 0.4904467 0.3203295
vt 0.5757369 0.3210381
vt 0.6063148 -5.960464E-08
vt 0.4904467 0.8017967
vt 0.7561126 1
vt 0.5758227 0.8379529
vt 0.5757369 0.3210381
vt 0.6565797 0.2989364
vt 0.6063148 -5.960464E-08
vt 0.5758227 0.8379529
vt 0.7561126 1
vt 0.6709982 0.7829138
vt 0.6565797 0.2989364
vt 0.7499994 0.3507838
vt 0.6063148 -5.960464E-08
vt 0.6709982 0.7829138
vt 0.7561126 1
vt 0.7615116 0.8201381
vt 0.7499994 0.3507838
vt 0.864925 0.3488401
vt 0.6063148 -5.960464E-08
vt 0.7615116 0.8201381
vt 0.7561126 1
vt 0.8299801 0.8003626
vt 0.864925 0.3488401
vt 0.9148154 0.321198
vt 0.6063148 -5.960464E-08
vt 0.8299801 0.8003626
vt 0.7561126 1
vt 0.9278355 0.7688597
vt 0.9148154 0.321198
vt 1 0.3205165
vt 0.6063148 -5.960464E-08
vt 0.9278355 0.7688597
vt 0.7561126 1
vt 0 0.8089817
vt 1 0.3205165
vt 0.06011391 0.3198015
vt 0.6063148 -5.960464E-08
vt 0 0.8089817
vt 0.7561126 1
vt 0.09895915 0.7658421
vt 0.06011391 0.3198015
vt 0.159402 0.3502168
vt 0.6063148 -5.960464E-08
vt 0.09895915 0.7658421
vt 0.7561126 1
vt 0.1611346 0.8151459
vt 0.159402 0.3502168
vt 0.2323657 0.3190076
vt 0.6063148 -5.960464E-08
vt 0.1611346 0.8151459
vt 0.7561126 1
vt 0.2517368 0.7718481
vt 0.2323657 0.3190076
vt 0.3186443 0.3191515
vt 0.6063148 -5.960464E-08
vt 0.2517368 0.7718481
vt 0.7561126 1
vt 0.3383687 0.7624176
vt 0.3186443 0.3191515
vt 0.3993461 0.3169147
vt 0.6063148 -5.960464E-08
vt 0.3383687 0.7624176
vt 0.7561126 1
vt 0.4121919 0.7846156
vt 0.3993461 0.3169147
vt 0.4904467 0.3203295
vt 0.6063148 -5.960464E-08
vt 0.4121919 0.7846156
vt 0.7561126 1
vt 0.4904467 0.8017967
vt 0.4904467 0.3203295
vt 0.4905922 0.6419698
vt 0.5687935 0.6187646
vt 0.5757369 0.3210381
vt 0.4905922 0.6419698
vt 0.4904467 0.8017967
vt 0.5758227 0.8379529
vt 0.5687935 0.6187646
vt 0.5757369 0.3210381
vt 0.5687935 0.6187646
vt 0.6606483 0.6160645
vt 0.6565797 0.2989364
vt 0.5687935 0.6187646
vt 0.5758227 0.8379529
vt 0.6709982 0.7829138
vt 0.6606483 0.6160645
vt 0.6565797 0.2989364
vt 0.6606483 0.6160645
vt 0.7528924 0.6187603
vt 0.7499994 0.3507838
vt 0.6606483 0.6160645
vt 0.6709982 0.7829138
vt 0.7615116 0.8201381
vt 0.7528924 0.6187603
vt 0.7499994 0.3507838
vt 0.7528924 0.6187603
vt 0.8272627 0.6106995
vt 0.864925 0.3488401
vt 0.7528924 0.6187603
vt 0.7615116 0.8201381
vt 0.8299801 0.8003626
vt 0.8272627 0.6106995
vt 0.864925 0.3488401
vt 0.8272627 0.6106995
vt 0.9148154 0.6163546
vt 0.9148154 0.321198
vt 0.8272627 0.6106995
vt 0.8299801 0.8003626
vt 0.9278355 0.7688597
vt 0.9148154 0.6163546
vt 0.9148154 0.321198
vt 0.9148154 0.6163546
vt 1 0.6168784
vt 1 0.3205165
vt 0.9148154 0.6163546
vt 0.9278355 0.7688597
vt 0 0.8089817
vt 1 0.6168784
vt 1 0.3205165
vt 1 0.6168784
vt 0.06011391 0.6174287
vt 0.06011391 0.3198015
vt 1 0.6168784
vt 0 0.8089817
vt 0.09895915 0.7658421
vt 0.06011391 0.6174287
vt 0.06011391 0.3198015
vt 0.06011391 0.6174287
vt 0.1461167 0.617856
vt 0.159402 0.3502168
vt 0.06011391 0.6174287
vt 0.09895915 0.7658421
vt 0.1611346 0.8151459
vt 0.1461167 0.617856
vt 0.159402 0.3502168
vt 0.1461167 0.617856
vt 0.2398278 0.5649745
vt 0.2323657 0.3190076
vt 0.1461167 0.617856
vt 0.1611346 0.8151459
vt 0.2517368 0.7718481
vt 0.2398278 0.5649745
vt 0.2323657 0.3190076
vt 0.2398278 0.5649745
vt 0.3381732 0.5825064
vt 0.3186443 0.3191515
vt 0.2398278 0.5649745
vt 0.2517368 0.7718481
vt 0.3383687 0.7624176
vt 0.3381732 0.5825064
vt 0.3186443 0.3191515
vt 0.3381732 0.5825064
vt 0.4047275 0.6175548
vt 0.3993461 0.3169147
vt 0.3381732 0.5825064
vt 0.3383687 0.7624176
vt 0.4121919 0.7846156
vt 0.4047275 0.6175548
vt 0.3993461 0.3169147
vt 0.4047275 0.6175548
vt 0.4905922 0.6419698
vt 0.4904467 0.3203295
vt 0.4047275 0.6175548
vt 0.4121919 0.7846156
vt 0.4904467 0.8017967
vt 0.4905922 0.6419698

usemap Standard_775239
usemtl Standard_775239
f 3/3/3 2/2/2 1/1/1 
f 6/6/6 5/5/5 4/4/4 
f 9/9/9 8/8/8 7/7/7 
f 12/12/12 11/11/11 10/10/10 
f 15/15/15 14/14/14 13/13/13 
f 18/18/18 17/17/17 16/16/16 
f 21/21/21 20/20/20 19/19/19 
f 24/24/24 23/23/23 22/22/22 
f 27/27/27 26/26/26 25/25/25 
f 30/30/30 29/29/29 28/28/28 
f 33/33/33 32/32/32 31/31/31 
f 36/36/36 35/35/35 34/34/34 
f 39/39/39 38/38/38 37/37/37 
f 42/42/42 41/41/41 40/40/40 
f 45/45/45 44/44/44 43/43/43 
f 48/48/48 47/47/47 46/46/46 
f 51/51/51 50/50/50 49/49/49 
f 54/54/54 53/53/53 52/52/52 
f 57/57/57 56/56/56 55/55/55 
f 60/60/60 59/59/59 58/58/58 
f 63/63/63 62/62/62 61/61/61 
f 66/66/66 65/65/65 64/64/64 
f 69/69/69 68/68/68 67/67/67 
f 72/72/72 71/71/71 70/70/70 
f 76/76/76 75/75/75 74/74/74 73/73/73 
f 80/80/80 79/79/79 78/78/78 77/77/77 
f 84/84/84 83/83/83 82/82/82 81/81/81 
f 88/88/88 87/87/87 86/86/86 85/85/85 
f 92/92/92 91/91/91 90/90/90 89/89/89 
f 96/96/96 95/95/95 94/94/94 93/93/93 
f 100/100/100 99/99/99 98/98/98 97/97/97 
f 104/104/104 103/103/103 102/102/102 101/101/101 
f 108/108/108 107/107/107 106/106/106 105/105/105 
f 112/112/112 111/111/111 110/110/110 109/109/109 
f 116/116/116 115/115/115 114/114/114 113/113/113 
f 120/120/120 119/119/119 118/118/118 117/117/117 
f 124/124/124 123/123/123 122/122/122 121/121/121 
f 128/128/128 127/127/127 126/126/126 125/125/125 
f 132/132/132 131/131/131 130/130/130 129/129/129 
f 136/136/136 135/135/135 134/134/134 133/133/133 
f 140/140/140 139/139/139 138/138/138 137/137/137 
f 144/144/144 143/143/143 142/142/142 141/141/141 
f 148/148/148 147/147/147 146/146/146 145/145/145 
f 152/152/152 151/151/151 150/150/150 149/149/149 
f 156/156/156 155/155/155 154/154/154 153/153/153 
f 160/160/160 159/159/159 158/158/158 157/157/157 
f 164/164/164 163/163/163 162/162/162 161/161/161 
f 168/168/168 167/167/167 166/166/166 165/165/165 
