
mtllib ./shardbearer.mtl

g s.0075
usemap Standard_B3B3B3
usemtl Standard_B3B3B3
v 1.386528 3.059507 1.595545
v 2.141235 3.0668 1.907648
v 2.124782 2.252359 1.966463
v 1.370076 2.245066 1.654361
v 2.141235 3.0668 1.907648
v 2.452988 3.006163 1.155201
v 2.436536 2.191723 1.214017
v 2.124782 2.252359 1.966463
v 2.452988 3.006163 1.155201
v 1.698282 2.99887 0.8430985
v 1.681829 2.18443 0.9019142
v 2.436536 2.191723 1.214017
v 1.698282 2.99887 0.8430985
v 1.386528 3.059507 1.595545
v 1.370076 2.245066 1.654361
v 1.681829 2.18443 0.9019142
v 1.255668 1.524 1.601286
v 1.370076 2.245066 1.654361
v 2.124782 2.252359 1.966463
v 1.854459 1.393866 1.777538
v 1.698282 2.99887 0.8430985
v 2.452988 3.006163 1.155201
v 2.141235 3.0668 1.907648
v 1.386528 3.059507 1.595545
v 1.854459 1.393866 1.777538
v 2.124782 2.252359 1.966463
v 2.436536 2.191723 1.214017
v 2.032833 1.343027 1.147594
v 2.032833 1.343027 1.147594
v 2.436536 2.191723 1.214017
v 1.681829 2.18443 0.9019142
v 1.42511 1.492525 0.9755201
v 1.42511 1.492525 0.9755201
v 1.681829 2.18443 0.9019142
v 1.370076 2.245066 1.654361
v 1.255668 1.524 1.601286
v 1.64558 0.8547611 1.655458
v 1.255668 1.524 1.601286
v 1.854459 1.393866 1.777538
v 1.718366 1.08962 1.761811
v 1.718366 1.08962 1.761811
v 1.854459 1.393866 1.777538
v 2.032833 1.343027 1.147594
v 1.915483 1.036561 1.137662
v 1.915483 1.036561 1.137662
v 2.032833 1.343027 1.147594
v 1.42511 1.492525 0.9755201
v 1.850459 0.8085688 1.041313
v 1.010458 0.7840945 0.81466
v 1.850459 0.8085688 1.041313
v 1.42511 1.492525 0.9755201
v 0.8992069 1.463005 0.8346028
v 1.64558 0.8547611 1.655458
v 1.718366 1.08962 1.761811
v 1.915483 1.036561 1.137662
v 1.850459 0.8085688 1.041313
v 0.6560142 2.117175 0.7328852
v 0.8992069 1.463005 0.8346028
v 1.42511 1.492525 0.9755201
v 1.176081 2.192466 0.8783672
v 0.7297641 1.494481 1.460368
v 1.255668 1.524 1.601286
v 1.64558 0.8547611 1.655458
v 0.8246115 0.8404082 1.433995
v 0.7286735 0.2402279 1.482475
v 0.8246115 0.8404082 1.433995
v 1.64558 0.8547611 1.655458
v 1.835892 0.2613955 1.714745
v 1.010458 0.7840945 0.81466
v 0.8992069 1.463005 0.8346028
v 0.7297641 1.494481 1.460368
v 0.8246115 0.8404082 1.433995
v 1.176081 2.192466 0.8783672
v 1.42511 1.492525 0.9755201
v 1.255668 1.524 1.601286
v 0.9935265 2.256247 1.497955
v 0.9935265 2.256247 1.497955
v 1.255668 1.524 1.601286
v 0.7297641 1.494481 1.460368
v 0.4734594 2.180956 1.352473
v 0.4734594 2.180956 1.352473
v 0.7297641 1.494481 1.460368
v 0.8992069 1.463005 0.8346028
v 0.6560142 2.117175 0.7328852
v 0.6808518 2.977849 0.5907504
v 0.6560142 2.117175 0.7328852
v 1.176081 2.192466 0.8783672
v 1.209843 2.991933 0.8034773
v 1.209843 2.991933 0.8034773
v 1.176081 2.192466 0.8783672
v 0.9935265 2.256247 1.497955
v 0.9572037 3.097502 1.424734
v 0.9572037 3.097502 1.424734
v 0.9935265 2.256247 1.497955
v 0.4734594 2.180956 1.352473
v 0.4282115 3.083419 1.212006
v 0.4282115 3.083419 1.212006
v 0.4734594 2.180956 1.352473
v 0.6560142 2.117175 0.7328852
v 0.6808518 2.977849 0.5907504
v 0.6808518 2.977849 0.5907504
v 1.209843 2.991933 0.8034773
v 0.9572037 3.097502 1.424734
v 0.4282115 3.083419 1.212006
v 1.835892 0.2613955 1.714745
v 1.64558 0.8547611 1.655458
v 1.850459 0.8085688 1.041313
v 2.061802 0.2095575 0.8828411
v 2.061802 0.2095575 0.8828411
v 1.850459 0.8085688 1.041313
v 1.010458 0.7840945 0.81466
v 0.9289628 0.1748757 0.6449783
v 0.9289628 0.1748757 0.6449783
v 1.010458 0.7840945 0.81466
v 0.8246115 0.8404082 1.433995
v 0.7286735 0.2402279 1.482475
v 0.8081442 -0.6624897 1.423238
v 0.7286735 0.2402279 1.482475
v 1.835892 0.2613955 1.714745
v 1.927884 -0.6237378 1.581379
v 1.927884 -0.6237378 1.581379
v 1.835892 0.2613955 1.714745
v 2.061802 0.2095575 0.8828411
v 2.096111 -0.5905421 0.7349833
v 2.096111 -0.5905421 0.7349833
v 2.061802 0.2095575 0.8828411
v 0.9289628 0.1748757 0.6449783
v 0.9508222 -0.6431308 0.5717358
v 0.9508222 -0.6431308 0.5717358
v 0.9289628 0.1748757 0.6449783
v 0.7286735 0.2402279 1.482475
v 0.8081442 -0.6624897 1.423238
v 1.078391 -0.9153962 1.252615
v 0.8081442 -0.6624897 1.423238
v 1.927884 -0.6237378 1.581379
v 1.710317 -0.9159527 1.362116
v 2.348933 -0.8927326 1.417712
v 1.710317 -0.9159527 1.362116
v 1.927884 -0.6237378 1.581379
v 2.384471 -0.5323 1.640481
v 1.821062 -0.9504123 0.8865717
v 2.096111 -0.5905421 0.7349833
v 0.9508222 -0.6431308 0.5717358
v 1.174354 -0.9572265 0.774456
v 0.5151976 -0.8509326 0.603669
v 1.174354 -0.9572265 0.774456
v 0.9508222 -0.6431308 0.5717358
v 0.5324352 -0.4362364 0.471585
v 1.056181 -1.092809 1.225668
v 1.078391 -0.9153962 1.252615
v 1.710317 -0.9159527 1.362116
v 1.682732 -1.096772 1.362563
v 1.682732 -1.096772 1.362563
v 1.710317 -0.9159527 1.362116
v 1.821062 -0.9504123 0.8865717
v 1.813791 -1.135809 0.8925697
v 1.813791 -1.135809 0.8925697
v 1.821062 -0.9504123 0.8865717
v 1.174354 -0.9572265 0.774456
v 1.172533 -1.139135 0.7524755
v 1.172533 -1.139135 0.7524755
v 1.174354 -0.9572265 0.774456
v 1.078391 -0.9153962 1.252615
v 1.056181 -1.092809 1.225668
v 0.9514863 -1.42349 1.300225
v 1.056181 -1.092809 1.225668
v 1.682732 -1.096772 1.362563
v 1.833262 -1.428228 1.455842
v 1.833262 -1.428228 1.455842
v 1.682732 -1.096772 1.362563
v 1.813791 -1.135809 0.8925697
v 1.990053 -1.4544 0.7911915
v 1.990053 -1.4544 0.7911915
v 1.813791 -1.135809 0.8925697
v 1.172533 -1.139135 0.7524755
v 1.087665 -1.459846 0.6315233
v 1.087665 -1.459846 0.6315233
v 1.172533 -1.139135 0.7524755
v 1.056181 -1.092809 1.225668
v 0.9514863 -1.42349 1.300225
v 0.96817 -2.044871 1.263522
v 0.9514863 -1.42349 1.300225
v 1.833262 -1.428228 1.455842
v 1.846665 -2.079819 1.433205
v 1.846665 -2.079819 1.433205
v 1.833262 -1.428228 1.455842
v 1.990053 -1.4544 0.7911915
v 2.012675 -2.11969 0.7714809
v 2.012675 -2.11969 0.7714809
v 1.990053 -1.4544 0.7911915
v 1.087665 -1.459846 0.6315233
v 1.113274 -2.09422 0.5975345
v 1.113274 -2.09422 0.5975345
v 1.087665 -1.459846 0.6315233
v 0.9514863 -1.42349 1.300225
v 0.96817 -2.044871 1.263522
v 1.194215 -2.324343 1.067152
v 0.96817 -2.044871 1.263522
v 1.846665 -2.079819 1.433205
v 1.724737 -2.312586 1.234011
v 1.724737 -2.312586 1.234011
v 1.846665 -2.079819 1.433205
v 2.012675 -2.11969 0.7714809
v 1.875059 -2.367401 0.8407648
v 1.875059 -2.367401 0.8407648
v 2.012675 -2.11969 0.7714809
v 1.113274 -2.09422 0.5975345
v 1.332153 -2.385822 0.6703668
v 1.332153 -2.385822 0.6703668
v 1.113274 -2.09422 0.5975345
v 0.96817 -2.044871 1.263522
v 1.194215 -2.324343 1.067152
v 1.194215 -2.324343 1.067152
v 1.724737 -2.312586 1.234011
v 1.875059 -2.367401 0.8407648
v 1.332153 -2.385822 0.6703668
v 0.5324352 -0.4362364 0.471585
v 0.9508222 -0.6431308 0.5717358
v 0.8081442 -0.6624897 1.423238
v 0.3896905 -0.5141673 1.319723
v 0.3896905 -0.5141673 1.319723
v 0.8081442 -0.6624897 1.423238
v 1.078391 -0.9153962 1.252615
v 0.4544371 -0.8440592 1.08932
v 0.4544371 -0.8440592 1.08932
v 1.078391 -0.9153962 1.252615
v 1.174354 -0.9572265 0.774456
v 0.5151976 -0.8509326 0.603669
v -0.04323852 0.1935842 0.7263129
v 0.5151976 -0.8509326 0.603669
v 0.5324352 -0.4362364 0.471585
v 0.1903943 0.2263589 0.6678575
v 0.1903943 0.2263589 0.6678575
v 0.5324352 -0.4362364 0.471585
v 0.3896905 -0.5141673 1.319723
v 0.07512629 0.4161263 1.09556
v 0.07512629 0.4161263 1.09556
v 0.3896905 -0.5141673 1.319723
v 0.4544371 -0.8440592 1.08932
v -0.07871199 0.2990563 0.9757613
v -0.07871199 0.2990563 0.9757613
v 0.4544371 -0.8440592 1.08932
v 0.5151976 -0.8509326 0.603669
v -0.04323852 0.1935842 0.7263129
v -0.04323852 0.1935842 0.7263129
v 0.1903943 0.2263589 0.6678575
v 0.07512629 0.4161263 1.09556
v -0.07871199 0.2990563 0.9757613
v 2.384471 -0.5323 1.640481
v 1.927884 -0.6237378 1.581379
v 2.096111 -0.5905421 0.7349833
v 2.489676 -0.4051824 0.7928028
v 2.489676 -0.4051824 0.7928028
v 2.096111 -0.5905421 0.7349833
v 1.821062 -0.9504123 0.8865717
v 2.449867 -0.8578188 0.9400215
v 2.449867 -0.8578188 0.9400215
v 1.821062 -0.9504123 0.8865717
v 1.710317 -0.9159527 1.362116
v 2.348933 -0.8927326 1.417712
v 2.813437 -0.4512155 1.668601
v 2.348933 -0.8927326 1.417712
v 2.384471 -0.5323 1.640481
v 2.535607 -0.1703041 1.82576
v 2.535607 -0.1703041 1.82576
v 2.384471 -0.5323 1.640481
v 2.489676 -0.4051824 0.7928028
v 2.543228 -0.1754625 0.9622199
v 2.543228 -0.1754625 0.9622199
v 2.489676 -0.4051824 0.7928028
v 2.449867 -0.8578188 0.9400215
v 2.872054 -0.4426594 1.182713
v 2.872054 -0.4426594 1.182713
v 2.449867 -0.8578188 0.9400215
v 2.348933 -0.8927326 1.417712
v 2.813437 -0.4512155 1.668601
v 2.902893 0.6483899 1.688839
v 2.813437 -0.4512155 1.668601
v 2.535607 -0.1703041 1.82576
v 2.684401 0.7848085 1.729018
v 2.684401 0.7848085 1.729018
v 2.535607 -0.1703041 1.82576
v 2.543228 -0.1754625 0.9622199
v 2.716547 0.5981312 1.234587
v 2.716547 0.5981312 1.234587
v 2.543228 -0.1754625 0.9622199
v 2.872054 -0.4426594 1.182713
v 2.95065 0.5594492 1.40622
v 2.95065 0.5594492 1.40622
v 2.872054 -0.4426594 1.182713
v 2.813437 -0.4512155 1.668601
v 2.902893 0.6483899 1.688839
v 2.902893 0.6483899 1.688839
v 2.684401 0.7848085 1.729018
v 2.716547 0.5981312 1.234587
v 2.95065 0.5594492 1.40622

vn -0.3817108 0.07424333 0.9212952
vn -0.3817108 0.07424333 0.9212952
vn -0.3817108 0.07424333 0.9212952
vn -0.3817108 0.07424333 0.9212952
vn 0.9240621 0.008929537 0.3821381
vn 0.9240621 0.008929537 0.3821381
vn 0.9240621 0.008929537 0.3821381
vn 0.9240621 0.008929537 0.3821381
vn 0.3817108 -0.07424333 -0.9212952
vn 0.3817108 -0.07424333 -0.9212952
vn 0.3817108 -0.07424333 -0.9212952
vn 0.3817108 -0.07424333 -0.9212952
vn -0.9240621 -0.008929537 -0.3821381
vn -0.9240621 -0.008929537 -0.3821381
vn -0.9240621 -0.008929537 -0.3821381
vn -0.9240621 -0.008929537 -0.3821381
vn -0.3435893 -0.05989927 0.9372078
vn -0.3820814 -0.007396263 0.924099
vn -0.3435893 -0.05989927 0.9372078
vn -0.3030504 -0.1128174 0.946273
vn 0.02014444 0.9972001 -0.07201393
vn 0.02014444 0.9972001 -0.07201393
vn 0.02014444 0.9972001 -0.07201393
vn 0.02014444 0.9972001 -0.07201393
vn 0.8579795 -0.3889347 0.3355608
vn 0.853963 -0.3530193 0.3822626
vn 0.8579795 -0.3889347 0.3355608
vn 0.8588479 -0.4302832 0.2779151
vn 0.3184331 -0.1408768 -0.9374188
vn 0.3807665 -0.1092599 -0.9181934
vn 0.3184331 -0.1408768 -0.9374188
vn 0.2252427 -0.1853282 -0.9565141
vn -0.9127079 0.2348712 -0.334365
vn -0.8773676 0.2844233 -0.3864317
vn -0.9127079 0.2348712 -0.334365
vn -0.9489794 0.1701135 -0.2655172
vn -0.3788404 -0.0623107 0.923362
vn -0.3006098 -0.09835092 0.9486627
vn -0.3788404 -0.0623107 0.923362
vn -0.865952 0.4026837 -0.2966023
vn 0.8783092 -0.3768562 0.2941976
vn 0.871058 -0.404071 0.2792571
vn 0.8783092 -0.3768562 0.2941976
vn 0.884764 -0.3488055 0.3090751
vn 0.363785 0.0607052 -0.9295027
vn 0.2565353 -0.06698076 -0.9642112
vn 0.363785 0.0607052 -0.9295027
vn 0.4843295 0.2197416 -0.8468403
vn 0.2567146 0.06864359 -0.9640465
vn 0.2580667 0.06778403 -0.9637463
vn 0.2567146 0.06864359 -0.9640465
vn 0.2545164 0.0700397 -0.9645288
vn 0.8644137 -0.3941002 0.3122082
vn 0.8611298 -0.4056454 0.306443
vn 0.8644137 -0.3941002 0.3122082
vn 0.8676894 -0.3819311 0.3181883
vn 0.2679302 -0.04395409 -0.9624351
vn 0.2612234 -0.05275588 -0.9638357
vn 0.2679302 -0.04395409 -0.9624351
vn 0.2740372 -0.03589653 -0.961049
vn -0.2568603 -0.07385105 0.9636227
vn -0.2545051 -0.07020577 0.9645197
vn -0.2568603 -0.07385105 0.9636227
vn -0.2584452 -0.07630752 0.9630074
vn -0.2297181 0.06948853 0.9707734
vn -0.2605359 0.119038 0.9580976
vn -0.2297181 0.06948853 0.9707734
vn -0.2057859 0.03172331 0.9780827
vn -0.9548814 -0.1385102 -0.2627096
vn -0.956288 -0.1493182 -0.2514305
vn -0.9548814 -0.1385102 -0.2627096
vn -0.9531559 -0.1271511 -0.2744564
vn 0.906207 0.3554884 0.2289472
vn 0.9069697 0.3543008 0.2277651
vn 0.906207 0.3554884 0.2289472
vn 0.9054745 0.3566234 0.2300773
vn -0.2680427 0.04532641 0.9623402
vn -0.2608226 0.04272282 0.9644409
vn -0.2680427 0.04532641 0.9623402
vn -0.2755277 0.04802901 0.9600926
vn -0.900684 -0.3709448 -0.2262043
vn -0.9006454 -0.3716606 -0.2251801
vn -0.900684 -0.3709448 -0.2262043
vn -0.900723 -0.3701914 -0.2272808
vn 0.3304229 -0.1338014 -0.9343008
vn 0.287706 -0.1641243 -0.943551
vn 0.3304229 -0.1338014 -0.9343008
vn 0.3734872 -0.1021402 -0.9219949
vn 0.9445052 0.0309958 0.3270308
vn 0.9587487 -0.01389276 0.2839153
vn 0.9445052 0.0309958 0.3270308
vn 0.9281413 0.07186256 0.3652254
vn -0.3291257 0.09967676 0.9390106
vn -0.2782762 0.07135379 0.9578471
vn -0.3291257 0.09967676 0.9390106
vn -0.3730516 0.124404 0.9194325
vn -0.9444304 -0.06265391 -0.3226853
vn -0.957781 -0.09049548 -0.2728848
vn -0.9444304 -0.06265391 -0.3226853
vn -0.9278159 -0.03456461 -0.3714335
vn 0.03540158 0.9875277 -0.153414
vn 0.03540062 0.9875278 -0.1534137
vn 0.03540158 0.9875277 -0.153414
vn 0.03540254 0.9875275 -0.1534143
vn 0.9225228 0.2895256 0.2551993
vn 0.9061556 0.3184452 0.2783428
vn 0.9225228 0.2895256 0.2551993
vn 0.9341272 0.2668675 0.2370403
vn 0.2123124 0.2773126 -0.9370279
vn 0.2374258 0.3258679 -0.915117
vn 0.2123124 0.2773126 -0.9370279
vn 0.1924956 0.2393124 -0.9516696
vn -0.9496996 0.1659474 -0.2655787
vn -0.931553 0.2077316 -0.2984235
vn -0.9496996 0.1659474 -0.2655787
vn -0.9613486 0.1342529 -0.2403852
vn -0.1682246 -0.1215174 0.97823
vn -0.2031183 -0.08190951 0.9757221
vn -0.1682246 -0.1215174 0.97823
vn -0.1325448 -0.1611331 0.9779918
vn 0.9730095 0.0348564 0.2281174
vn 0.9641929 0.06133356 0.2580121
vn 0.9730095 0.0348564 0.2281174
vn 0.9807518 0.005989839 0.1951664
vn 0.1665417 0.1391656 -0.9761643
vn 0.1964242 0.1863208 -0.9626536
vn 0.1665417 0.1391656 -0.9761643
vn 0.1363736 0.09196252 -0.9863798
vn -0.9793411 -0.04244985 -0.197709
vn -0.9726526 -0.005200814 -0.2322067
vn -0.9793411 -0.04244985 -0.197709
vn -0.9831443 -0.07562819 -0.1664559
vn -0.1099886 -0.5852263 0.8033758
vn -0.08858569 -0.6203941 0.7792713
vn -0.1099886 -0.5852263 0.8033758
vn -0.1460905 -0.5218487 0.8404353
vn -0.02936075 -0.552703 0.8328609
vn -0.05015949 -0.5752615 0.8164302
vn -0.02936075 -0.552703 0.8328609
vn -0.004920145 -0.5253903 0.8508471
vn 0.1493065 -0.4690266 -0.8704721
vn 0.1454702 -0.4764302 -0.8670944
vn 0.1493065 -0.4690266 -0.8704721
vn 0.1568104 -0.4543658 -0.876905
vn 0.1175146 -0.3869011 -0.9146025
vn 0.1534783 -0.4564267 -0.876424
vn 0.1175146 -0.3869011 -0.9146025
vn 0.07614122 -0.305477 -0.9491503
vn -0.1920973 -0.04581445 0.9803059
vn -0.1694573 -0.1272265 0.977291
vn -0.1920973 -0.04581445 0.9803059
vn -0.2131134 0.03492892 0.9764029
vn 0.9634786 -0.08724793 0.2531736
vn 0.9611064 -0.1460423 0.2344059
vn 0.9634786 -0.08724793 0.2531736
vn 0.9622206 -0.02898036 0.2707244
vn 0.1917442 0.03792723 -0.9807118
vn 0.1710826 -0.03856106 -0.9845018
vn 0.1917442 0.03792723 -0.9807118
vn 0.2114431 0.1151617 -0.9705821
vn -0.9696097 0.09551548 -0.2252419
vn -0.9793093 0.0339096 -0.199508
vn -0.9696097 0.09551548 -0.2252419
vn -0.9552504 0.1576047 -0.2503147
vn -0.184025 0.2295209 0.9557484
vn -0.2034829 0.276207 0.9393106
vn -0.184025 0.2295209 0.9557484
vn -0.1694452 0.1949191 0.9660719
vn 0.8768807 0.4383687 0.1972644
vn 0.8682878 0.4519065 0.2045896
vn 0.8768807 0.4383687 0.1972644
vn 0.8833582 0.4277741 0.1915403
vn 0.1769779 0.3457644 -0.9214803
vn 0.1942731 0.3934235 -0.8985966
vn 0.1769779 0.3457644 -0.9214803
vn 0.163844 0.3098549 -0.9365603
vn -0.9307406 0.2869973 -0.2266153
vn -0.9063492 0.3363101 -0.255786
vn -0.9307406 0.2869973 -0.2266153
vn -0.9452857 0.2527785 -0.2062471
vn -0.1825873 -0.0500879 0.981913
vn -0.1737791 -0.06271717 0.9827855
vn -0.1825873 -0.0500879 0.981913
vn -0.1909671 -0.03800357 0.9808605
vn 0.9716805 0.01900655 0.2355329
vn 0.9733205 0.01206007 0.2291322
vn 0.9716805 0.01900655 0.2355329
vn 0.9699852 0.0258178 0.2417894
vn 0.182367 0.04734562 -0.98209
vn 0.1739203 0.03507068 -0.984135
vn 0.182367 0.04734562 -0.98209
vn 0.1911824 0.0602093 -0.9797062
vn -0.9785581 -0.021425 -0.2048535
vn -0.9797835 -0.02894714 -0.1979556
vn -0.9785581 -0.021425 -0.2048535
vn -0.9771964 -0.01372097 -0.2118935
vn -0.1912414 -0.623974 0.7576827
vn -0.1684317 -0.6542711 0.7372653
vn -0.1912414 -0.623974 0.7576827
vn -0.2380277 -0.556515 0.7960113
vn 0.8077044 -0.5142663 0.2883464
vn 0.7680981 -0.5980853 0.2287342
vn 0.8077044 -0.5142663 0.2883464
vn 0.8505753 -0.3672787 0.376335
vn 0.2257213 -0.2162939 -0.9498772
vn 0.1682029 -0.3510787 -0.9211143
vn 0.2257213 -0.2162939 -0.9498772
vn 0.2998401 -0.01318904 -0.9538983
vn -0.7953807 -0.587101 -0.1506057
vn -0.7784739 -0.6153027 -0.1240204
vn -0.7953807 -0.587101 -0.1506057
vn -0.8265854 -0.5236722 -0.2062137
vn -0.01610773 -0.9900405 0.1398585
vn -0.01918318 -0.9912187 0.1308335
vn -0.01610773 -0.9900405 0.1398585
vn -0.0131053 -0.9888026 0.1486527
vn 0.3645164 0.9241784 0.1141148
vn 0.4237268 0.9011579 0.09148758
vn 0.3645164 0.9241784 0.1141148
vn 0.3005741 0.9438226 0.1373102
vn -0.3139757 -0.6540418 0.6882214
vn -0.3966594 -0.7655749 0.506514
vn -0.3139757 -0.6540418 0.6882214
vn -0.2671653 -0.5864738 0.7646379
vn -0.143872 -0.9892389 0.02659347
vn -0.129045 -0.9897798 0.06068894
vn -0.143872 -0.9892389 0.02659347
vn -0.1577432 -0.9874634 -0.005760232
vn -0.4883565 -0.09555725 -0.8673965
vn -0.5881224 -0.2231543 -0.7773765
vn -0.4883565 -0.09555725 -0.8673965
vn -0.2595977 0.1486457 -0.9542084
vn 0.9129381 0.3789737 0.1514035
vn 0.8943461 0.4060356 0.1878303
vn 0.9129381 0.3789737 0.1514035
vn 0.9348444 0.3404173 0.1009058
vn -0.8150067 -0.2479076 0.5237422
vn -0.947513 -0.2859065 0.1430966
vn -0.8150067 -0.2479076 0.5237422
vn -0.5262692 -0.1625383 0.8346388
vn -0.8938032 -0.4457875 -0.04888102
vn -0.8970723 -0.4289412 -0.1061639
vn -0.8938032 -0.4457875 -0.04888102
vn -0.8754417 -0.4771121 0.07723833
vn -0.2642674 0.8611372 -0.4342873
vn -0.2328523 0.8641297 -0.4461611
vn -0.2642674 0.8611372 -0.4342873
vn -0.3309126 0.851364 -0.4070334
vn -0.314205 0.9485517 0.03904882
vn -0.1962957 0.9805446 -0.0005576586
vn -0.314205 0.9485517 0.03904882
vn -0.4343655 0.8971213 0.08062245
vn 0.2075712 -0.4074886 -0.8893072
vn 0.3828377 -0.5915134 -0.7096106
vn 0.2075712 -0.4074886 -0.8893072
vn 0.1265595 -0.3168605 -0.9399906
vn 0.08932886 -0.995814 0.01936201
vn 0.1363181 -0.9852812 0.1031423
vn 0.08932886 -0.995814 0.01936201
vn 0.04182845 -0.9970706 -0.06403631
vn 0.03752014 -0.4987868 0.8659122
vn 0.04429986 -0.5283886 0.8478462
vn 0.03752014 -0.4987868 0.8659122
vn 0.02996114 -0.4652945 0.8846486
vn -0.9373218 0.3464839 -0.03710726
vn -0.9117923 0.4073359 -0.05207928
vn -0.9373218 0.3464839 -0.03710726
vn -0.9721874 0.2339919 -0.009978038
vn 0.7084378 -0.07409655 -0.701873
vn 0.9823855 -0.1300464 -0.1341896
vn 0.7084378 -0.07409655 -0.701873
vn 0.5308256 -0.04509746 -0.8462803
vn 0.6700417 -0.7382518 0.07764221
vn 0.6721452 -0.7351364 0.08829138
vn 0.6700417 -0.7382518 0.07764221
vn 0.6679677 -0.7411197 0.0675328
vn 0.3639857 -0.007527147 0.9313741
vn 0.4504862 -0.05305123 0.8912058
vn 0.3639857 -0.007527147 0.9313741
vn 0.2192641 0.06444962 0.9735346
vn -0.980547 0.1883275 -0.05531947
vn -0.9881839 0.1529703 -0.009635231
vn -0.980547 0.1883275 -0.05531947
vn -0.9487824 0.2702074 -0.1637067
vn 0.6134509 0.1304772 -0.7788797
vn 0.623625 0.1315831 -0.7705698
vn 0.6134509 0.1304772 -0.7788797
vn 0.6001033 0.1290098 -0.7894508
vn 0.9846016 -0.09569462 0.1462948
vn 0.9876714 -0.1036316 0.1173278
vn 0.9846016 -0.09569462 0.1462948
vn 0.9779879 -0.08308516 0.1914064
vn 0.4140721 0.8704582 -0.2661707
vn 0.4693862 0.8357276 -0.2850193
vn 0.4140721 0.8704582 -0.2661707
vn 0.3230667 0.916994 -0.2339867

vt 0.4915283 0.05009982
vt 0.3394896 0.1096961
vt 0.3394896 0.1668797
vt 0.4915283 0.08806342
vt 0.3394896 0.1096961
vt 0.1904366 0.09130388
vt 0.1904366 0.1435418
vt 0.3394896 0.1668797
vt 0.1904366 0.09130388
vt 0.02110028 0
vt 0.02110028 0.01583722
vt 0.1904366 0.1435418
vt 0.02110028 0
vt 0.4915283 0.05009982
vt 0.4915283 0.08806342
vt 0.02110028 0.01583722
vt 0.5327863 0.1474279
vt 0.4915283 0.08806342
vt 0.3394896 0.1668797
vt 0.3564973 0.222656
vt 0.02110028 0
vt 0.1904366 0.09130388
vt 0.3394896 0.1096961
vt 0.4915283 0.05009982
vt 0.3564973 0.222656
vt 0.3394896 0.1668797
vt 0.1904366 0.1435418
vt 0.1685145 0.1690635
vt 0.1685145 0.1690635
vt 0.1904366 0.1435418
vt 0.02110028 0.01583722
vt 0.9338825 0.02363852
vt 0.9338825 0.02363852
vt 0.02110028 0.01583722
vt 0.4915283 0.08806342
vt 0.5327863 0.1474279
vt 0.3906654 0.3388956
vt 0.5327863 0.1474279
vt 0.3564973 0.222656
vt 0.3832427 0.2817892
vt 0.3832427 0.2817892
vt 0.3564973 0.222656
vt 0.1685145 0.1690635
vt 0.1566916 0.2100361
vt 0.1566916 0.2100361
vt 0.1685145 0.1690635
vt 0.9338825 0.02363852
vt 0.1018888 0.2929274
vt 0.8518197 0.3674326
vt 0.1018888 0.2929274
vt 0.9338825 0.02363852
vt 0.815823 0.1801408
vt 0.3906654 0.3388956
vt 0.3832427 0.2817892
vt 0.1566916 0.2100361
vt 0.1018888 0.2929274
vt 0.8038464 0.1477689
vt 0.815823 0.1801408
vt 0.9338825 0.02363852
vt 0.8276175 0.04568774
vt 0.658362 0.2232957
vt 0.5327863 0.1474279
vt 0.3906654 0.3388956
vt 0.66422 0.3858676
vt 0.6704515 0.6447853
vt 0.66422 0.3858676
vt 0.3906654 0.3388956
vt 0.3351015 0.6656389
vt 0.8518197 0.3674326
vt 0.815823 0.1801408
vt 0.658362 0.2232957
vt 0.66422 0.3858676
vt 0.8276175 0.04568774
vt 0.9338825 0.02363852
vt 0.5327863 0.1474279
vt 0.6076592 0.09954175
vt 0.6076592 0.09954175
vt 0.5327863 0.1474279
vt 0.658362 0.2232957
vt 0.6862241 0.1706191
vt 0.6862241 0.1706191
vt 0.658362 0.2232957
vt 0.815823 0.1801408
vt 0.8038464 0.1477689
vt 0.8187397 0.09344006
vt 0.8038464 0.1477689
vt 0.8276175 0.04568774
vt 0.8389679 0.01977971
vt 0.8389679 0.01977971
vt 0.8276175 0.04568774
vt 0.6076592 0.09954175
vt 0.6189014 0.06202725
vt 0.6189014 0.06202725
vt 0.6076592 0.09954175
vt 0.6862241 0.1706191
vt 0.7007827 0.1115357
vt 0.7007827 0.1115357
vt 0.6862241 0.1706191
vt 0.8038464 0.1477689
vt 0.8187397 0.09344006
vt 0.8187397 0.09344006
vt 0.8389679 0.01977971
vt 0.6189014 0.06202725
vt 0.7007827 0.1115357
vt 0.3351015 0.6656389
vt 0.3906654 0.3388956
vt 0.1018888 0.2929274
vt 0.06926751 0.6504764
vt 0.06926751 0.6504764
vt 0.1018888 0.2929274
vt 0.8518197 0.3674326
vt 0.8822567 0.6466665
vt 0.8822567 0.6466665
vt 0.8518197 0.3674326
vt 0.66422 0.3858676
vt 0.6704515 0.6447853
vt 0.6932068 0.8728004
vt 0.6704515 0.6447853
vt 0.3351015 0.6656389
vt 0.2679694 0.8889689
vt 0.2679694 0.8889689
vt 0.3351015 0.6656389
vt 0.06926751 0.6504764
vt 0.03484577 0.8188841
vt 0.03484577 0.8188841
vt 0.06926751 0.6504764
vt 0.8822567 0.6466665
vt 0.9076258 0.822283
vt 0.9076258 0.822283
vt 0.8822567 0.6466665
vt 0.6704515 0.6447853
vt 0.6932068 0.8728004
vt 0.7533319 0.9559818
vt 0.6932068 0.8728004
vt 0.2679694 0.8889689
vt 0.2108525 0.9784589
vt 0.1874701 0.8483266
vt 0.2108525 0.9784589
vt 0.2679694 0.8889689
vt 0.2319804 0.7875808
vt 0.01004717 0.9184257
vt 0.03484577 0.8188841
vt 0.9076258 0.822283
vt 0.9329081 0.9120027
vt 0.8499842 0.8017533
vt 0.9329081 0.9120027
vt 0.9076258 0.822283
vt 0.8631883 0.7314245
vt 0.7706584 0.9598985
vt 0.7533319 0.9559818
vt 0.2108525 0.9784589
vt 0.2065841 0.9904581
vt 0.2065841 0.9904581
vt 0.2108525 0.9784589
vt 0.01004717 0.9184257
vt 0.007534832 0.930575
vt 0.007534832 0.930575
vt 0.01004717 0.9184257
vt 0.9329081 0.9120027
vt 0.9382679 0.9193141
vt 0.9382679 0.9193141
vt 0.9329081 0.9120027
vt 0.7533319 0.9559818
vt 0.7706584 0.9598985
vt 0.7449867 0.9582731
vt 0.7706584 0.9598985
vt 0.2065841 0.9904581
vt 0.219139 0.9702923
vt 0.219139 0.9702923
vt 0.2065841 0.9904581
vt 0.007534832 0.930575
vt 0.02025145 0.9130996
vt 0.02025145 0.9130996
vt 0.007534832 0.930575
vt 0.9382679 0.9193141
vt 0.936725 0.912109
vt 0.936725 0.912109
vt 0.9382679 0.9193141
vt 0.7706584 0.9598985
vt 0.7449867 0.9582731
vt 0.777262 0.979461
vt 0.7449867 0.9582731
vt 0.219139 0.9702923
vt 0.1870085 0.9859836
vt 0.1870085 0.9859836
vt 0.219139 0.9702923
vt 0.02025145 0.9130996
vt 0.01518098 0.9345697
vt 0.01518098 0.9345697
vt 0.02025145 0.9130996
vt 0.936725 0.912109
vt 0.9520668 0.9344338
vt 0.9520668 0.9344338
vt 0.936725 0.912109
vt 0.7449867 0.9582731
vt 0.777262 0.979461
vt 0.9102812 0.9937575
vt 0.777262 0.979461
vt 0.1870085 0.9859836
vt 0.07446927 1
vt 0.07446927 1
vt 0.1870085 0.9859836
vt 0.01518098 0.9345697
vt 2.980232E-08 0.9574411
vt 2.980232E-08 0.9574411
vt 0.01518098 0.9345697
vt 0.9520668 0.9344338
vt 1 0.9563386
vt 1 0.9563386
vt 0.9520668 0.9344338
vt 0.777262 0.979461
vt 0.9102812 0.9937575
vt 0.9102812 0.9937575
vt 0.07446927 1
vt 2.980232E-08 0.9574411
vt 1 0.9563386
vt 0.8631883 0.7314245
vt 0.9076258 0.822283
vt 0.6932068 0.8728004
vt 0.7252209 0.7762104
vt 0.7252209 0.7762104
vt 0.6932068 0.8728004
vt 0.7533319 0.9559818
vt 0.7705276 0.8268229
vt 0.7705276 0.8268229
vt 0.7533319 0.9559818
vt 0.9329081 0.9120027
vt 0.8499842 0.8017533
vt 0.791558 0.5789354
vt 0.8499842 0.8017533
vt 0.8631883 0.7314245
vt 0.807847 0.5795956
vt 0.807847 0.5795956
vt 0.8631883 0.7314245
vt 0.7252209 0.7762104
vt 0.7480134 0.5419883
vt 0.7480134 0.5419883
vt 0.7252209 0.7762104
vt 0.7705276 0.8268229
vt 0.7616602 0.5618042
vt 0.7616602 0.5618042
vt 0.7705276 0.8268229
vt 0.8499842 0.8017533
vt 0.791558 0.5789354
vt 0.791558 0.5789354
vt 0.807847 0.5795956
vt 0.7480134 0.5419883
vt 0.7616602 0.5618042
vt 0.2319804 0.7875808
vt 0.2679694 0.8889689
vt 0.03484577 0.8188841
vt 0.08468878 0.7352789
vt 0.08468878 0.7352789
vt 0.03484577 0.8188841
vt 0.01004717 0.9184257
vt 0.1006141 0.8160357
vt 0.1006141 0.8160357
vt 0.01004717 0.9184257
vt 0.2108525 0.9784589
vt 0.1874701 0.8483266
vt 0.215205 0.7153255
vt 0.1874701 0.8483266
vt 0.2319804 0.7875808
vt 0.253091 0.6908778
vt 0.253091 0.6908778
vt 0.2319804 0.7875808
vt 0.08468878 0.7352789
vt 0.1159743 0.693131
vt 0.1159743 0.693131
vt 0.08468878 0.7352789
vt 0.1006141 0.8160357
vt 0.1519491 0.7082368
vt 0.1519491 0.7082368
vt 0.1006141 0.8160357
vt 0.1874701 0.8483266
vt 0.215205 0.7153255
vt 0.224339 0.48392
vt 0.215205 0.7153255
vt 0.253091 0.6908778
vt 0.2411453 0.4483943
vt 0.2411453 0.4483943
vt 0.253091 0.6908778
vt 0.1159743 0.693131
vt 0.1693299 0.4852898
vt 0.1693299 0.4852898
vt 0.1159743 0.693131
vt 0.1519491 0.7082368
vt 0.1887583 0.4990488
vt 0.1887583 0.4990488
vt 0.1519491 0.7082368
vt 0.215205 0.7153255
vt 0.224339 0.48392
vt 0.224339 0.48392
vt 0.2411453 0.4483943
vt 0.1693299 0.4852898
vt 0.1887583 0.4990488

usemap Standard_B3B3B3
usemtl Standard_B3B3B3
f 4/4/4 3/3/3 2/2/2 1/1/1 
f 8/8/8 7/7/7 6/6/6 5/5/5 
f 12/12/12 11/11/11 10/10/10 9/9/9 
f 16/16/16 15/15/15 14/14/14 13/13/13 
f 20/20/20 19/19/19 18/18/18 17/17/17 
f 24/24/24 23/23/23 22/22/22 21/21/21 
f 28/28/28 27/27/27 26/26/26 25/25/25 
f 32/32/32 31/31/31 30/30/30 29/29/29 
f 36/36/36 35/35/35 34/34/34 33/33/33 
f 40/40/40 39/39/39 38/38/38 37/37/37 
f 44/44/44 43/43/43 42/42/42 41/41/41 
f 48/48/48 47/47/47 46/46/46 45/45/45 
f 52/52/52 51/51/51 50/50/50 49/49/49 
f 56/56/56 55/55/55 54/54/54 53/53/53 
f 60/60/60 59/59/59 58/58/58 57/57/57 
f 64/64/64 63/63/63 62/62/62 61/61/61 
f 68/68/68 67/67/67 66/66/66 65/65/65 
f 72/72/72 71/71/71 70/70/70 69/69/69 
f 76/76/76 75/75/75 74/74/74 73/73/73 
f 80/80/80 79/79/79 78/78/78 77/77/77 
f 84/84/84 83/83/83 82/82/82 81/81/81 
f 88/88/88 87/87/87 86/86/86 85/85/85 
f 92/92/92 91/91/91 90/90/90 89/89/89 
f 96/96/96 95/95/95 94/94/94 93/93/93 
f 100/100/100 99/99/99 98/98/98 97/97/97 
f 104/104/104 103/103/103 102/102/102 101/101/101 
f 108/108/108 107/107/107 106/106/106 105/105/105 
f 112/112/112 111/111/111 110/110/110 109/109/109 
f 116/116/116 115/115/115 114/114/114 113/113/113 
f 120/120/120 119/119/119 118/118/118 117/117/117 
f 124/124/124 123/123/123 122/122/122 121/121/121 
f 128/128/128 127/127/127 126/126/126 125/125/125 
f 132/132/132 131/131/131 130/130/130 129/129/129 
f 136/136/136 135/135/135 134/134/134 133/133/133 
f 140/140/140 139/139/139 138/138/138 137/137/137 
f 144/144/144 143/143/143 142/142/142 141/141/141 
f 148/148/148 147/147/147 146/146/146 145/145/145 
f 152/152/152 151/151/151 150/150/150 149/149/149 
f 156/156/156 155/155/155 154/154/154 153/153/153 
f 160/160/160 159/159/159 158/158/158 157/157/157 
f 164/164/164 163/163/163 162/162/162 161/161/161 
f 168/168/168 167/167/167 166/166/166 165/165/165 
f 172/172/172 171/171/171 170/170/170 169/169/169 
f 176/176/176 175/175/175 174/174/174 173/173/173 
f 180/180/180 179/179/179 178/178/178 177/177/177 
f 184/184/184 183/183/183 182/182/182 181/181/181 
f 188/188/188 187/187/187 186/186/186 185/185/185 
f 192/192/192 191/191/191 190/190/190 189/189/189 
f 196/196/196 195/195/195 194/194/194 193/193/193 
f 200/200/200 199/199/199 198/198/198 197/197/197 
f 204/204/204 203/203/203 202/202/202 201/201/201 
f 208/208/208 207/207/207 206/206/206 205/205/205 
f 212/212/212 211/211/211 210/210/210 209/209/209 
f 216/216/216 215/215/215 214/214/214 213/213/213 
f 220/220/220 219/219/219 218/218/218 217/217/217 
f 224/224/224 223/223/223 222/222/222 221/221/221 
f 228/228/228 227/227/227 226/226/226 225/225/225 
f 232/232/232 231/231/231 230/230/230 229/229/229 
f 236/236/236 235/235/235 234/234/234 233/233/233 
f 240/240/240 239/239/239 238/238/238 237/237/237 
f 244/244/244 243/243/243 242/242/242 241/241/241 
f 248/248/248 247/247/247 246/246/246 245/245/245 
f 252/252/252 251/251/251 250/250/250 249/249/249 
f 256/256/256 255/255/255 254/254/254 253/253/253 
f 260/260/260 259/259/259 258/258/258 257/257/257 
f 264/264/264 263/263/263 262/262/262 261/261/261 
f 268/268/268 267/267/267 266/266/266 265/265/265 
f 272/272/272 271/271/271 270/270/270 269/269/269 
f 276/276/276 275/275/275 274/274/274 273/273/273 
f 280/280/280 279/279/279 278/278/278 277/277/277 
f 284/284/284 283/283/283 282/282/282 281/281/281 
f 288/288/288 287/287/287 286/286/286 285/285/285 
f 292/292/292 291/291/291 290/290/290 289/289/289 
f 296/296/296 295/295/295 294/294/294 293/293/293 

g s.0098
usemap Standard_6B6B6B
usemtl Standard_6B6B6B
v 0.5840405 -1.110482 1.309195
v 2.132069 -1.074869 1.629541
v 1.988984 -2.47044 1.532335
v 0.7620845 -2.439345 1.252405
v 2.132069 -1.074869 1.629541
v 2.450576 -1.002884 0.082398
v 2.269716 -2.43617 0.3056857
v 1.988984 -2.47044 1.532335
v 2.450576 -1.002884 0.082398
v 0.9025478 -1.038496 -0.2379484
v 1.042822 -2.405068 0.02575719
v 2.269716 -2.43617 0.3056857
v 0.9025478 -1.038496 -0.2379484
v 0.5840405 -1.110482 1.309195
v 0.7620845 -2.439345 1.252405
v 1.042822 -2.405068 0.02575719
v 1.02065 -2.93681 1.151685
v 0.7620845 -2.439345 1.252405
v 1.988984 -2.47044 1.532335
v 1.842103 -2.904777 1.277987
v 0.9025478 -1.038496 -0.2379484
v 2.450576 -1.002884 0.082398
v 2.132069 -1.074869 1.629541
v 0.5840405 -1.110482 1.309195
v 1.842103 -2.904777 1.277987
v 1.988984 -2.47044 1.532335
v 2.269716 -2.43617 0.3056857
v 1.967993 -2.892544 0.4559372
v 1.967993 -2.892544 0.4559372
v 2.269716 -2.43617 0.3056857
v 1.042822 -2.405068 0.02575719
v 1.14655 -2.924572 0.3296497
v 1.14655 -2.924572 0.3296497
v 1.042822 -2.405068 0.02575719
v 0.7620845 -2.439345 1.252405
v 1.02065 -2.93681 1.151685
v 1.02065 -2.93681 1.151685
v 1.842103 -2.904777 1.277987
v 1.967993 -2.892544 0.4559372
v 1.14655 -2.924572 0.3296497

vn -0.2109869 -0.05786214 0.9757749
vn -0.2013681 -0.04750055 0.9783632
vn -0.2109869 -0.05786214 0.9757749
vn -0.2235969 -0.0714995 0.9720557
vn 0.9731296 -0.1022419 0.2063143
vn 0.976099 -0.09253553 0.196642
vn 0.9731296 -0.1022419 0.2063143
vn 0.9690685 -0.114581 0.2185801
vn 0.208599 -0.1705266 -0.9630198
vn 0.203502 -0.1653288 -0.9650147
vn 0.208599 -0.1705266 -0.9630198
vn 0.2146818 -0.1767328 -0.9605609
vn -0.9680126 -0.1307558 -0.2141366
vn -0.9710945 -0.1213245 -0.2055622
vn -0.9680126 -0.1307558 -0.2141366
vn -0.9640052 -0.1422931 -0.2246034
vn -0.1806379 -0.3690529 0.9116852
vn -0.2193337 -0.3018468 0.927783
vn -0.1806379 -0.3690529 0.9116852
vn -0.1159131 -0.4724435 0.8737054
vn -0.03125983 0.9987093 0.04003229
vn -0.03125983 0.9987093 0.04003229
vn -0.03125983 0.9987093 0.04003229
vn -0.03125983 0.9987093 0.04003229
vn 0.8734047 -0.4589297 0.1629345
vn 0.8900052 -0.4134912 0.1921347
vn 0.8734047 -0.4589297 0.1629345
vn 0.8459439 -0.5191703 0.121824
vn 0.174463 -0.444324 -0.8787143
vn 0.1918633 -0.4190276 -0.8874708
vn 0.174463 -0.444324 -0.8787143
vn 0.151721 -0.4763328 -0.8660762
vn -0.9124021 -0.3628682 -0.1893387
vn -0.9237949 -0.3132487 -0.2201777
vn -0.9124021 -0.3628682 -0.1893387
vn -0.8897485 -0.4335634 -0.1427254
vn 0.04029675 -0.9991499 -0.008700203
vn 0.04029957 -0.9991498 -0.008696375
vn 0.04029675 -0.9991499 -0.008700203
vn 0.04029395 -0.99915 -0.008704033

vt 0.6716107 -5.960464E-08
vt 0.3238203 0.003226638
vt 0.3517859 0.6811168
vt 0.6568383 0.6545565
vt 0.3238203 0.003226638
vt 2.980232E-08 0.02777961
vt 0.02406958 0.7207597
vt 0.3517859 0.6811168
vt 2.980232E-08 0.02777961
vt 1 0.02519944
vt 0.981037 0.6927284
vt 0.02406958 0.7207597
vt 1 0.02519944
vt 0.6716107 -5.960464E-08
vt 0.6568383 0.6545565
vt 0.981037 0.6927284
vt 0.6352333 0.9084229
vt 0.6568383 0.6545565
vt 0.3517859 0.6811168
vt 0.3602519 0.9241701
vt 1 0.02519944
vt 2.980232E-08 0.02777961
vt 0.3238203 0.003226638
vt 0.6716107 -5.960464E-08
vt 0.3602519 0.9241701
vt 0.3517859 0.6811168
vt 0.02406958 0.7207597
vt 0.02148524 0.9999999
vt 0.02148524 0.9999999
vt 0.02406958 0.7207597
vt 0.981037 0.6927284
vt 0.9355898 0.9750429
vt 0.9355898 0.9750429
vt 0.981037 0.6927284
vt 0.6568383 0.6545565
vt 0.6352333 0.9084229
vt 0.6352333 0.9084229
vt 0.3602519 0.9241701
vt 0.02148524 0.9999999
vt 0.9355898 0.9750429

usemap Standard_6B6B6B
usemtl Standard_6B6B6B
f 300/300/300 299/299/299 298/298/298 297/297/297 
f 304/304/304 303/303/303 302/302/302 301/301/301 
f 308/308/308 307/307/307 306/306/306 305/305/305 
f 312/312/312 311/311/311 310/310/310 309/309/309 
f 316/316/316 315/315/315 314/314/314 313/313/313 
f 320/320/320 319/319/319 318/318/318 317/317/317 
f 324/324/324 323/323/323 322/322/322 321/321/321 
f 328/328/328 327/327/327 326/326/326 325/325/325 
f 332/332/332 331/331/331 330/330/330 329/329/329 
f 336/336/336 335/335/335 334/334/334 333/333/333 

g s.0100
usemap Standard_6B6B6B
usemtl Standard_6B6B6B
v 0.4787577 -0.08819658 2.606473
v 1.161329 0.1543642 2.264447
v 1.799358 0.7675934 1.858675
v 1.167282 -0.09089765 2.370829
v 2.023241 0.3620447 1.951607
v 3.242336 0.9135939 1.268217
v 3.186481 0.8227309 1.067899
v 1.948521 0.2767582 1.760387
v 1.079111 -0.1722635 2.181443
v 1.724663 0.6829495 1.66088
v 1.075909 0.07097822 2.069204
v 0.386917 -0.171929 2.418225
v -0.4135947 -0.3442274 2.762448
v -0.2331998 -0.1421013 2.58182
v -0.1365266 -0.05660433 2.773597
v -0.3126634 -0.2626627 2.94972
v -0.2279354 -0.7281668 2.86552
v -0.4110107 -0.6881496 2.929162
v -0.3059936 -0.6095597 3.108201
v -0.1243085 -0.6477286 3.043266
v 1.799358 0.7675934 1.858675
v 1.161329 0.1543642 2.264447
v 1.075909 0.07097822 2.069204
v 1.724663 0.6829495 1.66088
v 1.407042 -0.5603282 2.413784
v 1.3096 -0.6434762 2.234401
v 0.07965122 -0.7953999 2.758595
v 0.1809425 -0.7118566 2.934169
v 0.4329376 -0.3486524 2.478963
v 0.03561667 -0.3992034 2.643173
v -0.4110107 -0.6881496 2.929162
v -0.2279354 -0.7281668 2.86552
v -0.5264873 -0.4707196 2.875486
v -0.4228913 -0.3916157 3.059939
v -0.56303 -0.5555608 3.200066
v -0.6700138 -0.631536 3.019197
v -0.1243085 -0.6477286 3.043266
v -0.3059936 -0.6095597 3.108201
v 0.1332586 -0.3177341 2.827368
v 0.5263709 -0.2655112 2.662976
v -0.3126634 -0.2626627 2.94972
v -0.1365266 -0.05660433 2.773597
v 1.161329 0.1543642 2.264447
v 0.4787577 -0.08819658 2.606473
v 0.1332586 -0.3177341 2.827368
v -0.3059936 -0.6095597 3.108201
v -0.56303 -0.5555608 3.200066
v -0.4228913 -0.3916157 3.059939
v -0.3059936 -0.6095597 3.108201
v -0.4110107 -0.6881496 2.929162
v -0.6700138 -0.631536 3.019197
v -0.56303 -0.5555608 3.200066
v -0.4110107 -0.6881496 2.929162
v 0.03561667 -0.3992034 2.643173
v -0.5264873 -0.4707196 2.875486
v -0.6700138 -0.631536 3.019197
v 0.386917 -0.171929 2.418225
v 1.075909 0.07097822 2.069204
v -0.2331998 -0.1421013 2.58182
v -0.4135947 -0.3442274 2.762448
v 1.075909 0.07097822 2.069204
v 1.161329 0.1543642 2.264447
v -0.1365266 -0.05660433 2.773597
v -0.2331998 -0.1421013 2.58182
v 1.799358 0.7675934 1.858675
v 1.724663 0.6829495 1.66088
v 3.186481 0.8227309 1.067899
v 3.242336 0.9135939 1.268217
v 1.948521 0.2767582 1.760387
v 3.186481 0.8227309 1.067899
v 1.724663 0.6829495 1.66088
v 1.079111 -0.1722635 2.181443
v 0.4329376 -0.3486524 2.478963
v -0.2279354 -0.7281668 2.86552
v 0.07965122 -0.7953999 2.758595
v 1.3096 -0.6434762 2.234401
v -0.2279354 -0.7281668 2.86552
v -0.1243085 -0.6477286 3.043266
v 0.1809425 -0.7118566 2.934169
v 0.07965122 -0.7953999 2.758595
v -0.1243085 -0.6477286 3.043266
v 0.5263709 -0.2655112 2.662976
v 1.407042 -0.5603282 2.413784
v 0.1809425 -0.7118566 2.934169
v 1.167282 -0.09089765 2.370829
v 1.799358 0.7675934 1.858675
v 3.242336 0.9135939 1.268217
v 2.023241 0.3620447 1.951607
v 2.023241 0.3620447 1.951607
v 1.948521 0.2767582 1.760387
v 1.3096 -0.6434762 2.234401
v 1.407042 -0.5603282 2.413784
v 1.948521 0.2767582 1.760387
v 1.079111 -0.1722635 2.181443
v 0.4329376 -0.3486524 2.478963
v 1.3096 -0.6434762 2.234401
v 1.079111 -0.1722635 2.181443
v 0.386917 -0.171929 2.418225
v 0.03561667 -0.3992034 2.643173
v 0.4329376 -0.3486524 2.478963
v 0.386917 -0.171929 2.418225
v -0.4135947 -0.3442274 2.762448
v -0.5264873 -0.4707196 2.875486
v 0.03561667 -0.3992034 2.643173
v -0.4135947 -0.3442274 2.762448
v -0.3126634 -0.2626627 2.94972
v -0.4228913 -0.3916157 3.059939
v -0.5264873 -0.4707196 2.875486
v -0.3126634 -0.2626627 2.94972
v 0.4787577 -0.08819658 2.606473
v 0.1332586 -0.3177341 2.827368
v -0.4228913 -0.3916157 3.059939
v 0.4787577 -0.08819658 2.606473
v 1.167282 -0.09089765 2.370829
v 0.5263709 -0.2655112 2.662976
v 0.1332586 -0.3177341 2.827368
v 1.167282 -0.09089765 2.370829
v 2.023241 0.3620447 1.951607
v 1.407042 -0.5603282 2.413784
v 0.5263709 -0.2655112 2.662976

vn 0.2488461 0.3904878 0.8863379
vn -0.3808294 -0.2009766 -0.9025394
vn 0.2488461 0.3904878 0.8863379
vn 0.3090404 0.3090452 0.8994361
vn 0.4956062 -0.8419022 0.2134831
vn 0.5068977 -0.8293923 0.234868
vn 0.4956062 -0.8419022 0.2134831
vn 0.4838549 -0.8538783 0.1917715
vn -0.2369728 -0.409612 -0.8809437
vn -0.1713672 -0.414637 -0.8937054
vn -0.2369728 -0.409612 -0.8809437
vn -0.2963372 -0.4033703 -0.8657232
vn -0.7197589 0.6905996 0.07084778
vn -0.7201784 0.6916296 0.05469722
vn -0.7197589 0.6905996 0.07084778
vn -0.7191353 0.6893596 0.08733704
vn -0.04284847 -0.9029814 0.4275379
vn -0.04952688 -0.9035282 0.4256569
vn -0.04284847 -0.9029814 0.4275379
vn -0.03610149 -0.9023848 0.4294164
vn -0.6968474 0.7168635 -0.02259058
vn -0.6941764 0.7197953 -0.003711187
vn -0.6968474 0.7168635 -0.02259058
vn -0.6992456 0.7136847 -0.0413499
vn 0.2411073 -0.9234045 0.2986491
vn 0.2408646 -0.9238721 0.2973964
vn 0.2411073 -0.9234045 0.2986491
vn 0.2413525 -0.9229293 0.2999173
vn -0.3406565 -0.3237026 -0.882706
vn -0.3114916 -0.3803979 -0.8707872
vn -0.3406565 -0.3237026 -0.882706
vn -0.3679435 -0.266612 -0.8908062
vn -0.7015831 0.7047747 0.1052314
vn -0.7116593 0.6951423 0.1015792
vn -0.7015831 0.7047747 0.1052314
vn -0.6913255 0.7142936 0.1088743
vn 0.3458201 0.3095856 0.8857569
vn 0.375084 0.2844609 0.8822664
vn 0.3458201 0.3095856 0.8857569
vn 0.3279067 0.3245252 0.8872208
vn 0.252397 0.4843726 0.8376628
vn 0.244325 0.5008553 0.8303309
vn 0.252397 0.4843726 0.8376628
vn 0.2781035 0.429153 0.8593522
vn 0.3361272 0.3718973 0.8652808
vn 0.375084 0.2844609 0.8822664
vn 0.3361272 0.3718973 0.8652808
vn 0.2871027 0.468647 0.8354293
vn -0.04731394 -0.9074143 0.4175653
vn -0.0495269 -0.9035282 0.425657
vn -0.04731394 -0.9074143 0.4175653
vn -0.04509747 -0.9112216 0.4094403
vn -0.3306894 -0.3880024 -0.8602898
vn -0.3114916 -0.3803979 -0.8707873
vn -0.3306894 -0.3880024 -0.8602898
vn -0.3779888 -0.4061328 -0.8319739
vn -0.2423425 -0.5093245 -0.8257474
vn -0.2430428 -0.5026581 -0.8296174
vn -0.2423425 -0.5093245 -0.8257474
vn -0.2414138 -0.5179144 -0.8206608
vn -0.2602773 0.923839 -0.2806729
vn -0.2602829 0.9238342 -0.2806834
vn -0.2602773 0.923839 -0.2806729
vn -0.2602718 0.9238437 -0.2806625
vn -0.2247936 0.9166804 -0.330401
vn -0.21583 0.924521 -0.3141311
vn -0.2247936 0.9166804 -0.330401
vn -0.233818 0.9083223 -0.3468137
vn -0.2885532 -0.374857 -0.8810331
vn -0.3148456 -0.3859422 -0.8671339
vn -0.2885532 -0.374857 -0.8810331
vn -0.2504764 -0.3583607 -0.8993548
vn -0.3510846 -0.2813615 -0.8930708
vn -0.3679434 -0.2666121 -0.8908062
vn -0.3510846 -0.2813615 -0.8930708
vn -0.3455482 -0.2861407 -0.8937114
vn -0.03783273 -0.89786 0.4386526
vn -0.03610149 -0.9023848 0.4294164
vn -0.03783273 -0.89786 0.4386526
vn -0.0395615 -0.8932329 0.4478501
vn 0.3526625 0.2712166 0.895584
vn 0.3494608 0.2911581 0.8905639
vn 0.3526625 0.2712166 0.895584
vn 0.3647789 0.1833591 0.9128613
vn 0.2932428 0.3644214 0.8838584
vn 0.3379495 0.2860863 0.8966297
vn 0.2932428 0.3644214 0.8838584
vn -0.5836582 0.550626 -0.5967864
vn 0.7978156 -0.5944762 -0.1004405
vn 0.8072075 -0.5878632 -0.05322599
vn 0.7978156 -0.5944762 -0.1004405
vn 0.786128 -0.5998363 -0.1489934
vn -0.3237225 -0.2605692 -0.9095644
vn 0.3962753 0.08956172 0.913753
vn -0.3237225 -0.2605692 -0.9095644
vn -0.3343393 -0.23764 -0.9120003
vn -0.3041014 -0.3795035 -0.8737845
vn -0.2968782 -0.3995447 -0.8673105
vn -0.3041014 -0.3795035 -0.8737845
vn -0.3337716 -0.2901105 -0.8969016
vn -0.2802974 -0.444869 -0.8506027
vn -0.2414138 -0.5179145 -0.8206607
vn -0.2802974 -0.444869 -0.8506027
vn -0.3114917 -0.3803979 -0.8707873
vn -0.710311 0.6982353 0.08902663
vn -0.7191353 0.6893596 0.08733704
vn -0.710311 0.6982353 0.08902663
vn -0.7013605 0.7070122 0.09070446
vn 0.2879396 0.4260969 0.8576317
vn 0.2881165 0.402506 0.8688947
vn 0.2879396 0.4260969 0.8576317
vn 0.2871026 0.468647 0.8354293
vn 0.3085499 0.3630215 0.8792112
vn 0.3030846 0.362259 0.881424
vn 0.3085499 0.3630215 0.8792112
vn 0.3176953 0.364272 0.8754289
vn 0.3277577 0.2507504 0.9108782
vn 0.3180936 0.2462395 0.9155232
vn 0.3277577 0.2507504 0.9108782
vn 0.3418857 0.2573209 0.9038253

vt 0.7522166 0.8033979
vt 0.5190175 0.1383102
vt 0.3235191 0.03506014
vt 0.3745338 0.828184
vt 0.2668386 0.205797
vt 0.2437547 0.1789483
vt 0.2201195 0.1749692
vt 0.2135453 0.1886239
vt -5.960464E-08 0.770619
vt 0.2296471 0
vt 1 0.1190432
vt 0.8181921 0.7854099
vt 0.8014071 0.8071501
vt 0.8038365 0.7471566
vt 0.7698749 0.7564588
vt 0.7707033 0.816883
vt 0.8147398 0.922096
vt 0.8065776 0.895658
vt 0.774023 0.9075335
vt 0.7764651 0.9364308
vt 0.3235191 0.03506014
vt 0.5190175 0.1383102
vt 1 0.1190432
vt 0.2296471 0
vt 0.2102068 0.8531014
vt 0.1288857 0.8416126
vt 0.8377222 0.9778962
vt 0.7837937 1
vt 0.8318564 0.8914291
vt 0.8111917 0.8576243
vt 0.8065776 0.895658
vt 0.8147398 0.922096
vt 0.8000714 0.8358302
vt 0.7711592 0.8456001
vt 0.7716814 0.8748761
vt 0.7985433 0.8651766
vt 0.7764651 0.9364308
vt 0.774023 0.9075335
vt 0.7654372 0.8722852
vt 0.7541074 0.9164259
vt 0.7707033 0.816883
vt 0.7698749 0.7564588
vt 0.5190175 0.1383102
vt 0.7522166 0.8033979
vt 0.7654372 0.8722852
vt 0.774023 0.9075335
vt 0.7716814 0.8748761
vt 0.7711592 0.8456001
vt 0.774023 0.9075335
vt 0.8065776 0.895658
vt 0.7985433 0.8651766
vt 0.7716814 0.8748761
vt 0.8065776 0.895658
vt 0.8111917 0.8576243
vt 0.8000714 0.8358302
vt 0.7985433 0.8651766
vt 0.8181921 0.7854099
vt 1 0.1190432
vt 0.8038365 0.7471566
vt 0.8014071 0.8071501
vt 1 0.1190432
vt 0.5190175 0.1383102
vt 0.7698749 0.7564588
vt 0.8038365 0.7471566
vt 0.3235191 0.03506014
vt 0.2296471 0
vt 0.2201195 0.1749692
vt 0.2437547 0.1789483
vt 0.2135453 0.1886239
vt 0.2201195 0.1749692
vt 0.2296471 0
vt -5.960464E-08 0.770619
vt 0.8318564 0.8914291
vt 0.8147398 0.922096
vt 0.8377222 0.9778962
vt 0.1288857 0.8416126
vt 0.8147398 0.922096
vt 0.7764651 0.9364308
vt 0.7837937 1
vt 0.8377222 0.9778962
vt 0.7764651 0.9364308
vt 0.7541074 0.9164259
vt 0.2102068 0.8531014
vt 0.7837937 1
vt 0.3745338 0.828184
vt 0.3235191 0.03506014
vt 0.2437547 0.1789483
vt 0.2668386 0.205797
vt 0.2668386 0.205797
vt 0.2135453 0.1886239
vt 0.1288857 0.8416126
vt 0.2102068 0.8531014
vt 0.2135453 0.1886239
vt -5.960464E-08 0.770619
vt 0.8318564 0.8914291
vt 0.1288857 0.8416126
vt -5.960464E-08 0.770619
vt 0.8181921 0.7854099
vt 0.8111917 0.8576243
vt 0.8318564 0.8914291
vt 0.8181921 0.7854099
vt 0.8014071 0.8071501
vt 0.8000714 0.8358302
vt 0.8111917 0.8576243
vt 0.8014071 0.8071501
vt 0.7707033 0.816883
vt 0.7711592 0.8456001
vt 0.8000714 0.8358302
vt 0.7707033 0.816883
vt 0.7522166 0.8033979
vt 0.7654372 0.8722852
vt 0.7711592 0.8456001
vt 0.7522166 0.8033979
vt 0.3745338 0.828184
vt 0.7541074 0.9164259
vt 0.7654372 0.8722852
vt 0.3745338 0.828184
vt 0.2668386 0.205797
vt 0.2102068 0.8531014
vt 0.7541074 0.9164259

usemap Standard_6B6B6B
usemtl Standard_6B6B6B
f 340/340/340 339/339/339 338/338/338 337/337/337 
f 344/344/344 343/343/343 342/342/342 341/341/341 
f 348/348/348 347/347/347 346/346/346 345/345/345 
f 352/352/352 351/351/351 350/350/350 349/349/349 
f 356/356/356 355/355/355 354/354/354 353/353/353 
f 360/360/360 359/359/359 358/358/358 357/357/357 
f 364/364/364 363/363/363 362/362/362 361/361/361 
f 368/368/368 367/367/367 366/366/366 365/365/365 
f 372/372/372 371/371/371 370/370/370 369/369/369 
f 376/376/376 375/375/375 374/374/374 373/373/373 
f 380/380/380 379/379/379 378/378/378 377/377/377 
f 384/384/384 383/383/383 382/382/382 381/381/381 
f 388/388/388 387/387/387 386/386/386 385/385/385 
f 392/392/392 391/391/391 390/390/390 389/389/389 
f 396/396/396 395/395/395 394/394/394 393/393/393 
f 400/400/400 399/399/399 398/398/398 397/397/397 
f 404/404/404 403/403/403 402/402/402 401/401/401 
f 408/408/408 407/407/407 406/406/406 405/405/405 
f 412/412/412 411/411/411 410/410/410 409/409/409 
f 416/416/416 415/415/415 414/414/414 413/413/413 
f 420/420/420 419/419/419 418/418/418 417/417/417 
f 424/424/424 423/423/423 422/422/422 421/421/421 
f 428/428/428 427/427/427 426/426/426 425/425/425 
f 432/432/432 431/431/431 430/430/430 429/429/429 
f 436/436/436 435/435/435 434/434/434 433/433/433 
f 440/440/440 439/439/439 438/438/438 437/437/437 
f 444/444/444 443/443/443 442/442/442 441/441/441 
f 448/448/448 447/447/447 446/446/446 445/445/445 
f 452/452/452 451/451/451 450/450/450 449/449/449 
f 456/456/456 455/455/455 454/454/454 453/453/453 
