
mtllib ./heli2.obj.mtl

g s.0017
usemap Standard_846EA9
usemtl Standard_846EA9
v -0.04855703 0.09231894 0.1025775
v -0.03818171 -0.1743799 0.07722846
v -0.2101921 -0.1065952 0.06476521
v -0.2340422 0.05153564 0.09201119
v -0.0628543 -0.2042861 0.05633586
v -0.04019191 -0.1557484 -0.1196158
v -0.061069 -0.1868989 -0.09849105
v -0.05056735 0.1109505 -0.09426686
v -0.2396925 0.06227174 -0.1053506
v -0.2122603 -0.08798209 -0.09675062
v -0.07491829 0.1412839 -0.07722446
v -0.07074355 0.128543 0.07836214
v -0.2181841 0.09041663 0.06853436
v -0.22506 0.09670928 -0.08735038
v -0.1866298 -0.1660624 -0.07794332
v -0.1906668 -0.1685601 0.03481893

vn 0.6192768 0.3064744 0.7228898
vn 0.6315389 -0.3934562 0.6680949
vn -0.7256337 -0.3202868 0.6089927
vn -0.7018611 0.1383291 0.6987532
vn 0.1838058 -0.8971544 0.4016582
vn 0.5960533 -0.2988141 -0.7452722
vn 0.254616 -0.83909 -0.4807273
vn 0.6687402 0.3951183 -0.6298161
vn -0.7087972 0.1623922 -0.6864658
vn -0.7330047 -0.2481066 -0.6333618
vn 0.2236998 0.8990225 -0.3764533
vn 0.2764664 0.8549918 0.4388113
vn -0.5581915 0.7380661 0.3790524
vn -0.5595406 0.7301423 -0.3921819
vn -0.5651688 -0.6802334 -0.466762
vn -0.6363357 -0.6952475 0.3342273

vt 0.6819324 0.007660925
vt 0.3082251 0.03128916
vt 0.3581893 0.9906569
vt 0.6588714 0.9809176
vt 0.2733057 0.1622526
vt 0.06065276 0.02493051
vt 0.0999549 0.1388288
vt 0.95095 0
vt 1 0.9865342
vt -5.960464E-08 1
vt 0.9158899 0.1360401
vt 0.7319772 0.1219243
vt 0.7223495 0.8698112
vt 0.9495121 0.8796976
vt 0.1066896 0.7491468
vt 0.2639707 0.7868174

usemap Standard_846EA9
usemtl Standard_846EA9
f 4/4/4 3/3/3 2/2/2 1/1/1 
f 7/7/7 6/6/6 2/2/2 5/5/5 
f 10/10/10 9/9/9 8/8/8 6/6/6 
f 12/12/12 1/1/1 8/8/8 11/11/11 
f 9/9/9 10/10/10 3/3/3 4/4/4 
f 1/1/1 2/2/2 6/6/6 8/8/8 
f 13/13/13 4/4/4 1/1/1 12/12/12 
f 14/14/14 9/9/9 4/4/4 13/13/13 
f 11/11/11 8/8/8 9/9/9 14/14/14 
f 14/14/14 13/13/13 12/12/12 11/11/11 
f 15/15/15 10/10/10 6/6/6 7/7/7 
f 16/16/16 3/3/3 10/10/10 15/15/15 
f 5/5/5 2/2/2 3/3/3 16/16/16 
f 16/16/16 15/15/15 7/7/7 5/5/5 

g s.0019
usemap Standard_303030
usemtl Standard_303030
v -0.1804941 0.4728081 -0.02341758
v -0.2357166 0.4102828 -0.006925253
v -0.2361831 0.4087322 -0.009315046
v -0.1809606 0.4712576 -0.02580738
v -0.2274591 0.4072557 -0.009665685
v -0.2279256 0.4057051 -0.01205548
v -0.1722366 0.469781 -0.02615801
v -0.1727031 0.4682305 -0.02854781

vn -0.08514091 0.893783 0.4403442
vn -0.6767582 0.04052192 0.7350893
vn -0.8714774 -0.4400993 -0.2164248
vn -0.3911245 0.5773083 -0.7167544
vn 0.3911255 -0.5773073 0.7167546
vn 0.08514 -0.8937836 -0.4403429
vn 0.8714774 0.4401006 0.2164222
vn 0.6767577 -0.04052423 -0.7350896

vt 0.9427981 0
vt 0.05720192 0.006483108
vt 0.0546037 0.4476143
vt 0.9443005 0.4675805
vt 0.001502365 0.5324229
vt 0 1
vt 0.9974018 0.5523871
vt 1 0.9935182

usemap Standard_303030
usemtl Standard_303030
f 20/20/20 19/19/19 18/18/18 17/17/17 
f 19/19/19 22/22/22 21/21/21 18/18/18 
f 22/22/22 24/24/24 23/23/23 21/21/21 
f 24/24/24 20/20/20 17/17/17 23/23/23 
f 24/24/24 22/22/22 19/19/19 20/20/20 
f 17/17/17 18/18/18 21/21/21 23/23/23 

g s.0020
usemap Standard_303030
usemtl Standard_303030
v -0.2313545 0.4116658 -0.008081388
v -0.308843 0.4462568 -0.002610369
v -0.3102832 0.4458286 -0.005075242
v -0.2327947 0.4112377 -0.01054627
v -0.3089802 0.4371432 -0.003945339
v -0.3104203 0.436715 -0.006410213
v -0.2314917 0.4025522 -0.009416361
v -0.2329318 0.402124 -0.01188124

vn 0.789834 0.4305534 0.4367905
vn -0.2229762 0.7619737 0.6080112
vn -0.6693807 0.6429493 -0.3722171
vn 0.48003 0.4349767 -0.7618179
vn -0.4800288 -0.4349774 0.7618183
vn -0.7898351 -0.4305526 -0.4367894
vn 0.6693822 -0.6429493 0.3722146
vn 0.2229738 -0.761974 -0.6080117

vt 0.9427981 0
vt 0.05720192 0.006483108
vt 0.0546037 0.4476143
vt 0.9443005 0.4675805
vt 0.001502365 0.5324229
vt 0 1
vt 0.9974018 0.5523871
vt 1 0.9935182

usemap Standard_303030
usemtl Standard_303030
f 28/28/28 27/27/27 26/26/26 25/25/25 
f 27/27/27 30/30/30 29/29/29 26/26/26 
f 30/30/30 32/32/32 31/31/31 29/29/29 
f 32/32/32 28/28/28 25/25/25 31/31/31 
f 32/32/32 30/30/30 27/27/27 28/28/28 
f 25/25/25 26/26/26 29/29/29 31/31/31 

g s.0021
usemap Standard_303030
usemtl Standard_303030
v -0.2355815 0.4070103 -0.007391397
v -0.2181208 0.3244937 -0.01821193
v -0.2172438 0.3240252 -0.02092199
v -0.2347045 0.4065417 -0.01010147
v -0.210845 0.3299868 -0.01953426
v -0.2099681 0.3295183 -0.02224432
v -0.2283057 0.4125034 -0.008713726
v -0.2274288 0.4120348 -0.01142379

vn -0.7503843 0.2959715 0.5910366
vn -0.4125647 -0.7281891 0.5472943
vn -0.1781128 -0.8450092 -0.5042175
vn -0.7210426 0.2510592 -0.6458071
vn 0.7210425 -0.2510579 0.6458077
vn 0.7503844 -0.295973 -0.5910358
vn 0.1781117 0.8450108 0.5042152
vn 0.4125662 0.7281874 -0.5472954

vt 0.9427981 0
vt 0.05720192 0.006483108
vt 0.0546037 0.4476143
vt 0.9443005 0.4675805
vt 0.001502365 0.5324229
vt 0 1
vt 0.9974018 0.5523871
vt 1 0.9935182

usemap Standard_303030
usemtl Standard_303030
f 36/36/36 35/35/35 34/34/34 33/33/33 
f 35/35/35 38/38/38 37/37/37 34/34/34 
f 38/38/38 40/40/40 39/39/39 37/37/37 
f 40/40/40 36/36/36 33/33/33 39/39/39 
f 40/40/40 38/38/38 35/35/35 36/36/36 
f 33/33/33 34/34/34 37/37/37 39/39/39 

g s.0024
usemap Standard_846EA9
usemtl Standard_846EA9
v -0.1128577 0.1060274 -0.01812419
v -0.1371348 0.447823 0.004346341
v -0.1744129 0.4453878 0.001113445
v -0.1501358 0.1035921 -0.021357
v -0.140234 0.4451194 0.04212314
v -0.1775121 0.4426842 0.03889024
v -0.1159568 0.1033238 0.01965281
v -0.1532351 0.1008885 0.01641986

vn 0.6618826 -0.4960917 -0.5619648
vn 0.5802491 0.6532403 -0.4864032
vn -0.5677052 0.5782465 -0.585954
vn -0.4860695 -0.5710836 -0.6615134
vn 0.4860701 0.5710822 0.6615142
vn -0.6618839 0.496092 0.5619631
vn 0.5677053 -0.578246 0.5859543
vn -0.5802512 -0.6532389 0.4864026

vt 0.9298968 0.05832121
vt 0.07010278 0.2762429
vt 0.0653027 0.9999999
vt 0.9351538 0.781669
vt 0.005256742 0.2183326
vt 0 0.9416807
vt 0.9951999 -1.788139E-07
vt 1 0.7237616

usemap Standard_846EA9
usemtl Standard_846EA9
f 44/44/44 43/43/43 42/42/42 41/41/41 
f 43/43/43 46/46/46 45/45/45 42/42/42 
f 46/46/46 48/48/48 47/47/47 45/45/45 
f 48/48/48 44/44/44 41/41/41 47/47/47 
f 48/48/48 46/46/46 43/43/43 44/44/44 
f 41/41/41 42/42/42 45/45/45 47/47/47 

g s.0026
usemap Standard_846EA9
usemtl Standard_846EA9
v -0.1590571 0.3512548 -0.007185305
v -0.1653796 0.4450638 0.0007092208
v -0.2810818 0.4519013 0.009868283
v -0.2433613 0.3660097 -0.0002423711
v -0.170771 0.4398941 0.04083133
v -0.287056 0.4410315 0.04746911
v -0.1637514 0.3467513 0.02750605
v -0.2486518 0.3560768 0.0329698

vn 0.5832308 -0.5381353 -0.6084837
vn 0.5904354 0.623368 -0.5126387
vn -0.6301724 0.6207031 -0.4664874
vn -0.4674786 -0.486092 -0.7383621
vn 0.5315556 0.5147973 0.672631
vn -0.7362011 0.3072141 0.6030153
vn 0.5359711 -0.6810529 0.4989008
vn -0.4948297 -0.7491934 0.4402872

vt 0.7931549 0.111314
vt 0.2775087 0.02199683
vt 0.1789143 0.9824207
vt 0.7997401 0.8879399
vt 0.03779984 -5.960464E-08
vt -5.960464E-08 1
vt 0.9357405 0.1112272
vt 1 0.8659353

usemap Standard_846EA9
usemtl Standard_846EA9
f 52/52/52 51/51/51 50/50/50 49/49/49 
f 51/51/51 54/54/54 53/53/53 50/50/50 
f 54/54/54 56/56/56 55/55/55 53/53/53 
f 56/56/56 52/52/52 49/49/49 55/55/55 
f 56/56/56 54/54/54 51/51/51 52/52/52 
f 49/49/49 50/50/50 53/53/53 55/55/55 

g s.0027
usemap Standard_303030
usemtl Standard_303030
v -0.2573943 -0.01462999 -0.005130127
v -0.2675058 0.2627032 0.2512965
v -0.2788342 0.2626578 0.2573127
v -0.2687227 -0.01467547 0.0008861274
v -0.271622 0.2253477 0.2675175
v -0.2829504 0.2253023 0.2735338
v -0.2615105 -0.05198556 0.01109095
v -0.2728389 -0.05203098 0.01710725

vn 0.4781179 0.1184104 -0.870277
vn 0.5531508 0.8307073 -0.06284682
vn -0.4530069 0.8243255 0.3395174
vn -0.7402645 0.1559997 -0.6539668
vn 0.740265 -0.1560007 0.6539661
vn -0.478117 -0.1184092 0.8702778
vn 0.4530045 -0.8243263 -0.3395189
vn -0.5531514 -0.8307067 0.06284901

vt 0.9427981 0
vt 0.05720192 0.006483108
vt 0.0546037 0.4476143
vt 0.9443005 0.4675805
vt 0.001502365 0.5324229
vt 0 1
vt 0.9974018 0.5523871
vt 1 0.9935182

usemap Standard_303030
usemtl Standard_303030
f 60/60/60 59/59/59 58/58/58 57/57/57 
f 59/59/59 62/62/62 61/61/61 58/58/58 
f 62/62/62 64/64/64 63/63/63 61/61/61 
f 64/64/64 60/60/60 57/57/57 63/63/63 
f 64/64/64 62/62/62 59/59/59 60/60/60 
f 57/57/57 58/58/58 61/61/61 63/63/63 

g s.0028
usemap Standard_303030
usemtl Standard_303030
v -0.2707251 -0.393067 0.1602334
v -0.2457983 -0.066074 -0.02744892
v -0.2565472 -0.05927373 -0.02579165
v -0.2814741 -0.3862668 0.1618907
v -0.2501658 -0.06137218 0.01297779
v -0.2609147 -0.05457189 0.01463507
v -0.2750926 -0.3883653 0.2006602
v -0.2858415 -0.3815649 0.2023174

vn 0.4050012 -0.8378235 -0.3660953
vn 0.5825572 0.1335828 -0.8017373
vn -0.383788 0.6115058 -0.6919302
vn -0.7868261 -0.502957 -0.3576853
vn 0.7868266 0.502956 0.3576862
vn -0.4050002 0.8378244 0.3660944
vn 0.3837854 -0.6115072 0.6919304
vn -0.5825577 -0.1335804 0.8017374

vt 0.9427981 0
vt 0.05720192 0.006483108
vt 0.0546037 0.4476143
vt 0.9443005 0.4675805
vt 0.001502365 0.5324229
vt 0 1
vt 0.9974018 0.5523871
vt 1 0.9935182

usemap Standard_303030
usemtl Standard_303030
f 68/68/68 67/67/67 66/66/66 65/65/65 
f 67/67/67 70/70/70 69/69/69 66/66/66 
f 70/70/70 72/72/72 71/71/71 69/69/69 
f 72/72/72 68/68/68 65/65/65 71/71/71 
f 72/72/72 70/70/70 67/67/67 68/68/68 
f 65/65/65 66/66/66 69/69/69 71/71/71 

g s.0029
usemap Standard_303030
usemtl Standard_303030
v -0.3135685 -0.2953351 -0.2987841
v -0.2504452 -0.0228712 -0.04471838
v -0.2600711 -0.02250261 -0.03624871
v -0.3231944 -0.2949665 -0.2903144
v -0.2525808 -0.06030107 -0.02828839
v -0.2622067 -0.05993248 -0.01981869
v -0.315704 -0.332765 -0.2823542
v -0.3253299 -0.3323964 -0.2738844

vn 0.2701448 0.1127706 -0.9561927
vn 0.5647038 0.8049334 -0.1821862
vn -0.320758 0.8378941 0.4416422
vn -0.8622106 0.2032102 -0.4640027
vn 0.8622108 -0.2032114 0.4640018
vn -0.2701437 -0.1127695 0.9561932
vn 0.3207553 -0.8378947 -0.441643
vn -0.5647039 -0.8049328 0.1821885

vt 0.9427981 0
vt 0.05720192 0.006483108
vt 0.0546037 0.4476143
vt 0.9443005 0.4675805
vt 0.001502365 0.5324229
vt 0 1
vt 0.9974018 0.5523871
vt 1 0.9935182

usemap Standard_303030
usemtl Standard_303030
f 76/76/76 75/75/75 74/74/74 73/73/73 
f 75/75/75 78/78/78 77/77/77 74/74/74 
f 78/78/78 80/80/80 79/79/79 77/77/77 
f 80/80/80 76/76/76 73/73/73 79/79/79 
f 80/80/80 78/78/78 75/75/75 76/76/76 
f 73/73/73 74/74/74 77/77/77 79/79/79 

g s.0030
usemap Standard_303030
usemtl Standard_303030
v -0.2523625 -0.04324505 -0.04931796
v -0.3234912 0.2883965 -0.2158262
v -0.3350995 0.2926079 -0.2123567
v -0.263971 -0.03903365 -0.04584838
v -0.3231036 0.2904339 -0.1749459
v -0.334712 0.2946454 -0.1714764
v -0.2519749 -0.04120767 -0.008437604
v -0.2635834 -0.03699619 -0.004968092

vn 0.5183609 -0.7137625 -0.4710045
vn 0.424105 0.2893182 -0.858155
vn -0.596707 0.5393828 -0.5941439
vn -0.7043816 -0.6485467 -0.2885026
vn 0.7043824 0.6485456 0.2885032
vn -0.5183601 0.7137637 0.4710034
vn 0.5967048 -0.5393847 0.5941443
vn -0.424106 -0.289316 0.8581552

vt 0.9427981 0
vt 0.05720192 0.006483108
vt 0.0546037 0.4476143
vt 0.9443005 0.4675805
vt 0.001502365 0.5324229
vt 0 1
vt 0.9974018 0.5523871
vt 1 0.9935182

usemap Standard_303030
usemtl Standard_303030
f 84/84/84 83/83/83 82/82/82 81/81/81 
f 83/83/83 86/86/86 85/85/85 82/82/82 
f 86/86/86 88/88/88 87/87/87 85/85/85 
f 88/88/88 84/84/84 81/81/81 87/87/87 
f 88/88/88 86/86/86 83/83/83 84/84/84 
f 81/81/81 82/82/82 85/85/85 87/87/87 

g s.0032
usemap Standard_303030
usemtl Standard_303030
v -0.04727346 -0.1000497 0.07632574
v -0.04960722 -0.09695973 0.03129262
v -0.004565792 -0.09383653 0.02917274
v -0.002232032 -0.09692648 0.07420585
v -0.04664044 -0.141945 0.02805221
v -0.001599008 -0.1388218 0.02593232
v -0.04430668 -0.145035 0.07308532
v 0.000734752 -0.1419118 0.07096543

vn -0.5834196 0.4952532 0.643697
vn -0.6430398 0.5741918 -0.5067579
vn 0.5076275 0.6539796 -0.5609144
vn 0.5672477 0.5750409 0.5895404
vn -0.5672477 -0.5750409 -0.5895404
vn 0.5834196 -0.4952532 -0.643697
vn -0.5076275 -0.6539796 0.5609144
vn 0.6430398 -0.5741918 0.5067579

vt 0.6666667 0
vt 0.3333333 0
vt 0.3333333 1
vt 0.6666667 1
vt 0 0
vt 0 1
vt 1 0
vt 1 1

usemap Standard_303030
usemtl Standard_303030
f 92/92/92 91/91/91 90/90/90 89/89/89 
f 91/91/91 94/94/94 93/93/93 90/90/90 
f 94/94/94 96/96/96 95/95/95 93/93/93 
f 96/96/96 92/92/92 89/89/89 95/95/95 
f 96/96/96 94/94/94 91/91/91 92/92/92 
f 89/89/89 90/90/90 93/93/93 95/95/95 

g s.0033
usemap Standard_303030
usemtl Standard_303030
v -0.002960822 -0.1252703 -0.06653197
v -0.005504629 -0.08084789 -0.05858509
v -0.004937923 -0.0728576 -0.1030689
v -0.002394116 -0.11728 -0.1110158
v -0.05062874 -0.08325179 -0.05959175
v -0.05006204 -0.0752615 -0.1040756
v -0.04808494 -0.1276742 -0.06753863
v -0.04751823 -0.1196839 -0.1120225

vn 0.6016443 -0.6387843 0.4795609
vn 0.5366578 0.4960696 0.6825786
vn 0.5511356 0.7001965 -0.453844
vn 0.6161215 -0.4346573 -0.6568617
vn -0.6161215 0.4346573 0.6568617
vn -0.6016443 0.6387843 -0.4795609
vn -0.5511356 -0.7001965 0.453844
vn -0.5366578 -0.4960696 -0.6825786

vt 0.6666667 0
vt 0.3333333 0
vt 0.3333333 1
vt 0.6666667 1
vt 0 0
vt 0 1
vt 1 0
vt 1 1

usemap Standard_303030
usemtl Standard_303030
f 100/100/100 99/99/99 98/98/98 97/97/97 
f 99/99/99 102/102/102 101/101/101 98/98/98 
f 102/102/102 104/104/104 103/103/103 101/101/101 
f 104/104/104 100/100/100 97/97/97 103/103/103 
f 104/104/104 102/102/102 99/99/99 100/100/100 
f 97/97/97 98/98/98 101/101/101 103/103/103 

g s.0034
usemap Standard_303030
usemtl Standard_303030
v -0.006965477 0.04419368 -0.05051018
v -0.008123904 0.08910239 -0.04552601
v -0.008878637 0.09406824 -0.09044537
v -0.00772021 0.04915953 -0.09542954
v -0.05330207 0.08786792 -0.0449034
v -0.0540568 0.09283376 -0.08982275
v -0.05214364 0.0429592 -0.04988757
v -0.05289838 0.04792506 -0.09480693

vn 0.601518 -0.6213009 0.5021566
vn 0.5719236 0.5259756 0.6294863
vn 0.5526428 0.6528379 -0.5180623
vn 0.5822366 -0.4944388 -0.6453921
vn -0.5822366 0.4944388 0.6453921
vn -0.601518 0.6213009 -0.5021566
vn -0.5526428 -0.6528379 0.5180623
vn -0.5719236 -0.5259756 -0.6294863

vt 0.6666667 0
vt 0.3333333 0
vt 0.3333333 1
vt 0.6666667 1
vt 0 0
vt 0 1
vt 1 0
vt 1 1

usemap Standard_303030
usemtl Standard_303030
f 108/108/108 107/107/107 106/106/106 105/105/105 
f 107/107/107 110/110/110 109/109/109 106/106/106 
f 110/110/110 112/112/112 111/111/111 109/109/109 
f 112/112/112 108/108/108 105/105/105 111/111/111 
f 112/112/112 110/110/110 107/107/107 108/108/108 
f 105/105/105 106/106/106 109/109/109 111/111/111 

g s.0035
usemap Standard_303030
usemtl Standard_303030
v -0.007073626 0.07251885 0.09004865
v -0.009162396 0.07677399 0.04509862
v -0.008979701 0.03177702 0.04083054
v -0.00689093 0.02752188 0.08578058
v -0.05431303 0.07639506 0.04716084
v -0.05413033 0.0313981 0.04289276
v -0.05222426 0.07213992 0.09211087
v -0.05204156 0.02714295 0.08784279

vn 0.6010758 0.5252533 0.6023428
vn 0.5477143 0.6339589 -0.54599
vn 0.5523816 -0.5155729 -0.655026
vn 0.6057431 -0.6242786 0.4933067
vn -0.6057431 0.6242786 -0.4933067
vn -0.6010758 -0.5252533 -0.6023428
vn -0.5523816 0.5155729 0.655026
vn -0.5477143 -0.6339589 0.54599

vt 0.6666667 0
vt 0.3333333 0
vt 0.3333333 1
vt 0.6666667 1
vt 0 0
vt 0 1
vt 1 0
vt 1 1

usemap Standard_303030
usemtl Standard_303030
f 116/116/116 115/115/115 114/114/114 113/113/113 
f 115/115/115 118/118/118 117/117/117 114/114/114 
f 118/118/118 120/120/120 119/119/119 117/117/117 
f 120/120/120 116/116/116 113/113/113 119/119/119 
f 120/120/120 118/118/118 115/115/115 116/116/116 
f 113/113/113 114/114/114 117/117/117 119/119/119 

g s.0037
usemap Standard_303030
usemtl Standard_303030
v 0.01770288 -0.2319736 0.02507928
v -0.001894433 0.2346431 0.05876923
v -0.01841346 0.2339884 0.05822786
v 0.001183804 -0.2326283 0.02453791
v -0.02284254 0.2612914 0.05207154
v -0.00284021 0.2323168 0.0904391
v -0.02331495 0.2603683 0.08382387
v 0.01675711 -0.2342999 0.05674914
v 0.0002380908 -0.2349546 0.05620777
v -0.01935917 0.2316621 0.08989772
v -0.006608583 -0.2662349 0.05562196
v -0.006401226 -0.2658416 0.02385578
v -0.01964638 -0.2559336 0.02389202
v -0.01985364 -0.256327 0.05565819
v -0.03805131 0.2528685 0.08338666
v -0.0375789 0.2537916 0.05163432

vn 0.7494164 -0.1800008 -0.6371614
vn 0.765397 0.2772298 -0.580785
vn -0.5283113 -0.3653639 -0.7664179
vn -0.536144 0.2203696 -0.8148538
vn 0.2080559 0.7464873 -0.632036
vn 0.6691677 0.2486089 0.7002914
vn 0.1601008 0.8252538 0.5415938
vn 0.7217142 -0.2625272 0.6404749
vn -0.5804768 0.1911667 0.7915189
vn -0.5947676 -0.1057591 0.7969106
vn 0.1154867 -0.8184417 0.5628641
vn 0.1317495 -0.7965754 -0.5900082
vn -0.8103779 -0.07320352 -0.5813164
vn -0.8221093 -0.07914147 0.5638023
vn -0.8574257 0.1707862 0.485441
vn -0.7621191 0.1115078 -0.637762

vt 0.9581211 -5.960464E-07
vt 0.04098049 0.004407942
vt 0.04098049 0.4602016
vt 0.9581211 0.4631846
vt 0.04814357 0.5284978
vt 5.960464E-08 0.004443973
vt 0.01147336 0.5150028
vt 0.9997675 3.662705E-05
vt 0.9997675 0.4631601
vt 5.960464E-08 0.4601784
vt 0.9994969 0.6409893
vt 0.9629263 0.6587493
vt 0.9619308 0.9999994
vt 1 0.9839379
vt 0.01057166 0.8999746
vt 0.04822391 0.9144878

usemap Standard_303030
usemtl Standard_303030
f 124/124/124 123/123/123 122/122/122 121/121/121 
f 127/127/127 126/126/126 122/122/122 125/125/125 
f 130/130/130 129/129/129 128/128/128 126/126/126 
f 132/132/132 121/121/121 128/128/128 131/131/131 
f 129/129/129 130/130/130 123/123/123 124/124/124 
f 121/121/121 122/122/122 126/126/126 128/128/128 
f 133/133/133 124/124/124 121/121/121 132/132/132 
f 134/134/134 129/129/129 124/124/124 133/133/133 
f 131/131/131 128/128/128 129/129/129 134/134/134 
f 134/134/134 133/133/133 132/132/132 131/131/131 
f 135/135/135 130/130/130 126/126/126 127/127/127 
f 136/136/136 123/123/123 130/130/130 135/135/135 
f 125/125/125 122/122/122 123/123/123 136/136/136 
f 136/136/136 135/135/135 127/127/127 125/125/125 

g s.0038
usemap Standard_303030
usemtl Standard_303030
v 0.01459423 -0.2180513 -0.1116751
v -0.007139716 0.2480138 -0.07216507
v -0.0236626 0.2472546 -0.07229738
v -0.001928709 -0.2188106 -0.1118074
v -0.02842103 0.2745948 -0.0780273
v -0.007269666 0.2453243 -0.04051013
v -0.0280847 0.2733106 -0.0462858
v 0.01446428 -0.2207408 -0.08002018
v -0.002058599 -0.2215001 -0.08015249
v -0.02379248 0.244565 -0.04064244
v -0.008716978 -0.252817 -0.08092342
v -0.009315226 -0.2520641 -0.1126782
v -0.02261855 -0.2422462 -0.1121947
v -0.0220202 -0.2429991 -0.08044001
v -0.04277896 0.2657176 -0.04643724
v -0.0431153 0.2670018 -0.07817876

vn 0.7342102 -0.1677756 -0.6578653
vn 0.7486758 0.2888872 -0.5966815
vn -0.5451605 -0.3602321 -0.7569893
vn -0.5579743 0.2259445 -0.7985072
vn 0.1872168 0.7549452 -0.6284964
vn 0.6850468 0.2451773 0.6860021
vn 0.1684403 0.8201489 0.5467939
vn 0.7393439 -0.2648879 0.6190355
vn -0.5614977 0.1783326 0.8080333
vn -0.5737417 -0.1187243 0.8103858
vn 0.134929 -0.823944 0.550373
vn 0.1219028 -0.7889702 -0.6022174
vn -0.8243273 -0.07207548 -0.5615066
vn -0.8070695 -0.09100456 0.5834013
vn -0.8459591 0.1595484 0.5088198
vn -0.7786973 0.11358 -0.6170333

vt 0.9581211 -5.960464E-07
vt 0.04098049 0.004407942
vt 0.04098049 0.4602016
vt 0.9581211 0.4631846
vt 0.04814357 0.5284978
vt 5.960464E-08 0.004443973
vt 0.01147336 0.5150028
vt 0.9997675 3.662705E-05
vt 0.9997675 0.4631601
vt 5.960464E-08 0.4601784
vt 0.9994969 0.6409893
vt 0.9629263 0.6587493
vt 0.9619308 0.9999994
vt 1 0.9839379
vt 0.01057166 0.8999746
vt 0.04822391 0.9144878

usemap Standard_303030
usemtl Standard_303030
f 140/140/140 139/139/139 138/138/138 137/137/137 
f 143/143/143 142/142/142 138/138/138 141/141/141 
f 146/146/146 145/145/145 144/144/144 142/142/142 
f 148/148/148 137/137/137 144/144/144 147/147/147 
f 145/145/145 146/146/146 139/139/139 140/140/140 
f 137/137/137 138/138/138 142/142/142 144/144/144 
f 149/149/149 140/140/140 137/137/137 148/148/148 
f 150/150/150 145/145/145 140/140/140 149/149/149 
f 147/147/147 144/144/144 145/145/145 150/150/150 
f 150/150/150 149/149/149 148/148/148 147/147/147 
f 151/151/151 146/146/146 142/142/142 143/143/143 
f 152/152/152 139/139/139 146/146/146 151/151/151 
f 141/141/141 138/138/138 139/139/139 152/152/152 
f 152/152/152 151/151/151 143/143/143 141/141/141 

g s.0040
usemap Standard_303030
usemtl Standard_303030
v -0.221853 -0.05302013 0.01950173
v -0.2237936 -0.03339034 0.01647516
v -0.2233901 -0.04692975 -0.00580456
v -0.2737397 -0.05784286 0.02149278
v -0.2752769 -0.05175247 -0.003813514
v -0.2756804 -0.03821306 0.0184662
v -0.2254979 -0.02169175 0.0003974168
v -0.2773847 -0.02651447 0.002388463
v -0.2259675 -0.02477724 -0.01931335
v -0.2778543 -0.02959996 -0.01732231
v -0.2249273 -0.04083937 -0.03111085
v -0.276814 -0.0456621 -0.02911981
v -0.2229866 -0.06046917 -0.02808427
v -0.2748733 -0.0652919 -0.02609323
v -0.2212823 -0.07216775 -0.01200654
v -0.273169 -0.07699048 -0.01001549
v -0.2208128 -0.06908226 0.007704242
v -0.2726995 -0.07390498 0.009695287
v -0.2477963 -0.05543149 0.02049726
v -0.249737 -0.0358017 0.01747068
v -0.2514413 -0.02410311 0.00139294
v -0.2519109 -0.0271886 -0.01831783
v -0.2508707 -0.04325073 -0.03011533
v -0.24893 -0.06288053 -0.02708875
v -0.2472257 -0.07457911 -0.01101101
v -0.2467561 -0.07149362 0.008699764

vn 0.6728702 -0.1230592 0.7294533
vn 0.6150851 0.461435 0.6393342
vn 0.9949822 0.09248078 -0.03818038
vn -0.5813296 -0.2396335 0.7775806
vn -0.9949822 -0.09248078 0.03818038
vn -0.6391148 0.3448606 0.6874615
vn 0.564338 0.8097706 0.1606056
vn -0.6898619 0.6931964 0.2087329
vn 0.5503561 0.7178975 -0.4262997
vn -0.7038438 0.6013232 -0.3781724
vn 0.5813297 0.2396335 -0.7775807
vn -0.6728702 0.1230591 -0.7294533
vn 0.6391149 -0.3448608 -0.6874615
vn -0.6150849 -0.4614351 -0.6393341
vn 0.6898618 -0.6931964 -0.2087329
vn -0.564338 -0.8097706 -0.1606056
vn 0.7038438 -0.6013231 0.3781725
vn -0.5503561 -0.7178974 0.4262998
vn 0.05895328 -0.2335787 0.9705491
vn -0.0154755 0.5192646 0.8544734
vn -0.08083895 0.96793 0.2378587
vn -0.09884803 0.849595 -0.5180903
vn -0.05895327 0.2335787 -0.9705492
vn 0.01547552 -0.5192648 -0.8544734
vn 0.08083896 -0.96793 -0.2378587
vn 0.09884803 -0.8495948 0.5180905

vt 0.5714286 0.25
vt 0.7142857 0.25
vt 0.1568213 0
vt 0.5714286 0.75
vt 0.1568213 1
vt 0.7142857 0.75
vt 0.8571429 0.25
vt 0.8571429 0.75
vt 1 0.25
vt 1 0.75
vt 2.980232E-08 0.25
vt 2.980232E-08 0.75
vt 0.1428572 0.25
vt 0.1428572 0.75
vt 0.2857143 0.25
vt 0.2857143 0.75
vt 0.4285715 0.2500001
vt 0.4285715 0.7499999
vt 0.5714286 0.5
vt 0.7142857 0.5
vt 0.8571429 0.5
vt 1 0.5
vt 2.980232E-08 0.5
vt 0.1428572 0.5
vt 0.2857143 0.5
vt 0.4285715 0.5

usemap Standard_303030
usemtl Standard_303030
f 155/155/155 154/154/154 153/153/153 
f 158/158/158 157/157/157 156/156/156 
f 155/155/155 159/159/159 154/154/154 
f 160/160/160 157/157/157 158/158/158 
f 155/155/155 161/161/161 159/159/159 
f 162/162/162 157/157/157 160/160/160 
f 155/155/155 163/163/163 161/161/161 
f 164/164/164 157/157/157 162/162/162 
f 155/155/155 165/165/165 163/163/163 
f 166/166/166 157/157/157 164/164/164 
f 155/155/155 167/167/167 165/165/165 
f 168/168/168 157/157/157 166/166/166 
f 155/155/155 169/169/169 167/167/167 
f 170/170/170 157/157/157 168/168/168 
f 155/155/155 153/153/153 169/169/169 
f 156/156/156 157/157/157 170/170/170 
f 154/154/154 172/172/172 171/171/171 153/153/153 
f 172/172/172 158/158/158 156/156/156 171/171/171 
f 159/159/159 173/173/173 172/172/172 154/154/154 
f 173/173/173 160/160/160 158/158/158 172/172/172 
f 161/161/161 174/174/174 173/173/173 159/159/159 
f 174/174/174 162/162/162 160/160/160 173/173/173 
f 163/163/163 175/175/175 174/174/174 161/161/161 
f 175/175/175 164/164/164 162/162/162 174/174/174 
f 165/165/165 176/176/176 175/175/175 163/163/163 
f 176/176/176 166/166/166 164/164/164 175/175/175 
f 167/167/167 177/177/177 176/176/176 165/165/165 
f 177/177/177 168/168/168 166/166/166 176/176/176 
f 169/169/169 178/178/178 177/177/177 167/167/167 
f 178/178/178 170/170/170 168/168/168 177/177/177 
f 153/153/153 171/171/171 178/178/178 169/169/169 
f 171/171/171 156/156/156 170/170/170 178/178/178 
