
mtllib ./plane.obj.mtl

g s.0016
usemap Standard_B29E43
usemtl Standard_B29E43
v 0.2064156 0.04508134 -0.054028
v 0.1049989 0.05075537 -0.05657309
v 0.1041021 0.02872903 -0.0698428
v 0.2060814 0.02453998 -0.06749829
v -0.2865369 0.02060604 -0.03984015
v -0.09239113 0.02725122 -0.05410992
v -0.09149431 0.04927756 -0.0408402
v -0.2855681 0.04342344 -0.02798793
v 0.1037166 0.004011281 -0.07697958
v 0.2063206 0.001218885 -0.07521769
v -0.2870585 -0.004511591 -0.04539753
v -0.09277666 0.002533473 -0.06124669
v 0.1038686 -0.02171339 -0.07749712
v 0.2071168 -0.02329221 -0.07665993
v -0.2870974 -0.03021763 -0.04428101
v -0.09262463 -0.02319119 -0.06176423
v 0.1045478 -0.04669188 -0.0713601
v 0.2084161 -0.04732311 -0.07172698
v -0.2866509 -0.05476027 -0.03656691
v -0.09194539 -0.04816969 -0.0556272
v 0.105708 -0.06922195 -0.05898678
v 0.2101297 -0.06923637 -0.06075473
v -0.2857494 -0.07646702 -0.02278092
v -0.09078524 -0.07069976 -0.0432539
v 0.10727 -0.08776822 -0.04122037
v 0.2121409 -0.08753826 -0.0444911
v -0.2844545 -0.09385865 -0.003862578
v -0.08922323 -0.08924603 -0.02548748
v 0.1091274 -0.1010668 -0.01927163
v 0.2143126 -0.1009818 -0.02404444
v -0.2828542 -0.1057498 0.01889896
v -0.08736581 -0.1025446 -0.003538746
v 0.1111537 -0.1082114 0.005363682
v 0.2164967 -0.1086507 -0.0008080769
v -0.2810578 -0.1113302 0.0439527
v -0.08533958 -0.1096892 0.02109657
v 0.1132106 -0.1087151 0.0310067
v 0.2185446 -0.1100224 0.02363448
v -0.2791876 -0.1102195 0.06959081
v -0.08328259 -0.1101929 0.04673959
v 0.1151582 -0.1025436 0.0559099
v 0.2203165 -0.1050035 0.04761735
v -0.277371 -0.1024935 0.09406649
v -0.08133505 -0.1040214 0.07164279
v 0.1168636 -0.09011754 0.07837619
v 0.2216918 -0.09393579 0.06950642
v -0.2757319 -0.08867848 0.1157117
v -0.07962967 -0.09159535 0.09410907
v 0.1182106 -0.07228364 0.09687448
v 0.2225767 -0.07757392 0.08780967
v -0.2743819 -0.0697163 0.1330511
v -0.07828267 -0.07376145 0.1126074
v 0.1191074 -0.05025727 0.1101442
v 0.222911 -0.05703232 0.10128
v -0.2734131 -0.04689873 0.1449034
v -0.07738584 -0.05173508 0.1258771
v 0.1194929 -0.02553956 0.117281
v 0.2226718 -0.0337114 0.1089994
v -0.2728915 -0.0217811 0.1504606
v -0.07700031 -0.02701737 0.1330138
v 0.1193409 0.0001851283 0.1177985
v 0.2218755 -0.009200227 0.1104417
v -0.2728526 0.003924817 0.1493441
v -0.07715235 -0.001292679 0.1335314
v 0.1186617 0.02516361 0.1116615
v 0.2205762 0.01483083 0.1055086
v -0.2732991 0.02846747 0.1416301
v -0.07783158 0.0236858 0.1273944
v 0.1175015 0.04769369 0.09928816
v 0.2188626 0.03674386 0.0945364
v -0.2742005 0.0501743 0.127844
v -0.07899173 0.04621588 0.115021
v 0.1159395 0.06623995 0.08152175
v 0.2168515 0.05504577 0.07827276
v -0.2754955 0.06756601 0.1089257
v -0.08055375 0.06476214 0.09725464
v 0.1140821 0.07953855 0.05957297
v 0.2146798 0.06848936 0.05782607
v -0.2770957 0.07945715 0.08616401
v -0.08241116 0.07806074 0.07530586
v 0.1120558 0.08668311 0.03493771
v 0.2124957 0.0761582 0.0345898
v -0.08443747 0.02445482 0.05067061
v -0.0844374 0.0852053 0.05067059
v -0.08241129 0.01731015 0.07530583
v 0.1099989 0.08718684 0.009294651
v 0.2104478 0.07753003 0.01014726
v -0.08649442 0.02495845 0.02502752
v -0.08649439 0.08570904 0.02502754
v 0.1080513 0.08101536 -0.01560855
v 0.2086758 0.07251103 -0.01383574
v -0.2825791 0.01545008 0.01099683
v -0.2825789 0.07620066 0.01099671
v -0.08844193 0.07953755 0.0001243372
v -0.08844197 0.01878702 0.0001241956
v 0.1063459 0.06858926 -0.03807481
v 0.2073006 0.06144341 -0.03572471
v -0.2842181 0.06238571 -0.01064853
v -0.0901473 0.06711145 -0.02234192
v 0.07857101 0.04778789 -0.3996373
v -0.1185467 0.04871702 -0.401387
v 0.08545581 -0.02862589 -0.3962532
v -0.1113348 -0.01929975 -0.3894854
v 0.1191073 -0.05025714 0.1103636
v -0.07738619 -0.051735 0.1260964
v 0.1214343 0.02045521 0.4619681
v -0.07518214 0.02911903 0.4507324
v -0.4277181 0.01720576 -0.01715587
v -0.4276824 0.03539043 -0.006296985
v -0.427502 0.05014567 0.008896532
v -0.427189 0.06046611 0.02738946
v -0.2807624 0.08392668 0.03547236
v -0.426765 0.06564821 0.04792137
v -0.2788922 0.08503744 0.0611106
v -0.4262586 0.0653391 0.0690932
v -0.4257045 0.05955987 0.08946176
v -0.4251404 0.04870401 0.1076396
v -0.4246048 0.03351147 0.1223873
v -0.4241341 0.01501762 0.1327004
v -0.4237604 -0.005516995 0.1378756
v -0.4235093 -0.02669313 0.1375604
v -0.4233977 -0.04706779 0.1317763
v -0.4234333 -0.06525245 0.1209174
v -0.4236137 -0.08000777 0.1057239
v -0.4239267 -0.09032814 0.08723088
v -0.4243507 -0.09551044 0.06669892
v -0.4248571 -0.09520127 0.0455272
v -0.4254112 -0.08942181 0.02515836
v -0.4259752 -0.0785659 0.006980732
v -0.4265109 -0.06337345 -0.007767051
v -0.4269816 -0.04487986 -0.01808003
v -0.4273552 -0.02434515 -0.0232552
v -0.4276065 -0.003168955 -0.02294008
v -0.5585332 0.003500758 0.01141307
v -0.5577866 0.01646065 0.01825895
v -0.5569113 0.02719931 0.0282237
v -0.5559675 0.03498488 0.04062837
v -0.555019 0.03928677 0.05462745
v -0.5541306 0.03981198 0.06926709
v -0.5533628 0.03652479 0.08354925
v -0.5527681 0.02964876 0.09650121
v -0.5523868 0.01965286 0.1072397
v -0.5522451 0.007218121 0.1150336
v -0.5523525 -0.00680781 0.1193511
v -0.5527018 -0.02146932 0.1198982
v -0.553269 -0.03576711 0.1166378
v -0.5540156 -0.04872703 0.1097919
v -0.5548908 -0.05946568 0.0998271
v -0.5558347 -0.06725126 0.08742243
v -0.5567832 -0.07155335 0.07342324
v -0.5576715 -0.07207854 0.05878375
v -0.5584394 -0.06879106 0.04450142
v -0.5590339 -0.06191516 0.03154953
v -0.5594152 -0.05191924 0.02081098
v -0.559557 -0.03948469 0.01301728
v -0.5594496 -0.02545857 0.00869971
v -0.5591004 -0.01079714 0.008152468
v -0.6918533 -0.01307094 0.03967033
v -0.6918416 -0.00386553 0.04367301
v -0.6914691 0.003999947 0.04989864
v -0.6907613 0.009989236 0.05792283
v -0.6897664 0.01369444 0.06719871
v -0.703353 0.1569736 0.05031177
v -0.5719891 0.1157869 0.04617692
v -0.688552 0.0148629 0.07709435
v -0.6872012 0.01341531 0.08693501
v -0.6858057 0.009449866 0.09605041
v -0.6844609 0.00323701 0.1038191
v -0.6832584 -0.00479995 0.109712
v -0.6758468 0.00303638 0.2389825
v -0.5657831 0.003684472 0.1667134
v -0.68228 -0.01411301 0.1133272
v -0.6815925 -0.02406775 0.1144183
v -0.6812427 -0.03398581 0.1129111
v -0.6812544 -0.04319128 0.1089082
v -0.6816269 -0.05105665 0.1026827
v -0.6823347 -0.05704595 0.09465848
v -0.6833297 -0.0607513 0.0853825
v -0.6845439 -0.06191982 0.07548703
v -0.6858948 -0.06047201 0.06564628
v -0.6872901 -0.05650663 0.05653086
v -0.6886349 -0.05029375 0.04876219
v -0.6898375 -0.0422569 0.04286946
v -0.6908159 -0.0329438 0.03925419
v -0.6915035 -0.02298893 0.03816301
v -0.7030022 -0.02698429 -0.08531826
v -0.5746827 -0.01210874 -0.04181287
v -0.686548 -0.02352842 0.07629064
v 0.2772569 0.01491821 -0.03421866
v 0.2770749 0.0005418025 -0.04131448
v 0.276952 -0.01518207 -0.04444785
v 0.2768964 -0.03118131 -0.04340536
v 0.276912 -0.04636582 -0.03825806
v 0.2769976 -0.05970105 -0.02935652
v 0.2771476 -0.07027778 -0.01730759
v 0.2773515 -0.07737549 -0.002932379
v 0.2775956 -0.08051042 0.01278967
v 0.2778631 -0.079469 0.02878692
v 0.278136 -0.07432209 0.04396923
v 0.2783955 -0.06542053 0.05730201
v 0.2786239 -0.05337099 0.06787652
v 0.2788059 -0.03899437 0.07497226
v 0.2789289 -0.02327066 0.07810573
v 0.2789845 -0.007271323 0.07706322
v 0.2789689 0.007913234 0.07191585
v 0.2788832 0.02124828 0.06301436
v 0.2787333 0.03182502 0.05096541
v 0.2785294 0.03892282 0.0365901
v 0.2782853 0.04205776 0.02086822
v 0.2780178 0.04101633 0.004870979
v 0.2777449 0.03586941 -0.01031139
v 0.2774854 0.02696788 -0.02364412
v 0.302222 -0.01880163 0.02000869
v -0.1126025 -0.04495429 -0.3909962
v 0.08418802 -0.0542805 -0.3977641
v 0.04377141 -0.03653291 -0.4791686
v -0.07960448 -0.02588385 -0.4754578
v -0.08102396 -0.04195681 -0.4765269
v 0.04235195 -0.05260582 -0.4802378
v -0.1186791 0.02301852 -0.4001168
v 0.07843861 0.02208923 -0.398367
v 0.04699223 0.03483486 -0.4727008
v -0.1014923 0.02973498 -0.475187
v -0.1007966 0.01045658 -0.477195
v 0.047688 0.01555629 -0.4747088
v -0.07380795 0.05440684 0.4461845
v 0.1228085 0.04574314 0.45742
v 0.09726906 0.02441721 0.5334775
v -0.03414654 0.02624884 0.5271969
v -0.03384683 0.04337277 0.5259194
v 0.09756882 0.04154149 0.5321997
v -0.2770959 0.01870657 0.08616421
v -0.2788923 0.02428696 0.06111066
v -0.2807626 0.02317613 0.0354724
v -0.07700059 -0.0270173 0.1332332
v 0.1194929 -0.02553953 0.1175003
v 0.1191073 -0.05025713 0.4267819
v -0.07738648 -0.05173497 0.4425147
v -0.07700095 -0.0270173 0.4496514
v 0.1194928 -0.02553944 0.4339187
v 0.07939473 -0.04206082 0.5177716
v -0.03777374 -0.0470254 0.518839
v -0.03841446 -0.0317478 0.5195549
v 0.07875381 -0.02678315 0.5184873
v -0.5721573 0.1150149 0.06083158
v -0.7025437 0.1568721 0.06031669
v -0.5641952 -0.01019279 0.1712166
v -0.6735055 -0.006255001 0.2419736
v -0.5766463 0.001704365 -0.03726047
v -0.7046183 -0.01730977 -0.08318433

vn 0.2471663 0.630096 -0.7361304
vn 0.1806894 0.7767048 -0.6033913
vn 0.4309509 0.02209732 -0.9021049
vn 0.2355305 0.4251866 -0.8739233
vn -0.1187361 0.3406841 -0.9326501
vn -0.5119397 0.02320641 -0.8587079
vn -0.2276878 0.7832942 -0.5784535
vn -0.1132261 0.572324 -0.8121731
vn -0.02971825 0.1508892 -0.9881039
vn 0.2252344 0.1910341 -0.9553929
vn -0.1201536 0.08557051 -0.9890605
vn -0.08293592 0.1510369 -0.9850429
vn 0.3189498 0.2513318 -0.9138399
vn 0.2169925 -0.05745437 -0.974481
vn -0.1173966 -0.1755059 -0.9774537
vn -0.4284417 0.2344432 -0.8726249
vn 0.2197404 -0.6092148 -0.7619525
vn 0.2113736 -0.30395 -0.9289433
vn -0.1106667 -0.4245937 -0.898595
vn -0.291283 -0.6078807 -0.7386714
vn -0.03684701 -0.591321 -0.8055941
vn 0.2087501 -0.5316829 -0.8208147
vn -0.1004344 -0.6445785 -0.7579126
vn -0.06338079 -0.5920388 -0.8034134
vn -0.0309336 -0.7800251 -0.6249832
vn 0.2092697 -0.7246377 -0.656587
vn -0.08739968 -0.8203748 -0.5651074
vn -0.04735503 -0.7804068 -0.6234763
vn -0.02134589 -0.9155766 -0.401577
vn 0.2128568 -0.8688588 -0.4469637
vn -0.0724468 -0.9399765 -0.3334603
vn -0.02814393 -0.9156191 -0.4010605
vn -0.00878094 -0.988551 -0.1506311
vn 0.2192362 -0.9536354 -0.2061916
vn -0.0565845 -0.9952751 -0.07890316
vn -0.00705516 -0.988461 -0.151311
vn 0.005860033 -0.9938423 0.1106491
vn 0.2279705 -0.9724361 0.04896414
vn -0.04087965 -0.9826112 0.181119
vn 0.01447701 -0.9939623 0.1087629
vn 0.02154682 -0.9310248 0.3643194
vn 0.2384969 -0.9234864 0.3004867
vn -0.02638835 -0.9029871 0.4288567
vn 0.034987 -0.9317374 0.3614436
vn 0.03720004 -0.8043787 0.5929512
vn 0.2501521 -0.8099555 0.5304678
vn -0.01408848 -0.7619688 0.6474606
vn 0.0530786 -0.8060143 0.5895113
vn 0.05176806 -0.6225857 0.7808375
vn 0.2621931 -0.6397522 0.7224762
vn -0.004816142 -0.5692691 0.8221372
vn 0.06751979 -0.6253504 0.7774175
vn 0.2754139 -0.6210307 0.7338039
vn 0.273825 -0.4249752 0.8627954
vn 0.0007930715 -0.3380592 0.9411246
vn -0.1624119 -0.6541278 0.7387418
vn 0.4169453 0.1885847 0.8891528
vn 0.2842378 -0.1810267 0.9415085
vn 0.00234626 -0.08406439 0.9964576
vn -0.2955923 0.2349049 0.9259832
vn 0.08020055 0.1151796 0.9901018
vn 0.2926866 0.07458358 0.9532952
vn -0.0002752952 0.1755079 0.9844781
vn 0.08071175 0.1097088 0.9906814
vn 0.4981556 0.02717581 0.8666617
vn 0.2985439 0.3236148 0.8978558
vn -0.00690547 0.423118 0.9060484
vn -0.3523634 -0.04877835 0.9345912
vn 0.2443091 0.758748 0.6038332
vn 0.3013814 0.5486035 0.7798741
vn -0.01710203 0.6420389 0.7664813
vn -0.1408971 0.7732592 0.618238
vn 0.0753376 0.7839333 0.6162571
vn 0.3009962 0.734266 0.6084857
vn -0.0301726 0.8174713 0.5751785
vn 0.04628267 0.780514 0.6234227
vn 0.06617922 0.9173984 0.3924289
vn 0.2974261 0.8686019 0.3963187
vn 0.3109926 0.9501536 0.02217573
vn -0.3882505 0.9109299 0.1395294
vn 0.05402105 0.988368 0.1421628
vn 0.290939 0.943553 0.1583109
vn -0.7284408 0.6656725 0.1620313
vn -0.6707654 0.7232124 0.1644313
vn -0.595529 0.6601291 -0.4577936
vn 0.03965452 0.9922788 -0.1175176
vn 0.281996 0.9552304 -0.08951691
vn -0.7430969 0.6690217 -0.01472592
vn -0.6861416 0.7269627 -0.02711219
vn 0.02403826 0.9290779 -0.369102
vn 0.2712176 0.9037696 -0.3311217
vn 0.5890062 0.6701738 0.451596
vn 0.3263246 0.9330647 -0.1513359
vn -0.4071641 0.9125301 -0.03880924
vn -0.5347652 0.6455711 0.5452195
vn 0.008232486 0.8031461 -0.5957251
vn 0.2593394 0.7930044 -0.5512596
vn -0.1039896 0.7646592 -0.6359894
vn -0.05423515 0.8057252 -0.5898013
vn 0.7047094 0.6736475 -0.2226745
vn -0.705199 0.6965883 -0.132133
vn 0.7378392 0.6387269 -0.2182232
vn -0.6973243 0.7073166 -0.1159399
vn 0.7042748 -0.7099274 0.0003388822
vn -0.7102548 -0.7039444 -0.0005030035
vn 0.7001925 -0.7004962 0.1379694
vn -0.7730798 -0.5968812 0.2146641
vn -0.1947355 0.3903174 -0.8998502
vn -0.191877 0.6111339 -0.7679182
vn -0.1863306 0.7905279 -0.5833924
vn -0.1784463 0.9162519 -0.3586634
vn 0.6211079 0.7628872 -0.1795217
vn -0.1687398 0.9796258 -0.1089048
vn 0.6322606 0.7744166 0.02292618
vn -0.1578616 0.9761657 0.1489306
vn -0.1465555 0.9059301 0.3972559
vn -0.1356097 0.77356 0.6190436
vn -0.1257952 0.5880155 0.7990077
vn -0.1178089 0.3619579 0.9247203
vn -0.112218 0.1108885 0.9874771
vn -0.1094157 -0.1479218 0.9829279
vn -0.1095891 -0.3966717 0.9113955
vn -0.11271 -0.6182608 0.7778496
vn -0.118539 -0.797514 0.5915405
vn -0.1266512 -0.9222177 0.3653409
vn -0.136469 -0.9839683 0.1148159
vn -0.1473128 -0.9787155 -0.1428806
vn -0.1584477 -0.9069984 -0.39019
vn -0.1691307 -0.7738608 -0.610356
vn -0.1786618 -0.5884643 -0.7885364
vn -0.18642 -0.3634245 -0.9127816
vn -0.1918994 -0.1139777 -0.9747738
vn -0.1947372 0.1430457 -0.9703687
vn -0.01309399 0.5740961 -0.8186832
vn -0.2336938 0.5731013 -0.7854565
vn -0.2273682 0.7586069 -0.6105894
vn -0.2166962 0.8929206 -0.3946335
vn 0.1008222 0.8726594 -0.477808
vn 0.1134063 0.9190124 0.3775648
vn -0.1667203 0.9219283 0.3496465
vn -0.1475804 0.8043528 0.5755315
vn -0.129189 0.631987 0.7641352
vn 0.07497908 0.6145074 0.78534
vn 0.2756885 -0.1304696 0.9523517
vn -0.09019908 -0.08800736 0.9920277
vn -0.0857432 -0.341278 0.9360436
vn -0.08646855 -0.5717144 0.8158835
vn -0.0923928 -0.7630532 0.6396979
vn -0.1031442 -0.9017739 0.4197203
vn -0.1179816 -0.9781238 0.1713307
vn -0.13585 -0.9868053 -0.08809199
vn -0.1554547 -0.9273365 -0.3404129
vn -0.1753743 -0.8040634 -0.5680896
vn -0.1941724 -0.6258253 -0.755407
vn -0.2105191 -0.4052753 -0.8896257
vn -0.2232965 -0.1579009 -0.9618763
vn 0.1563559 -0.2261159 -0.96147
vn -0.9204049 0.3515772 -0.1710214
vn -0.8034804 0.316673 -0.5041205
vn -0.7984339 0.4586229 -0.3900875
vn -0.7879964 0.5654612 -0.2435476
vn -0.9383947 0.20328 -0.2794506
vn -0.5506449 0.6179395 -0.5611961
vn 0.5659688 0.5072088 -0.6499374
vn -0.8646618 0.2578508 0.4311301
vn -0.7337587 0.6194056 0.2791684
vn -0.7123079 0.5462717 0.4406867
vn -0.6915093 0.4343082 0.5772272
vn -0.847423 0.4174365 0.3280565
vn -0.5099333 0.5979668 0.618388
vn 0.5841824 0.7024676 0.4065343
vn -0.8719035 -0.2923759 0.3928114
vn -0.6454981 -0.04787635 0.7622598
vn -0.6388435 -0.2221918 0.7365527
vn -0.6375306 -0.3846573 0.6675279
vn -0.641714 -0.5246602 0.5594059
vn -0.6511977 -0.6328015 0.418932
vn -0.6654375 -0.7015175 0.2550806
vn -0.6835389 -0.7256697 0.07860222
vn -0.7043003 -0.7030234 -0.0985861
vn -0.7262861 -0.634567 -0.2642602
vn -0.7479509 -0.5245509 -0.4067135
vn -0.7677271 -0.3803297 -0.515698
vn -0.7841809 -0.2118368 -0.5832542
vn -0.9139626 -0.3578821 -0.1912924
vn -0.4180257 -0.5603172 -0.7150519
vn 0.6334257 -0.4462637 -0.6321556
vn -0.9902903 -0.05437195 0.1279404
vn 0.7135394 0.3750581 -0.5917711
vn 0.7101697 0.2123633 -0.6712383
vn 0.7076975 0.03430834 -0.7056822
vn 0.7062505 -0.1467924 -0.6925765
vn 0.7058946 -0.3183737 -0.632733
vn 0.7066214 -0.4685183 -0.5302611
vn 0.7083679 -0.5868021 -0.3922731
vn 0.711023 -0.6650524 -0.2283671
vn 0.7144393 -0.6979123 -0.04994982
vn 0.7184296 -0.6832322 0.1305863
vn 0.7227709 -0.6222108 0.300759
vn 0.7271971 -0.5192926 0.4489092
vn 0.7314097 -0.3817855 0.5650485
vn 0.7350971 -0.2192764 0.6415218
vn 0.7379634 -0.04286879 0.6734778
vn 0.7397698 0.1355886 0.6590573
vn 0.7403581 0.3042423 0.5994219
vn 0.7396774 0.4519589 0.4986087
vn 0.7377784 0.5689581 0.3632765
vn 0.7348101 0.6473963 0.2023169
vn 0.7310026 0.6818653 0.02636274
vn 0.7266476 0.6697923 -0.1528454
vn 0.7220663 0.6116965 -0.3231838
vn 0.7175926 0.5112392 -0.4729644
vn 0.999992 -0.001534283 0.00370427
vn -0.7682061 -0.6272544 -0.128106
vn 0.6912851 -0.6964338 -0.1926264
vn 0.4577786 0.538422 -0.7074889
vn -0.4114993 0.6431262 -0.6457995
vn -0.5157517 -0.5119506 -0.6869547
vn 0.3545214 -0.6240467 -0.6963335
vn -0.7558883 -0.6546812 -0.005028991
vn 0.7218895 -0.6782467 -0.1373211
vn 0.4209013 0.5934994 -0.6860034
vn -0.5289345 0.5121233 -0.676726
vn -0.4720606 -0.6317639 -0.614844
vn 0.4720243 -0.5788118 -0.6649587
vn -0.6732816 0.7188468 0.1730646
vn 0.7509461 0.6494717 0.119442
vn 0.443586 -0.5591241 0.7004368
vn -0.4327509 -0.592105 0.6798075
vn -0.4218637 0.5911254 0.6874604
vn 0.4644462 0.5886183 0.6616785
vn 0.5344372 0.6416194 -0.5501831
vn 0.7390251 0.67366 0.00492829
vn 0.7250082 0.6668675 -0.1721945
vn -0.7043049 0.7098975 -0.0004519224
vn 0.7099224 0.7042801 3.880262E-05
vn 0.7092899 -0.6901306 0.1436235
vn -0.7162271 -0.6796501 0.1584131
vn -0.7373303 0.6325784 0.2370417
vn 0.7490846 0.630307 0.2039247
vn 0.4654329 -0.5593112 0.6859615
vn -0.3823168 -0.6239318 0.681574
vn -0.4243807 0.5412518 0.7259116
vn 0.4014432 0.6099519 0.6832291
vn 0.5851264 0.5632488 0.5834192
vn -0.4951618 0.6754728 0.5463986
vn 0.6510944 -0.5792795 0.4904197
vn -0.2613561 -0.4407935 0.8587165
vn 0.4218501 0.7773581 -0.4666443
vn -0.6288636 0.5179527 -0.5798754

vt 0.5070506 0.0559248
vt 0.5093503 0.107497
vt 0.5555289 0.1093836
vt 0.5578303 0.05803406
vt 0.5650128 0.8572102
vt 0.5555289 0.4400829
vt 0.5093503 0.4392396
vt 0.5186473 0.8590195
vt 0.6007464 0.1120635
vt 0.6064899 0.06128299
vt 0.6104532 0.8545287
vt 0.6007464 0.4412434
vt 0.6447916 0.1152943
vt 0.6526237 0.06530011
vt 0.654731 0.8512356
vt 0.6447916 0.4425876
vt 0.6875898 0.11881
vt 0.696232 0.06970087
vt 0.6977499 0.847618
vt 0.6875898 0.4439864
vt 0.729178 0.1223495
vt 0.7375637 0.07413954
vt 0.7395329 0.8439542
vt 0.729178 0.445332
vt 0.7696723 0.1256783
vt 0.7769761 0.07833022
vt 0.7801881 0.8404907
vt 0.7696723 0.4465441
vt 0.8092366 0.1285984
vt 0.8148502 0.08205074
vt 0.8198759 0.8374299
vt 0.8092366 0.4475674
vt 0.8480608 0.1309532
vt 0.8515475 0.08513352
vt 0.8587855 0.8349283
vt 0.8480608 0.4483668
vt 0.8863453 0.1326272
vt 0.8873977 0.08745798
vt 0.8971171 0.8330991
vt 0.8863453 0.4489218
vt 0.9242939 0.1335431
vt 0.9226997 0.08893973
vt 0.9350762 0.8320179
vt 0.9242939 0.4492209
vt 0.962111 0.1336611
vt 0.9577311 0.08952585
vt 0.9728673 0.8317273
vt 0.962111 0.4492592
vt 1 0.132976
vt 0.9927578 0.08919051
vt 0.005102277 0.832239
vt 1 0.4490361
vt 0.03257343 0.1315175
vt 0.02245599 0.08793476
vt 0.04317009 0.8335356
vt 0.03257343 0.4485551
vt 0.07121861 0.1293518
vt 0.05828902 0.08579117
vt 0.08168346 0.8355676
vt 0.07121861 0.4478256
vt 0.1105461 0.1265826
vt 0.09496903 0.0828276
vt 0.1208466 0.8382501
vt 0.1105461 0.4468649
vt 0.1507499 0.1233548
vt 0.1328318 0.07915655
vt 0.1608583 0.8414571
vt 0.1507499 0.4457033
vt 0.1920034 0.1198541
vt 0.172245 0.07494569
vt 0.2018999 0.8450169
vt 0.1920034 0.4443897
vt 0.2344396 0.1163054
vt 0.2135956 0.07042721
vt 0.2441166 0.8487097
vt 0.2344396 0.4429965
vt 0.2781221 0.1129633
vt 0.2572441 0.06590277
vt 0.28759 0.8522742
vt 0.2781221 0.4416237
vt 0.323012 0.1100955
vt 0.3034353 0.06173706
vt 0.2576042 0.3637445
vt 0.323012 0.4403954
vt 0.1759107 0.4010865
vt 0.3689398 0.1079546
vt 0.3521585 0.05833262
vt 0.3897984 0.3414842
vt 0.3689398 0.4394462
vt 0.4155958 0.1067444
vt 0.4029898 0.05607161
vt 0.5275645 0.9365572
vt 0.4247244 0.8593692
vt 0.4155958 0.4388969
vt 0.5107079 0.3739979
vt 0.4625574 0.1065865
vt 0.4550301 0.055235
vt 0.4717299 0.859767
vt 0.4625574 0.4388245
vt 0.5916058 0.3386776
vt 0.591488 0.4807514
vt 0.6210474 0.3330044
vt 0.6167257 0.4758436
vt 0.03272092 0.1317688
vt 0.03272083 0.4486884
vt 0.1157199 0.363383
vt 0.1200736 0.4997419
vt 0.5630751 0.9309292
vt 0.5191928 0.9332064
vt 0.4740644 0.9351975
vt 0.4278768 0.9367405
vt 0.3781112 0.8578684
vt 0.3809572 0.9377068
vt 0.3323031 0.8554223
vt 0.3337444 0.938018
vt 0.2867284 0.937656
vt 0.2403665 0.936664
vt 0.1950181 0.9351367
vt 0.150903 0.9332032
vt 0.1081027 0.9310139
vt 0.06658149 0.9287225
vt 0.02621958 0.9264774
vt 0.9924365 0.9244145
vt 0.9538472 0.9226537
vt 0.9158259 0.921295
vt 0.8781511 0.9204167
vt 0.8405994 0.9200727
vt 0.8029475 0.9202896
vt 0.7649751 0.9210643
vt 0.7264638 0.9223615
vt 0.6872019 0.9241128
vt 0.6469904 0.926217
vt 0.605657 0.9285414
vt 0.5822519 0.967657
vt 0.5410789 0.9695432
vt 0.4978129 0.9714256
vt 0.4522415 0.9731594
vt 0.404372 0.9745904
vt 0.354552 0.9755744
vt 0.3035276 0.9760028
vt 0.2523369 0.9758284
vt 0.2020622 0.975078
vt 0.1535437 0.9738436
vt 0.1072396 0.9722568
vt 0.06324172 0.9704642
vt 0.02139333 0.9686069
vt 0.9869979 0.9668077
vt 0.9485394 0.9651711
vt 0.9112764 0.9637809
vt 0.8748955 0.9627022
vt 0.8391066 0.9619831
vt 0.8036363 0.961656
vt 0.7682214 0.9617372
vt 0.7325985 0.9622279
vt 0.6964942 0.9631108
vt 0.6596158 0.9643506
vt 0.6216484 0.9658924
vt 0.6326003 0.987016
vt 0.5934262 0.9893292
vt 0.54932 0.9916484
vt 0.4983144 0.9937862
vt 0.4385841 0.9954803
vt 0.3874843 0.9198987
vt 0.3889789 0.9239311
vt 0.3704583 0.9964178
vt 0.2988709 0.9963632
vt 0.2313908 0.995329
vt 0.172469 0.9935688
vt 0.1220937 0.9913936
vt 0.1183578 0.921477
vt 0.1248415 0.9420859
vt 0.07837644 0.9890592
vt 0.03939438 0.9867477
vt 0.003696948 0.9845881
vt 0.9758638 0.9826739
vt 0.9440117 0.9810743
vt 0.9132329 0.9798412
vt 0.8831539 0.9790093
vt 0.8534769 0.9786031
vt 0.8239406 0.9786325
vt 0.7942942 0.9790967
vt 0.7642709 0.9799809
vt 0.7335584 0.9812613
vt 0.7017633 0.9828982
vt 0.6683574 0.9848402
vt 0.6292542 0.9192914
vt 0.6183121 0.9322793
vt 0.8396083 1
vt 0.5454736 0.0104897
vt 0.60719 0.01382518
vt 0.6607842 0.01846468
vt 0.7072559 0.0237574
vt 0.7483643 0.02920538
vt 0.7856578 0.03445232
vt 0.8202865 0.03924227
vt 0.85307 0.04338741
vt 0.8845958 0.04674688
vt 0.9152975 0.04921567
vt 0.9455137 0.05071881
vt 0.9755264 0.05120972
vt -5.960464E-08 0.05066878
vt 0.03037578 0.04910469
vt 0.06134608 0.04655579
vt 0.09325519 0.04309303
vt 0.1265502 0.03882453
vt 0.1618431 0.03390217
vt 0.1999958 0.02853355
vt 0.2422214 0.02300346
vt 0.2901245 0.01770535
vt 0.3454171 0.013181
vt 0.4087228 0.01011014
vt 0.4774444 0.009134531
vt 0.9957124 2.980232E-08
vt 0.6263744 0.4770116
vt 0.6308438 0.3351599
vt 0.6216857 0.3772092
vt 0.6178859 0.4538532
vt 0.62294 0.454947
vt 0.6267753 0.3785886
vt 0.6008777 0.4809724
vt 0.6013952 0.3378261
vt 0.5986193 0.3739082
vt 0.6002148 0.4677645
vt 0.6063261 0.4673615
vt 0.6049087 0.3736915
vt 0.1298263 0.4982636
vt 0.1248863 0.361541
vt 0.115945 0.3964088
vt 0.1171173 0.4758846
vt 0.1226102 0.4755399
vt 0.1212625 0.3960857
vt 0.1915879 0.9262046
vt 0.2816726 0.9502723
vt 0.4172356 0.9553893
vt 0.07129362 0.4479696
vt 0.07129359 0.1296268
vt 0.08898979 0.3542344
vt 0.08898976 0.5015507
vt 0.09868574 0.5014513
vt 0.09868574 0.3556959
vt 0.09497783 0.4037585
vt 0.09343931 0.4779472
vt 0.09840897 0.4783198
vt 0.09986934 0.4040575
vt 0.3703179 0.9258714
vt 0.3779549 0.9206957
vt 0.1023783 0.9392034
vt 0.1090834 0.9197279
vt 0.5979099 0.9354012
vt 0.6200268 0.9209981

usemap Standard_B29E43
usemtl Standard_B29E43
f 4/4/4 3/3/3 2/2/2 1/1/1 
f 8/8/8 7/7/7 6/6/6 5/5/5 
f 10/10/10 9/9/9 3/3/3 4/4/4 
f 5/5/5 6/6/6 12/12/12 11/11/11 
f 14/14/14 13/13/13 9/9/9 10/10/10 
f 11/11/11 12/12/12 16/16/16 15/15/15 
f 18/18/18 17/17/17 13/13/13 14/14/14 
f 15/15/15 16/16/16 20/20/20 19/19/19 
f 22/22/22 21/21/21 17/17/17 18/18/18 
f 19/19/19 20/20/20 24/24/24 23/23/23 
f 26/26/26 25/25/25 21/21/21 22/22/22 
f 23/23/23 24/24/24 28/28/28 27/27/27 
f 30/30/30 29/29/29 25/25/25 26/26/26 
f 27/27/27 28/28/28 32/32/32 31/31/31 
f 34/34/34 33/33/33 29/29/29 30/30/30 
f 31/31/31 32/32/32 36/36/36 35/35/35 
f 38/38/38 37/37/37 33/33/33 34/34/34 
f 35/35/35 36/36/36 40/40/40 39/39/39 
f 42/42/42 41/41/41 37/37/37 38/38/38 
f 39/39/39 40/40/40 44/44/44 43/43/43 
f 46/46/46 45/45/45 41/41/41 42/42/42 
f 43/43/43 44/44/44 48/48/48 47/47/47 
f 50/50/50 49/49/49 45/45/45 46/46/46 
f 47/47/47 48/48/48 52/52/52 51/51/51 
f 54/54/54 53/53/53 49/49/49 50/50/50 
f 51/51/51 52/52/52 56/56/56 55/55/55 
f 58/58/58 57/57/57 53/53/53 54/54/54 
f 55/55/55 56/56/56 60/60/60 59/59/59 
f 62/62/62 61/61/61 57/57/57 58/58/58 
f 59/59/59 60/60/60 64/64/64 63/63/63 
f 66/66/66 65/65/65 61/61/61 62/62/62 
f 63/63/63 64/64/64 68/68/68 67/67/67 
f 70/70/70 69/69/69 65/65/65 66/66/66 
f 67/67/67 68/68/68 72/72/72 71/71/71 
f 74/74/74 73/73/73 69/69/69 70/70/70 
f 71/71/71 72/72/72 76/76/76 75/75/75 
f 78/78/78 77/77/77 73/73/73 74/74/74 
f 75/75/75 76/76/76 80/80/80 79/79/79 
f 82/82/82 81/81/81 77/77/77 78/78/78 
f 85/85/85 80/80/80 84/84/84 83/83/83 
f 87/87/87 86/86/86 81/81/81 82/82/82 
f 83/83/83 84/84/84 89/89/89 88/88/88 
f 91/91/91 90/90/90 86/86/86 87/87/87 
f 95/95/95 94/94/94 93/93/93 92/92/92 
f 97/97/97 96/96/96 90/90/90 91/91/91 
f 93/93/93 94/94/94 99/99/99 98/98/98 
f 1/1/1 2/2/2 96/96/96 97/97/97 
f 98/98/98 99/99/99 7/7/7 8/8/8 
f 101/101/101 7/7/7 2/2/2 100/100/100 
f 9/9/9 12/12/12 6/6/6 3/3/3 
f 13/13/13 16/16/16 12/12/12 9/9/9 
f 103/103/103 16/16/16 13/13/13 102/102/102 
f 21/21/21 24/24/24 20/20/20 17/17/17 
f 25/25/25 28/28/28 24/24/24 21/21/21 
f 29/29/29 32/32/32 28/28/28 25/25/25 
f 33/33/33 36/36/36 32/32/32 29/29/29 
f 37/37/37 40/40/40 36/36/36 33/33/33 
f 41/41/41 44/44/44 40/40/40 37/37/37 
f 45/45/45 48/48/48 44/44/44 41/41/41 
f 49/49/49 52/52/52 48/48/48 45/45/45 
f 53/53/53 56/56/56 52/52/52 49/49/49 
f 105/105/105 56/56/56 53/53/53 104/104/104 
f 61/61/61 64/64/64 60/60/60 57/57/57 
f 65/65/65 68/68/68 64/64/64 61/61/61 
f 107/107/107 68/68/68 65/65/65 106/106/106 
f 73/73/73 76/76/76 72/72/72 69/69/69 
f 77/77/77 80/80/80 76/76/76 73/73/73 
f 81/81/81 84/84/84 80/80/80 77/77/77 
f 86/86/86 89/89/89 84/84/84 81/81/81 
f 90/90/90 94/94/94 89/89/89 86/86/86 
f 96/96/96 99/99/99 94/94/94 90/90/90 
f 2/2/2 7/7/7 99/99/99 96/96/96 
f 109/109/109 8/8/8 5/5/5 108/108/108 
f 110/110/110 98/98/98 8/8/8 109/109/109 
f 111/111/111 93/93/93 98/98/98 110/110/110 
f 113/113/113 112/112/112 93/93/93 111/111/111 
f 115/115/115 114/114/114 112/112/112 113/113/113 
f 116/116/116 79/79/79 114/114/114 115/115/115 
f 117/117/117 75/75/75 79/79/79 116/116/116 
f 118/118/118 71/71/71 75/75/75 117/117/117 
f 119/119/119 67/67/67 71/71/71 118/118/118 
f 120/120/120 63/63/63 67/67/67 119/119/119 
f 121/121/121 59/59/59 63/63/63 120/120/120 
f 122/122/122 55/55/55 59/59/59 121/121/121 
f 123/123/123 51/51/51 55/55/55 122/122/122 
f 124/124/124 47/47/47 51/51/51 123/123/123 
f 125/125/125 43/43/43 47/47/47 124/124/124 
f 126/126/126 39/39/39 43/43/43 125/125/125 
f 127/127/127 35/35/35 39/39/39 126/126/126 
f 128/128/128 31/31/31 35/35/35 127/127/127 
f 129/129/129 27/27/27 31/31/31 128/128/128 
f 130/130/130 23/23/23 27/27/27 129/129/129 
f 131/131/131 19/19/19 23/23/23 130/130/130 
f 132/132/132 15/15/15 19/19/19 131/131/131 
f 133/133/133 11/11/11 15/15/15 132/132/132 
f 108/108/108 5/5/5 11/11/11 133/133/133 
f 135/135/135 109/109/109 108/108/108 134/134/134 
f 136/136/136 110/110/110 109/109/109 135/135/135 
f 137/137/137 111/111/111 110/110/110 136/136/136 
f 138/138/138 113/113/113 111/111/111 137/137/137 
f 139/139/139 115/115/115 113/113/113 138/138/138 
f 140/140/140 116/116/116 115/115/115 139/139/139 
f 141/141/141 117/117/117 116/116/116 140/140/140 
f 142/142/142 118/118/118 117/117/117 141/141/141 
f 143/143/143 119/119/119 118/118/118 142/142/142 
f 144/144/144 120/120/120 119/119/119 143/143/143 
f 145/145/145 121/121/121 120/120/120 144/144/144 
f 146/146/146 122/122/122 121/121/121 145/145/145 
f 147/147/147 123/123/123 122/122/122 146/146/146 
f 148/148/148 124/124/124 123/123/123 147/147/147 
f 149/149/149 125/125/125 124/124/124 148/148/148 
f 150/150/150 126/126/126 125/125/125 149/149/149 
f 151/151/151 127/127/127 126/126/126 150/150/150 
f 152/152/152 128/128/128 127/127/127 151/151/151 
f 153/153/153 129/129/129 128/128/128 152/152/152 
f 154/154/154 130/130/130 129/129/129 153/153/153 
f 155/155/155 131/131/131 130/130/130 154/154/154 
f 156/156/156 132/132/132 131/131/131 155/155/155 
f 157/157/157 133/133/133 132/132/132 156/156/156 
f 134/134/134 108/108/108 133/133/133 157/157/157 
f 159/159/159 135/135/135 134/134/134 158/158/158 
f 160/160/160 136/136/136 135/135/135 159/159/159 
f 161/161/161 137/137/137 136/136/136 160/160/160 
f 162/162/162 138/138/138 137/137/137 161/161/161 
f 164/164/164 138/138/138 162/162/162 163/163/163 
f 166/166/166 140/140/140 139/139/139 165/165/165 
f 167/167/167 141/141/141 140/140/140 166/166/166 
f 168/168/168 142/142/142 141/141/141 167/167/167 
f 169/169/169 143/143/143 142/142/142 168/168/168 
f 171/171/171 143/143/143 169/169/169 170/170/170 
f 173/173/173 145/145/145 144/144/144 172/172/172 
f 174/174/174 146/146/146 145/145/145 173/173/173 
f 175/175/175 147/147/147 146/146/146 174/174/174 
f 176/176/176 148/148/148 147/147/147 175/175/175 
f 177/177/177 149/149/149 148/148/148 176/176/176 
f 178/178/178 150/150/150 149/149/149 177/177/177 
f 179/179/179 151/151/151 150/150/150 178/178/178 
f 180/180/180 152/152/152 151/151/151 179/179/179 
f 181/181/181 153/153/153 152/152/152 180/180/180 
f 182/182/182 154/154/154 153/153/153 181/181/181 
f 183/183/183 155/155/155 154/154/154 182/182/182 
f 184/184/184 156/156/156 155/155/155 183/183/183 
f 185/185/185 157/157/157 156/156/156 184/184/184 
f 187/187/187 157/157/157 185/185/185 186/186/186 
f 158/158/158 188/188/188 159/159/159 
f 159/159/159 188/188/188 160/160/160 
f 160/160/160 188/188/188 161/161/161 
f 161/161/161 188/188/188 162/162/162 
f 162/162/162 188/188/188 165/165/165 
f 165/165/165 188/188/188 166/166/166 
f 166/166/166 188/188/188 167/167/167 
f 167/167/167 188/188/188 168/168/168 
f 168/168/168 188/188/188 169/169/169 
f 169/169/169 188/188/188 172/172/172 
f 172/172/172 188/188/188 173/173/173 
f 173/173/173 188/188/188 174/174/174 
f 174/174/174 188/188/188 175/175/175 
f 175/175/175 188/188/188 176/176/176 
f 176/176/176 188/188/188 177/177/177 
f 177/177/177 188/188/188 178/178/178 
f 178/178/178 188/188/188 179/179/179 
f 179/179/179 188/188/188 180/180/180 
f 180/180/180 188/188/188 181/181/181 
f 181/181/181 188/188/188 182/182/182 
f 182/182/182 188/188/188 183/183/183 
f 183/183/183 188/188/188 184/184/184 
f 184/184/184 188/188/188 185/185/185 
f 185/185/185 188/188/188 158/158/158 
f 190/190/190 4/4/4 1/1/1 189/189/189 
f 191/191/191 10/10/10 4/4/4 190/190/190 
f 192/192/192 14/14/14 10/10/10 191/191/191 
f 193/193/193 18/18/18 14/14/14 192/192/192 
f 194/194/194 22/22/22 18/18/18 193/193/193 
f 195/195/195 26/26/26 22/22/22 194/194/194 
f 196/196/196 30/30/30 26/26/26 195/195/195 
f 197/197/197 34/34/34 30/30/30 196/196/196 
f 198/198/198 38/38/38 34/34/34 197/197/197 
f 199/199/199 42/42/42 38/38/38 198/198/198 
f 200/200/200 46/46/46 42/42/42 199/199/199 
f 201/201/201 50/50/50 46/46/46 200/200/200 
f 202/202/202 54/54/54 50/50/50 201/201/201 
f 203/203/203 58/58/58 54/54/54 202/202/202 
f 204/204/204 62/62/62 58/58/58 203/203/203 
f 205/205/205 66/66/66 62/62/62 204/204/204 
f 206/206/206 70/70/70 66/66/66 205/205/205 
f 207/207/207 74/74/74 70/70/70 206/206/206 
f 208/208/208 78/78/78 74/74/74 207/207/207 
f 209/209/209 82/82/82 78/78/78 208/208/208 
f 210/210/210 87/87/87 82/82/82 209/209/209 
f 211/211/211 91/91/91 87/87/87 210/210/210 
f 212/212/212 97/97/97 91/91/91 211/211/211 
f 189/189/189 1/1/1 97/97/97 212/212/212 
f 213/213/213 190/190/190 189/189/189 
f 213/213/213 191/191/191 190/190/190 
f 213/213/213 192/192/192 191/191/191 
f 213/213/213 193/193/193 192/192/192 
f 213/213/213 194/194/194 193/193/193 
f 213/213/213 195/195/195 194/194/194 
f 213/213/213 196/196/196 195/195/195 
f 213/213/213 197/197/197 196/196/196 
f 213/213/213 198/198/198 197/197/197 
f 213/213/213 199/199/199 198/198/198 
f 213/213/213 200/200/200 199/199/199 
f 213/213/213 201/201/201 200/200/200 
f 213/213/213 202/202/202 201/201/201 
f 213/213/213 203/203/203 202/202/202 
f 213/213/213 204/204/204 203/203/203 
f 213/213/213 205/205/205 204/204/204 
f 213/213/213 206/206/206 205/205/205 
f 213/213/213 207/207/207 206/206/206 
f 213/213/213 208/208/208 207/207/207 
f 213/213/213 209/209/209 208/208/208 
f 213/213/213 210/210/210 209/209/209 
f 213/213/213 211/211/211 210/210/210 
f 213/213/213 212/212/212 211/211/211 
f 213/213/213 189/189/189 212/212/212 
f 214/214/214 20/20/20 16/16/16 103/103/103 
f 215/215/215 17/17/17 20/20/20 214/214/214 
f 102/102/102 13/13/13 17/17/17 215/215/215 
f 217/217/217 103/103/103 102/102/102 216/216/216 
f 218/218/218 214/214/214 103/103/103 217/217/217 
f 219/219/219 215/215/215 214/214/214 218/218/218 
f 216/216/216 102/102/102 215/215/215 219/219/219 
f 219/219/219 218/218/218 217/217/217 216/216/216 
f 220/220/220 6/6/6 7/7/7 101/101/101 
f 221/221/221 3/3/3 6/6/6 220/220/220 
f 100/100/100 2/2/2 3/3/3 221/221/221 
f 223/223/223 101/101/101 100/100/100 222/222/222 
f 224/224/224 220/220/220 101/101/101 223/223/223 
f 225/225/225 221/221/221 220/220/220 224/224/224 
f 222/222/222 100/100/100 221/221/221 225/225/225 
f 225/225/225 224/224/224 223/223/223 222/222/222 
f 226/226/226 72/72/72 68/68/68 107/107/107 
f 227/227/227 69/69/69 72/72/72 226/226/226 
f 106/106/106 65/65/65 69/69/69 227/227/227 
f 229/229/229 107/107/107 106/106/106 228/228/228 
f 230/230/230 226/226/226 107/107/107 229/229/229 
f 231/231/231 227/227/227 226/226/226 230/230/230 
f 228/228/228 106/106/106 227/227/227 231/231/231 
f 231/231/231 230/230/230 229/229/229 228/228/228 
f 232/232/232 79/79/79 80/80/80 85/85/85 
f 233/233/233 114/114/114 79/79/79 232/232/232 
f 232/232/232 85/85/85 83/83/83 233/233/233 
f 234/234/234 112/112/112 114/114/114 233/233/233 
f 233/233/233 83/83/83 88/88/88 234/234/234 
f 88/88/88 89/89/89 94/94/94 95/95/95 
f 92/92/92 93/93/93 112/112/112 234/234/234 
f 234/234/234 88/88/88 95/95/95 92/92/92 
f 235/235/235 60/60/60 56/56/56 105/105/105 
f 236/236/236 57/57/57 60/60/60 235/235/235 
f 104/104/104 53/53/53 57/57/57 236/236/236 
f 238/238/238 105/105/105 104/104/104 237/237/237 
f 239/239/239 235/235/235 105/105/105 238/238/238 
f 240/240/240 236/236/236 235/235/235 239/239/239 
f 237/237/237 104/104/104 236/236/236 240/240/240 
f 242/242/242 238/238/238 237/237/237 241/241/241 
f 243/243/243 239/239/239 238/238/238 242/242/242 
f 244/244/244 240/240/240 239/239/239 243/243/243 
f 241/241/241 237/237/237 240/240/240 244/244/244 
f 244/244/244 243/243/243 242/242/242 241/241/241 
f 245/245/245 139/139/139 138/138/138 164/164/164 
f 246/246/246 165/165/165 139/139/139 245/245/245 
f 163/163/163 162/162/162 165/165/165 246/246/246 
f 246/246/246 245/245/245 164/164/164 163/163/163 
f 247/247/247 144/144/144 143/143/143 171/171/171 
f 248/248/248 172/172/172 144/144/144 247/247/247 
f 170/170/170 169/169/169 172/172/172 248/248/248 
f 248/248/248 247/247/247 171/171/171 170/170/170 
f 249/249/249 134/134/134 157/157/157 187/187/187 
f 250/250/250 158/158/158 134/134/134 249/249/249 
f 186/186/186 185/185/185 158/158/158 250/250/250 
f 250/250/250 249/249/249 187/187/187 186/186/186 

g s.0018
usemap Standard_000000
usemtl Standard_000000
v 0.3134605 0.07314537 0.09468827
v 0.2926813 -0.01107597 0.0255233
v 0.2955933 -0.01140222 0.02524294
v 0.316276 0.0723563 0.09502774
v 0.292918 -0.01847023 0.0360513
v 0.2957383 -0.0191258 0.03552068
v 0.3054443 0.05582578 0.1209158
v 0.3082598 0.0550367 0.1212552
v 0.3085353 0.08225866 0.129931
v 0.3169739 0.09007556 0.1189037
v 0.3181407 0.08929031 0.11924
v 0.3097022 0.08147344 0.1302674

vn -0.4402389 0.7018176 -0.5600373
vn -0.6689952 -0.03444035 -0.7424684
vn 0.4659952 -0.1586241 -0.870452
vn 0.8513901 0.3050487 -0.4267086
vn -0.6914775 -0.7105635 0.130224
vn 0.4623447 -0.8856587 -0.04296433
vn -0.8026292 -0.2451836 0.5437567
vn 0.4716513 -0.5316347 0.703498
vn -0.6877991 0.5106549 0.515911
vn -0.05329388 0.9966958 -0.0612968
vn 0.8916596 0.3837322 0.240193
vn 0.2888275 0.03669986 0.9566775

vt 0.7981308 0.7378122
vt 0.05057919 0.3662716
vt 0.05057919 0.5286489
vt 0.8030541 1
vt 4.386902E-05 0.3667176
vt 5.960464E-08 0.5316088
vt 0.9958892 0
vt 1 0.2378637
vt 0.9159666 0.1059428
vt 0.8620008 0.5861527
vt 0.865012 0.6551423
vt 0.9191085 0.1732172

usemap Standard_000000
usemtl Standard_000000
f 254/254/254 253/253/253 252/252/252 251/251/251 
f 253/253/253 256/256/256 255/255/255 252/252/252 
f 256/256/256 258/258/258 257/257/257 255/255/255 
f 260/260/260 251/251/251 257/257/257 259/259/259 
f 258/258/258 256/256/256 253/253/253 254/254/254 
f 251/251/251 252/252/252 255/255/255 257/257/257 
f 261/261/261 254/254/254 251/251/251 260/260/260 
f 262/262/262 258/258/258 254/254/254 261/261/261 
f 259/259/259 257/257/257 258/258/258 262/262/262 
f 262/262/262 261/261/261 260/260/260 259/259/259 

g s.0019
usemap Standard_000000
usemtl Standard_000000
v 0.3140675 0.001358069 -0.09949422
v 0.293012 -0.02368596 0.006516516
v 0.295922 -0.02371514 0.006958921
v 0.3168598 0.002087058 -0.09891388
v 0.292896 -0.01096634 0.008457594
v 0.2957128 -0.01107565 0.009305455
v 0.3051975 0.03232887 -0.0957201
v 0.3079898 0.03305785 -0.09513976
v 0.3086271 0.02873384 -0.1233759
v 0.3174331 0.01560819 -0.1253973
v 0.3185775 0.01628912 -0.1248334
v 0.3097714 0.02941478 -0.122812

vn -0.4152697 -0.8250182 -0.3832702
vn -0.6547564 -0.6671522 0.3552493
vn 0.4798893 -0.6966009 0.5333417
vn 0.8654577 -0.4951958 -0.07592253
vn -0.707697 0.4141862 0.5723765
vn 0.4456683 0.367387 0.8163373
vn -0.8178535 0.5746787 -0.02932963
vn 0.4471714 0.8786592 0.1673192
vn -0.6877148 0.2168214 -0.6928468
vn -0.032543 -0.499302 -0.8658167
vn 0.8940894 0.06803732 -0.4426908
vn 0.2705519 0.8479187 -0.4558899

vt 0.7981308 0.7378122
vt 0.05057919 0.3662716
vt 0.05057919 0.5286489
vt 0.8030541 1
vt 4.386902E-05 0.3667176
vt 5.960464E-08 0.5316088
vt 0.9958892 0
vt 1 0.2378637
vt 0.9159666 0.1059428
vt 0.8620008 0.5861527
vt 0.865012 0.6551423
vt 0.9191085 0.1732172

usemap Standard_000000
usemtl Standard_000000
f 266/266/266 265/265/265 264/264/264 263/263/263 
f 265/265/265 268/268/268 267/267/267 264/264/264 
f 268/268/268 270/270/270 269/269/269 267/267/267 
f 272/272/272 263/263/263 269/269/269 271/271/271 
f 270/270/270 268/268/268 265/265/265 266/266/266 
f 263/263/263 264/264/264 267/267/267 269/269/269 
f 273/273/273 266/266/266 263/263/263 272/272/272 
f 274/274/274 270/270/270 266/266/266 273/273/273 
f 271/271/271 269/269/269 270/270/270 274/274/274 
f 274/274/274 273/273/273 272/272/272 271/271/271 

g s.0020
usemap Standard_000000
usemtl Standard_000000
v 0.3133304 -0.1230469 0.09851851
v 0.2924589 -0.03482287 0.03456765
v 0.295336 -0.03421164 0.03468521
v 0.3162268 -0.122904 0.09801315
v 0.2945997 -0.04274889 0.02465983
v 0.2973872 -0.04181287 0.02452052
v 0.3100519 -0.1438466 0.07384596
v 0.3129483 -0.1437036 0.0733406
v 0.3117304 -0.1597132 0.09697514
v 0.3180718 -0.150684 0.108472
v 0.319337 -0.1506811 0.1077718
v 0.3129957 -0.1597103 0.09627495

vn -0.5651395 0.2969881 0.7696853
vn -0.7449659 0.6610845 0.08940403
vn 0.3739451 0.9163324 0.1431786
vn 0.7641851 0.3938383 0.510796
vn -0.6033379 0.01844433 -0.7972723
vn 0.5336056 0.3329665 -0.7774307
vn -0.7078221 -0.5184354 -0.4798047
vn 0.5972871 -0.4797035 -0.6427541
vn -0.6669704 -0.6971527 0.2629229
vn -0.1514436 -0.2298246 0.9613768
vn 0.8745159 -0.2618167 0.4082573
vn 0.3937715 -0.8989678 -0.1918355

vt 0.7981308 0.7378122
vt 0.05057919 0.3662716
vt 0.05057919 0.5286489
vt 0.8030541 1
vt 4.386902E-05 0.3667176
vt 5.960464E-08 0.5316088
vt 0.9958892 0
vt 1 0.2378637
vt 0.9159666 0.1059428
vt 0.8620008 0.5861527
vt 0.865012 0.6551423
vt 0.9191085 0.1732172

usemap Standard_000000
usemtl Standard_000000
f 278/278/278 277/277/277 276/276/276 275/275/275 
f 277/277/277 280/280/280 279/279/279 276/276/276 
f 280/280/280 282/282/282 281/281/281 279/279/279 
f 284/284/284 275/275/275 281/281/281 283/283/283 
f 282/282/282 280/280/280 277/277/277 278/278/278 
f 275/275/275 276/276/276 279/279/279 281/281/281 
f 285/285/285 278/278/278 275/275/275 284/284/284 
f 286/286/286 282/282/282 278/278/278 285/285/285 
f 283/283/283 281/281/281 282/282/282 286/286/286 
f 286/286/286 285/285/285 284/284/284 283/283/283 

g s.0022
usemap Standard_7FACA2
usemtl Standard_7FACA2
v -0.08794701 0.05721569 0.106072
v -0.05140612 0.05857974 0.07859758
v -0.05614849 0.05836972 0.07645933
v -0.09149008 0.05707094 0.1029344
v -0.07365681 0.1230704 0.04962263
v -0.07493103 0.1198617 0.06667177
v -0.0481828 0.06511578 0.03706143
v -0.1035091 0.06942974 -0.01893796
v -0.06646978 0.06800415 0.001522053
v -0.06161988 0.06805472 0.0008184202
v -0.1009265 0.07036249 -0.02299748
v -0.04331936 0.06518868 0.03646086
v -0.06985226 0.120996 0.06781584
v -0.06905131 0.1239883 0.04833897
v -0.08812543 0.1171653 0.08134902
v -0.08473726 0.1172152 0.08402875
v -0.07543284 0.1246798 0.03032546
v -0.09391131 0.1249957 0.01913789
v -0.0798483 0.1235917 0.03215268
v -0.09530366 0.1231992 0.02347988

vn -0.03959961 -0.4551227 0.8895478
vn 0.7474473 -0.5151248 0.4194865
vn -0.3329162 -0.8870681 -0.319808
vn -0.8308828 -0.5470736 0.101707
vn -0.8234019 0.5408943 0.1715892
vn -0.7968239 0.5625026 -0.2205956
vn -0.4565074 -0.8884779 -0.04698822
vn -0.8299032 -0.5533389 -0.07125204
vn -0.3165095 -0.9137262 0.2548063
vn 0.628848 -0.4320894 -0.6464124
vn -0.2044026 -0.2320598 -0.9509826
vn 0.8742194 -0.4493334 -0.1839565
vn 0.5109576 0.7958398 0.3249024
vn 0.5136936 0.8579416 0.007425277
vn -0.8440679 0.5338395 -0.05064313
vn 0.04910913 0.6659969 0.7443362
vn 0.4313919 0.855106 -0.287567
vn -0.3243741 0.8481495 -0.4188364
vn -0.6733733 0.5086417 0.5365185
vn -0.7654565 0.2987925 0.5699117

vt 0.4585193 0.1981473
vt 0.5827327 0.1126921
vt 0.5695002 0.08956635
vt 0.447826 0.1899949
vt 0.2784462 1
vt 0.4674371 0.797345
vt 0.7877545 0
vt 0.04749072 0.167924
vt 1 0.08257461
vt 0.981006 0.09137428
vt 0.03739008 0.176223
vt 0.7869176 0.03888297
vt 0.5138637 0.797612
vt 0.8142608 0.989629
vt 0.4190398 0.6465362
vt 0.4378753 0.6437602
vt 0 0.785081
vt 0.07483903 0.6359038
vt 0.04285744 0.7841674
vt 0.09344813 0.6422107

usemap Standard_7FACA2
usemtl Standard_7FACA2
f 290/290/290 289/289/289 288/288/288 287/287/287 
f 293/293/293 289/289/289 292/292/292 291/291/291 
f 297/297/297 296/296/296 295/295/295 294/294/294 
f 300/300/300 299/299/299 288/288/288 298/298/298 
f 291/291/291 292/292/292 299/299/299 300/300/300 
f 298/298/298 288/288/288 289/289/289 293/293/293 
f 301/301/301 292/292/292 289/289/289 290/290/290 
f 302/302/302 299/299/299 292/292/292 301/301/301 
f 287/287/287 288/288/288 299/299/299 302/302/302 
f 302/302/302 301/301/301 290/290/290 287/287/287 
f 304/304/304 303/303/303 296/296/296 297/297/297 
f 306/306/306 305/305/305 303/303/303 304/304/304 
f 294/294/294 295/295/295 305/305/305 306/306/306 
f 306/306/306 304/304/304 297/297/297 294/294/294 
f 295/295/295 296/296/296 298/298/298 293/293/293 
f 296/296/296 303/303/303 300/300/300 298/298/298 
f 303/303/303 305/305/305 291/291/291 300/300/300 
f 305/305/305 295/295/295 293/293/293 291/291/291 
