# Object Export From Tinkercad Server 2015

mtllib obj.mtl

o obj_0
v -17.375 		-1.094 		0
v -18.495 		-4.959 		0
v -18.495 		-4.959 		1
v -17.375 		-1.094 		1
v -18.98 		-8.953 		0
v -18.98 		-8.953 		1
v -1.033 		-31.026 		0
v -1.033 		-31.026 		1
v -4.321 		-29.625 		0
v -4.321 		-29.625 		1
v -7.342 		-27.715 		0
v -7.342 		-27.715 		1
v -10.018 		-25.345 		0
v -10.018 		-25.345 		1
v -12.278 		-22.576 		1
v -12.278 		-22.576 		0
v -5.618 		-32.096 		0
v -5.618 		-32.096 		1
v -14.066 		-19.481 		1
v -14.066 		-19.481 		0
v -9.019 		-29.946 		0
v -9.019 		-29.946 		1
v -18.013 		-16.915 		0
v -18.013 		-16.915 		1
v -16.586 		-20.677 		0
v -16.586 		-20.677 		1
v -14.575 		-24.161 		0
v -14.575 		-24.161 		1
v -12.03 		-27.278 		0
v -12.03 		-27.278 		1
v -1.917 		-33.673 		0
v -1.917 		-33.673 		1
v 17.87 		8.812 		0
v 9.563 		-31.882 		0
v 13.033 		-31.026 		0
v 20.728 		6.665 		0
v 6 		-32.169 		0
v 23.204 		4.087 		0
v 19.362 		11.17 		0
v 25.234 		1.146 		0
v -13.234 		1.146 		1
v -11.204 		4.087 		1
v 22.578 		8.753 		0
v 25.365 		5.852 		0
v 27.651 		2.541 		0
v -8.728 		6.665 		1
v 0.685 		11.605 		0
v -15.651 		2.541 		1
v 4.213 		12.178 		0
v -5.87 		8.812 		1
v 7.787 		12.178 		0
v -13.365 		5.852 		1
v -2.706 		10.473 		1
v 0.017 		14.314 		0
v 11.315 		11.605 		0
v 14.706 		10.473 		0
v -3.799 		13.04 		1
v 3.988 		14.959 		0
v -7.362 		11.17 		1
v -10.578 		8.753 		1
v 8.012 		14.959 		0
v 11.983 		14.314 		0
v 15.799 		13.04 		0
v -15.333 		-16.139 		1
v -16.048 		-12.637 		1
v 26.767 		-2.084 		0
v -16.192 		-9.065 		1
v 27.761 		-5.517 		0
v 28.192 		-9.065 		0
v -15.761 		-5.517 		1
v -18.818 		-12.973 		1
v 29.375 		-1.094 		0
v 28.048 		-12.637 		0
v 30.495 		-4.959 		0
v 27.333 		-16.139 		0
v 25.234 		1.146 		1
v 30.98 		-8.953 		0
v 30.818 		-12.973 		0
v 27.651 		2.541 		1
v 25.365 		5.852 		1
v 22.578 		8.753 		1
v 20.728 		6.665 		1
v 23.204 		4.087 		1
v 0.685 		11.605 		1
v 19.362 		11.17 		1
v 4.213 		12.178 		1
v 7.787 		12.178 		1
v 11.315 		11.605 		1
v 0.017 		14.314 		1
v 14.706 		10.473 		1
v 3.988 		14.959 		1
v 15.799 		13.04 		1
v 11.983 		14.314 		1
v 8.012 		14.959 		1
v 26.767 		-2.084 		1
v 27.761 		-5.517 		1
v 28.192 		-9.065 		1
v 28.048 		-12.637 		1
v 29.375 		-1.094 		1
v 30.495 		-4.959 		1
v 27.333 		-16.139 		1
v 30.98 		-8.953 		1
v 30.818 		-12.973 		1
v 26.066 		-19.481 		1
v 24.278 		-22.576 		1
v 30.013 		-16.915 		1
v 22.018 		-25.345 		1
v 28.586 		-20.677 		1
v 19.342 		-27.715 		1
v 24.03 		-27.278 		1
v 26.575 		-24.161 		1
v 17.618 		-32.096 		1
v 21.019 		-29.946 		1
v 6 		-32.169 		1
v 2.437 		-31.882 		1
v 26.066 		-19.481 		0
v 24.278 		-22.576 		0
v 1.99 		-34.636 		0
v 1.99 		-34.636 		1
v 22.018 		-25.345 		0
v 6 		-34.959 		0
v 6 		-34.959 		1
v 30.013 		-16.915 		0
v -13.234 		1.146 		0
v -11.204 		4.087 		0
v 19.342 		-27.715 		0
v -8.728 		6.665 		0
v 28.586 		-20.677 		0
v -5.87 		8.812 		0
v -15.651 		2.541 		0
v 17.618 		-32.096 		0
v -2.706 		10.473 		0
v 21.019 		-29.946 		0
v -13.365 		5.852 		0
v 24.03 		-27.278 		0
v 26.575 		-24.161 		0
v -3.799 		13.04 		0
v -7.362 		11.17 		0
v 2.437 		-31.882 		0
v -10.578 		8.753 		0
v 16.321 		-29.625 		0
v 16.321 		-29.625 		1
v -15.333 		-16.139 		0
v 13.033 		-31.026 		1
v -16.048 		-12.637 		0
v 9.563 		-31.882 		1
v -16.192 		-9.065 		0
v -15.761 		-5.517 		0
v 10.01 		-34.636 		0
v 10.01 		-34.636 		1
v -14.767 		-2.084 		1
v -14.767 		-2.084 		0
v 13.917 		-33.673 		0
v 13.917 		-33.673 		1
v -18.818 		-12.973 		0
v 17.87 		8.812 		1
# 156 vertices

g group_0_16089887

usemtl color_16089887
s 0

f 1 	2 	3
f 1 	3 	4
f 2 	5 	6
f 2 	6 	3
f 139 	7 	8
f 8 	7 	9
f 8 	9 	10
f 10 	9 	11
f 10 	11 	12
f 12 	11 	13
f 12 	13 	14
f 15 	14 	13
f 15 	13 	16
f 32 	18 	17
f 19 	15 	16
f 19 	16 	20
f 21 	17 	22
f 18 	22 	17
f 23 	25 	26
f 23 	26 	24
f 25 	27 	28
f 25 	28 	26
f 27 	29 	30
f 27 	30 	28
f 29 	21 	30
f 22 	30 	21
f 31 	32 	17
f 32 	31 	118
f 36 	33 	39
f 43 	44 	36
f 39 	43 	36
f 42 	48 	41
f 45 	38 	44
f 38 	36 	44
f 40 	38 	45
f 46 	52 	42
f 50 	59 	46
f 48 	42 	52
f 60 	52 	46
f 51 	49 	58
f 49 	47 	58
f 54 	58 	47
f 58 	61 	51
f 55 	51 	61
f 60 	46 	59
f 50 	53 	59
f 57 	59 	53
f 53 	84 	57
f 39 	56 	63
f 56 	55 	63
f 33 	56 	39
f 62 	63 	55
f 61 	62 	55
f 67 	71 	65
f 45 	66 	40
f 45 	72 	66
f 70 	3 	67
f 65 	71 	24
f 69 	68 	74
f 68 	66 	74
f 72 	74 	66
f 77 	78 	69
f 74 	77 	69
f 66 	76 	40
f 78 	123 	73
f 73 	69 	78
f 45 	44 	80
f 45 	80 	79
f 43 	81 	80
f 43 	80 	44
f 43 	39 	81
f 83 	80 	82
f 84 	53 	47
f 86 	84 	47
f 86 	47 	49
f 85 	82 	81
f 76 	79 	83
f 87 	86 	49
f 87 	49 	51
f 88 	87 	51
f 88 	51 	55
f 81 	82 	80
f 80 	83 	79
f 54 	57 	89
f 86 	91 	84
f 90 	88 	55
f 90 	55 	56
f 87 	91 	86
f 58 	54 	89
f 58 	89 	91
f 57 	84 	89
f 88 	94 	87
f 90 	56 	33
f 39 	63 	92
f 89 	84 	91
f 85 	92 	90
f 63 	62 	93
f 63 	93 	92
f 62 	61 	94
f 62 	94 	93
f 90 	92 	88
f 92 	93 	88
f 94 	88 	93
f 91 	87 	94
f 66 	95 	76
f 96 	100 	95
f 76 	95 	79
f 95 	66 	68
f 95 	68 	96
f 97 	100 	96
f 95 	99 	79
f 96 	68 	69
f 96 	69 	97
f 97 	69 	73
f 97 	73 	98
f 98 	103 	97
f 99 	95 	100
f 101 	106 	98
f 79 	99 	72
f 79 	72 	45
f 100 	97 	102
f 102 	97 	103
f 98 	73 	75
f 98 	75 	101
f 105 	111 	104
f 108 	106 	104
f 99 	100 	74
f 99 	74 	72
f 103 	98 	106
f 101 	104 	106
f 110 	111 	107
f 109 	113 	107
f 108 	104 	111
f 105 	107 	111
f 113 	109 	112
f 110 	107 	113
f 78 	77 	102
f 78 	102 	103
f 100 	102 	77
f 100 	77 	74
f 104 	101 	116
f 75 	116 	101
f 104 	116 	117
f 104 	117 	105
f 32 	118 	119
f 105 	117 	120
f 105 	120 	107
f 121 	122 	119
f 121 	119 	118
f 108 	123 	106
f 41 	152 	124
f 123 	78 	106
f 103 	106 	78
f 42 	41 	124
f 42 	124 	125
f 46 	42 	125
f 46 	125 	127
f 107 	120 	126
f 107 	126 	109
f 130 	4 	48
f 128 	108 	136
f 50 	46 	127
f 50 	127 	129
f 108 	128 	123
f 109 	126 	141
f 53 	50 	129
f 53 	129 	132
f 131 	133 	113
f 131 	113 	112
f 134 	52 	60
f 48 	52 	130
f 134 	130 	52
f 133 	135 	110
f 133 	110 	113
f 136 	111 	110
f 136 	110 	135
f 53 	132 	47
f 108 	111 	136
f 54 	137 	57
f 137 	138 	59
f 137 	59 	57
f 37 	139 	115
f 37 	115 	114
f 138 	140 	60
f 138 	60 	59
f 115 	139 	8
f 140 	134 	60
f 141 	142 	109
f 64 	19 	20
f 64 	20 	143
f 142 	141 	35
f 142 	35 	144
f 65 	64 	143
f 65 	143 	145
f 144 	35 	34
f 144 	34 	146
f 67 	65 	145
f 67 	145 	147
f 146 	34 	37
f 146 	37 	114
f 70 	67 	147
f 70 	147 	148
f 154 	153 	112
f 24 	71 	23
f 155 	23 	71
f 122 	121 	149
f 122 	149 	150
f 151 	70 	148
f 151 	148 	152
f 153 	154 	150
f 153 	150 	149
f 71 	6 	155
f 5 	155 	6
f 131 	112 	153
f 41 	151 	152
f 153 	149 	34
f 34 	35 	153
f 35 	141 	153
f 37 	34 	121
f 130 	1 	4
f 121 	34 	149
f 118 	139 	121
f 124 	152 	130
f 75 	73 	123
f 125 	124 	130
f 127 	125 	134
f 130 	134 	125
f 128 	136 	116
f 123 	128 	116
f 116 	75 	123
f 140 	138 	127
f 134 	140 	127
f 136 	135 	120
f 120 	117 	136
f 117 	116 	136
f 131 	126 	133
f 126 	120 	133
f 141 	126 	131
f 135 	133 	120
f 137 	132 	138
f 54 	47 	137
f 132 	129 	138
f 132 	137 	47
f 129 	127 	138
f 37 	121 	139
f 143 	23 	145
f 131 	153 	141
f 155 	5 	147
f 147 	145 	155
f 148 	147 	2
f 5 	2 	147
f 8 	32 	115
f 130 	152 	1
f 2 	1 	152
f 152 	148 	2
f 144 	154 	142
f 142 	112 	109
f 118 	31 	139
f 146 	154 	144
f 112 	142 	154
f 114 	122 	146
f 119 	122 	115
f 115 	122 	114
f 11 	9 	17
f 154 	146 	150
f 150 	146 	122
f 13 	11 	21
f 17 	21 	11
f 29 	27 	13
f 21 	29 	13
f 143 	20 	23
f 25 	20 	27
f 155 	145 	23
f 16 	13 	27
f 25 	23 	20
f 16 	27 	20
f 7 	31 	9
f 17 	9 	31
f 7 	139 	31
f 91 	61 	58
f 94 	61 	91
f 90 	156 	85
f 82 	85 	156
f 71 	67 	6
f 48 	4 	151
f 41 	48 	151
f 4 	3 	151
f 70 	151 	3
f 6 	67 	3
f 10 	32 	8
f 14 	22 	12
f 12 	18 	10
f 15 	28 	14
f 10 	18 	32
f 18 	12 	22
f 19 	28 	15
f 22 	14 	30
f 30 	14 	28
f 64 	24 	19
f 65 	24 	64
f 26 	19 	24
f 28 	19 	26
f 119 	115 	32
f 156 	90 	33
f 82 	156 	33
f 82 	33 	36
f 82 	36 	38
f 82 	38 	83
f 39 	92 	85
f 83 	38 	40
f 83 	40 	76
f 39 	85 	81
# 312 faces

 #end of obj_0

