
mtllib ./ship.obj.mtl

g s.0017
usemap Standard_4E3120
usemtl Standard_4E3120
v 0.1715976 0.002548378 -0.03302228
v 0.08412483 -0.02605295 -0.02592306
v 0.08451255 -0.002884481 0.08117231
v 0.1716435 0.02025035 0.04292144
v -0.08732294 -0.003659189 0.09191354
v -0.08798134 0.07279986 0.08689512
v 0.08385414 0.07357445 0.0761539
v -0.1847548 0.007270925 0.05679476
v -0.07793829 -0.04398891 -0.01519637
v -0.1863581 -0.007078059 -0.01140556
v 0.07548368 0.06294245 -0.03157704
v -0.1014967 0.05781278 -0.02086379
v 0.1683068 0.08026656 0.04127523
v 0.1643539 0.07541141 -0.03764153
v 0.2294264 0.04699362 0.01270357
v 0.2259403 0.09437117 0.01100685
v 0.224591 0.04315361 -0.03893434
v 0.2211752 0.09043317 -0.04200687
v 0.2674505 0.06983833 -0.02404314
v 0.2674024 0.1044939 -0.02274919
v 0.2749972 0.07127072 -0.04383065
v 0.2751031 0.1057347 -0.04622224
v -0.1941665 0.07410687 -0.01656786
v -0.1759245 0.07785248 0.0550027
v -0.263105 0.04040773 0.02576198
v -0.2880362 0.04686093 -0.009187832
v -0.2743205 0.0976501 -0.01350585
v -0.2551901 0.0900971 0.02133749
v 0.07188958 -0.01781214 -0.1344988
v 0.1626836 0.009654559 -0.110164
v -0.1000191 -0.01867339 -0.1250078
v -0.1007048 0.05775338 -0.1304927
v 0.07120387 0.05861451 -0.1399837
v -0.1927992 -0.002242301 -0.08064993
v -0.07793825 -0.04398887 -0.01519579
v -0.1863581 -0.007078007 -0.01140477
v -0.1014967 0.05781283 -0.02086304
v 0.1590784 0.06935325 -0.1163975
v 0.2233673 0.03982829 -0.09081927
v 0.2197212 0.08701658 -0.09525047
v 0.2652159 0.06719573 -0.06222278
v 0.2647394 0.1013446 -0.06824833
v -0.1941664 0.07410695 -0.01656686
v -0.1843881 0.06784359 -0.08960328
v -0.2672803 0.03547009 -0.04557587
v -0.2880362 0.04686098 -0.009187073
v -0.2593049 0.08523113 -0.04896489

vn 0.4660622 -0.8841017 0.03391483
vn 0.2163842 -0.9747689 0.05480359
vn 0.2405513 -0.5854717 0.7741822
vn 0.502176 -0.5344941 0.6798055
vn -0.1400333 -0.5231147 0.8406793
vn -0.08953936 0.726521 0.6812856
vn 0.1343378 0.7213793 0.6793859
vn -0.3992879 -0.5850162 0.7059216
vn -0.06361232 -0.9357885 0.3467757
vn -0.380004 -0.9033274 0.1989889
vn -0.08722574 0.9941496 -0.06370474
vn 0.06784999 0.9869877 -0.1457799
vn 0.2030943 0.7323288 0.6499594
vn -0.2015463 0.9778832 -0.05588786
vn 0.6431166 -0.5067871 0.5740802
vn 0.2285277 0.7583107 0.6105244
vn 0.5520021 -0.8334564 0.02537957
vn -0.2674408 0.9622265 -0.05094745
vn 0.8159931 -0.3706942 0.4435551
vn 0.519811 0.7268716 0.4488366
vn 0.9034 -0.4281687 -0.02323957
vn 0.6720656 0.7349766 -0.09020648
vn 0.2287038 0.9673836 -0.1089199
vn -0.1827023 0.7533017 0.6317883
vn -0.6342748 -0.3971003 0.6633301
vn -0.8140605 -0.2077807 0.54234
vn -0.5643257 0.8252007 -0.02409035
vn -0.418323 0.6699115 0.6133714
vn 0.1537364 -0.6881371 -0.7091068
vn 0.4241313 -0.6267886 -0.6536428
vn -0.2324841 -0.632445 -0.7388942
vn -0.1738693 0.6267944 -0.7595382
vn 0.04874888 0.6201635 -0.7829564
vn -0.4738337 -0.6731721 -0.5677332
vn -0.09592243 -0.9739972 -0.2052521
vn -0.3932658 -0.9190105 -0.02759724
vn 0.07638304 0.9970786 1.101941E-05
vn 0.1203669 0.6344967 -0.7634958
vn 0.5761664 -0.5859613 -0.5698085
vn 0.1499976 0.6654417 -0.7312236
vn 0.7619289 -0.4346293 -0.4801686
vn 0.458326 0.6541609 -0.6016734
vn 0.2320214 0.9713073 -0.05223224
vn -0.2608677 0.6608657 -0.7037078
vn -0.7037889 -0.4793058 -0.524354
vn -0.8698263 -0.2737341 -0.4104534
vn -0.4920776 0.5826882 -0.6467876

vt 0.2810236 0.7647178
vt 0.2449869 0.6035856
vt 0.4081669 0.5868079
vt 0.4045949 0.7268065
vt 0.4331648 0.3514079
vt 0.5351121 0.3584813
vt 0.5105548 0.6038391
vt 0.4494944 0.2063178
vt 0.2638055 0.3338919
vt 0.3524772 0.1513425
vt 0.6788604 0.6359317
vt 0.7020539 0.3392623
vt 0.5012633 0.7451567
vt 0.629549 0.7967692
vt 0.4167812 0.8391372
vt 0.4950652 0.8581926
vt 0.3361499 0.8839694
vt 0.578879 0.9060653
vt 0.4272726 0.9429058
vt 0.4856854 0.9560364
vt 0.4131014 0.9802795
vt 0.5 1
vt 0.6705258 0.1728521
vt 0.5607316 0.2217729
vt 0.5052493 0.07260177
vt 0.5 0
vt 0.6173957 0.02927916
vt 0.5774722 0.0823603
vt 0.4081669 0.5868079
vt 0.4045949 0.7268065
vt 0.4331648 0.3514079
vt 0.5351121 0.3584813
vt 0.5105548 0.6038391
vt 0.4494944 0.2063178
vt 0.2638055 0.3338919
vt 0.3524772 0.1513425
vt 0.7020539 0.3392623
vt 0.5012633 0.7451567
vt 0.4167812 0.8391372
vt 0.4950652 0.8581926
vt 0.4272726 0.9429058
vt 0.4856854 0.9560364
vt 0.6705258 0.1728521
vt 0.5607316 0.2217729
vt 0.5052493 0.07260177
vt 0.5 0
vt 0.5774722 0.0823603

usemap Standard_4E3120
usemtl Standard_4E3120
f 4/4/4 3/3/3 2/2/2 1/1/1 
f 7/7/7 6/6/6 5/5/5 3/3/3 
f 10/10/10 9/9/9 5/5/5 8/8/8 
f 12/12/12 6/6/6 7/7/7 11/11/11 
f 2/2/2 3/3/3 5/5/5 9/9/9 
f 13/13/13 7/7/7 3/3/3 4/4/4 
f 14/14/14 11/11/11 7/7/7 13/13/13 
f 16/16/16 13/13/13 4/4/4 15/15/15 
f 15/15/15 4/4/4 1/1/1 17/17/17 
f 18/18/18 14/14/14 13/13/13 16/16/16 
f 20/20/20 16/16/16 15/15/15 19/19/19 
f 19/19/19 15/15/15 17/17/17 21/21/21 
f 22/22/22 18/18/18 16/16/16 20/20/20 
f 22/22/22 20/20/20 19/19/19 21/21/21 
f 24/24/24 6/6/6 12/12/12 23/23/23 
f 8/8/8 5/5/5 6/6/6 24/24/24 
f 26/26/26 10/10/10 8/8/8 25/25/25 
f 28/28/28 24/24/24 23/23/23 27/27/27 
f 25/25/25 8/8/8 24/24/24 28/28/28 
f 28/28/28 27/27/27 26/26/26 25/25/25 
f 45/45/45 46/46/46 27/27/27 47/47/47 
f 47/47/47 44/44/44 34/34/34 45/45/45 
f 27/27/27 43/43/43 44/44/44 47/47/47 
f 45/45/45 34/34/34 36/36/36 46/46/46 
f 44/44/44 32/32/32 31/31/31 34/34/34 
f 43/43/43 37/37/37 32/32/32 44/44/44 
f 21/21/21 41/41/41 42/42/42 22/22/22 
f 42/42/42 40/40/40 18/18/18 22/22/22 
f 21/21/21 17/17/17 39/39/39 41/41/41 
f 41/41/41 39/39/39 40/40/40 42/42/42 
f 40/40/40 38/38/38 14/14/14 18/18/18 
f 17/17/17 1/1/1 30/30/30 39/39/39 
f 39/39/39 30/30/30 38/38/38 40/40/40 
f 38/38/38 33/33/33 11/11/11 14/14/14 
f 30/30/30 29/29/29 33/33/33 38/38/38 
f 35/35/35 31/31/31 29/29/29 2/2/2 
f 11/11/11 33/33/33 32/32/32 37/37/37 
f 34/34/34 31/31/31 35/35/35 36/36/36 
f 29/29/29 31/31/31 32/32/32 33/33/33 
f 1/1/1 2/2/2 29/29/29 30/30/30 

g p.0018
usemap Standard_2D2D2D
usemtl Standard_2D2D2D
v 0.07110552 0.03708994 -0.01800189
v 0.06922742 0.4698963 -0.06808022
v 0.0735168 0.03693381 -0.01944175
v 0.0716387 0.4697401 -0.06952008
v 0.07547107 0.03670965 -0.02145232
v 0.07359298 0.469516 -0.07153065
v 0.07683517 0.03643276 -0.02389657
v 0.07495707 0.4692391 -0.0739749
v 0.07751613 0.03612199 -0.02660794
v 0.07563803 0.4689283 -0.07668627
v 0.07746755 0.03579853 -0.02940165
v 0.07558945 0.4686049 -0.07947998
v 0.07669273 0.03548442 -0.03208732
v 0.07481463 0.4682907 -0.08216565
v 0.07524448 0.03520106 -0.03448192
v 0.07336638 0.4680074 -0.08456025
v 0.0732215 0.03496778 -0.03642226
v 0.07134339 0.4677741 -0.08650059
v 0.07076164 0.03480045 -0.03777611
v 0.06888354 0.4676068 -0.08785444
v 0.06803254 0.03471048 -0.03845121
v 0.06615444 0.4675168 -0.08852954
v 0.06522019 0.03470403 -0.03840156
v 0.06334209 0.4675103 -0.08847988
v 0.06251624 0.03478152 -0.03763052
v 0.06063814 0.4675878 -0.08770885
v 0.06010497 0.03493765 -0.03619066
v 0.05822687 0.467744 -0.08626899
v 0.0581507 0.03516181 -0.0341801
v 0.0562726 0.4679681 -0.08425842
v 0.0567866 0.0354387 -0.03173584
v 0.0549085 0.468245 -0.08181417
v 0.05610564 0.03574947 -0.02902447
v 0.05422753 0.4685558 -0.0791028
v 0.05615422 0.03607292 -0.02623076
v 0.05427612 0.4688792 -0.07630909
v 0.05692904 0.03638704 -0.0235451
v 0.05505094 0.4691933 -0.07362343
v 0.0583773 0.0366704 -0.0211505
v 0.05649919 0.4694767 -0.07122882
v 0.06040028 0.03690368 -0.01921016
v 0.05852217 0.46971 -0.06928849
v 0.06286014 0.037071 -0.01785631
v 0.06098204 0.4698773 -0.06793463
v 0.06558923 0.03716098 -0.0171812
v 0.06371113 0.4699673 -0.06725954
v 0.06840158 0.03716743 -0.01723086
v 0.06652348 0.4699737 -0.06730919
v 0.06681088 0.03593573 -0.02781621
v 0.06493279 0.468742 -0.07789454

vn 0.2955857 -0.5957168 0.7468271
vn 0.2897322 0.7530249 0.5907698
vn 0.4599024 -0.6063567 0.6487075
vn 0.4540507 0.7423826 0.4926519
vn 0.5930781 -0.6216295 0.5116983
vn 0.5872236 0.7271097 0.3556401
vn 0.6860335 -0.6405008 0.3451328
vn 0.6801805 0.7082406 0.189076
vn 0.7324374 -0.6616783 0.1603658
vn 0.7265868 0.6870612 0.004308995
vn 0.7291287 -0.6837183 -0.03001209
vn 0.7232742 0.665021 -0.1860689
vn 0.6763263 -0.7051256 -0.2130272
vn 0.670474 0.643616 -0.369084
vn 0.577635 -0.7244348 -0.3762076
vn 0.5717841 0.6243044 -0.5322658
vn 0.4397797 -0.7403303 -0.5084338
vn 0.4339261 0.6084094 -0.6644894
vn 0.2721506 -0.7517345 -0.6006907
vn 0.2662988 0.597007 -0.7567481
vn 0.08617581 -0.7578645 -0.6466955
vn 0.08032373 0.5908745 -0.8027548
vn -0.1054721 -0.7583026 -0.6433138
vn -0.1113241 0.5904368 -0.7993694
vn -0.2897333 -0.7530247 -0.5907693
vn -0.2955851 0.5957167 -0.7468272
vn -0.4540498 -0.7423847 -0.4926497
vn -0.4599034 0.6063544 -0.6487088
vn -0.5872254 -0.7271077 -0.3556412
vn -0.5930763 0.6216317 -0.5116977
vn -0.6801808 -0.7082404 -0.1890751
vn -0.6860332 0.6405008 -0.3451335
vn -0.7265849 -0.6870632 -0.004308263
vn -0.7324394 0.661676 -0.1603662
vn -0.7232761 -0.6650189 0.1860692
vn -0.7291268 0.6837204 0.03001122
vn -0.6704736 -0.6436158 0.3690851
vn -0.6763266 0.7051255 0.2130267
vn -0.5717822 -0.6243066 0.5322653
vn -0.5776365 0.7244328 0.3762089
vn -0.4339271 -0.608407 0.664491
vn -0.4397789 0.7403322 0.5084317
vn -0.2662979 -0.597007 0.7567484
vn -0.2721514 0.7517344 0.6006904
vn -0.08032291 -0.590877 0.8027532
vn -0.08617616 0.7578626 0.6466977
vn 0.1113248 -0.5904346 0.7993709
vn 0.1054715 0.7583047 0.6433116
vn 0.004310559 -0.9933633 0.1149382
vn -0.004310559 0.9933633 -0.1149382

vt 1 0.5
vt 1 0.5
vt 0.982963 0.6294096
vt 0.982963 0.6294096
vt 0.9330127 0.75
vt 0.9330127 0.75
vt 0.8535534 0.8535534
vt 0.8535534 0.8535534
vt 0.75 0.9330127
vt 0.75 0.9330127
vt 0.6294096 0.9829629
vt 0.6294096 0.9829629
vt 0.5 1
vt 0.5 1
vt 0.3705904 0.982963
vt 0.3705904 0.982963
vt 0.25 0.9330127
vt 0.25 0.9330127
vt 0.1464466 0.8535534
vt 0.1464466 0.8535534
vt 0.06698731 0.75
vt 0.06698731 0.75
vt 0.01703706 0.6294094
vt 0.01703706 0.6294094
vt 0 0.5
vt 0 0.5
vt 0.01703712 0.3705903
vt 0.01703712 0.3705903
vt 0.06698731 0.25
vt 0.06698731 0.25
vt 0.1464467 0.1464466
vt 0.1464467 0.1464466
vt 0.2500001 0.06698728
vt 0.2500001 0.06698728
vt 0.3705905 0.01703706
vt 0.3705905 0.01703706
vt 0.5 0
vt 0.5 0
vt 0.6294097 0.01703712
vt 0.6294097 0.01703712
vt 0.8333333 0
vt 0.8333333 1
vt 0.875 0
vt 0.875 1
vt 0.9166667 0
vt 0.9166667 1
vt 0.9583333 0
vt 0.9583333 1
vt 0.5 0.5
vt 0.5 0.5

usemap Standard_2D2D2D
usemtl Standard_2D2D2D
f 50/50/50 49/49/49 48/48/48 
f 51/51/51 49/49/49 50/50/50 
f 52/52/52 51/51/51 50/50/50 
f 53/53/53 51/51/51 52/52/52 
f 54/54/54 53/53/53 52/52/52 
f 55/55/55 53/53/53 54/54/54 
f 56/56/56 55/55/55 54/54/54 
f 57/57/57 55/55/55 56/56/56 
f 58/58/58 57/57/57 56/56/56 
f 59/59/59 57/57/57 58/58/58 
f 60/60/60 59/59/59 58/58/58 
f 61/61/61 59/59/59 60/60/60 
f 62/62/62 61/61/61 60/60/60 
f 63/63/63 61/61/61 62/62/62 
f 64/64/64 63/63/63 62/62/62 
f 65/65/65 63/63/63 64/64/64 
f 66/66/66 65/65/65 64/64/64 
f 67/67/67 65/65/65 66/66/66 
f 68/68/68 67/67/67 66/66/66 
f 69/69/69 67/67/67 68/68/68 
f 70/70/70 69/69/69 68/68/68 
f 71/71/71 69/69/69 70/70/70 
f 72/72/72 71/71/71 70/70/70 
f 73/73/73 71/71/71 72/72/72 
f 74/74/74 73/73/73 72/72/72 
f 75/75/75 73/73/73 74/74/74 
f 76/76/76 75/75/75 74/74/74 
f 77/77/77 75/75/75 76/76/76 
f 78/78/78 77/77/77 76/76/76 
f 79/79/79 77/77/77 78/78/78 
f 80/80/80 79/79/79 78/78/78 
f 81/81/81 79/79/79 80/80/80 
f 82/82/82 81/81/81 80/80/80 
f 83/83/83 81/81/81 82/82/82 
f 84/84/84 83/83/83 82/82/82 
f 85/85/85 83/83/83 84/84/84 
f 86/86/86 85/85/85 84/84/84 
f 87/87/87 85/85/85 86/86/86 
f 88/88/88 87/87/87 86/86/86 
f 89/89/89 87/87/87 88/88/88 
f 90/90/90 89/89/89 88/88/88 
f 91/91/91 89/89/89 90/90/90 
f 92/92/92 91/91/91 90/90/90 
f 93/93/93 91/91/91 92/92/92 
f 94/94/94 93/93/93 92/92/92 
f 95/95/95 93/93/93 94/94/94 
f 48/48/48 95/95/95 94/94/94 
f 49/49/49 95/95/95 48/48/48 
f 96/96/96 50/50/50 48/48/48 
f 51/51/51 97/97/97 49/49/49 
f 96/96/96 52/52/52 50/50/50 
f 53/53/53 97/97/97 51/51/51 
f 96/96/96 54/54/54 52/52/52 
f 55/55/55 97/97/97 53/53/53 
f 96/96/96 56/56/56 54/54/54 
f 57/57/57 97/97/97 55/55/55 
f 96/96/96 58/58/58 56/56/56 
f 59/59/59 97/97/97 57/57/57 
f 96/96/96 60/60/60 58/58/58 
f 61/61/61 97/97/97 59/59/59 
f 96/96/96 62/62/62 60/60/60 
f 63/63/63 97/97/97 61/61/61 
f 96/96/96 64/64/64 62/62/62 
f 65/65/65 97/97/97 63/63/63 
f 96/96/96 66/66/66 64/64/64 
f 67/67/67 97/97/97 65/65/65 
f 96/96/96 68/68/68 66/66/66 
f 69/69/69 97/97/97 67/67/67 
f 96/96/96 70/70/70 68/68/68 
f 71/71/71 97/97/97 69/69/69 
f 96/96/96 72/72/72 70/70/70 
f 73/73/73 97/97/97 71/71/71 
f 96/96/96 74/74/74 72/72/72 
f 75/75/75 97/97/97 73/73/73 
f 96/96/96 76/76/76 74/74/74 
f 77/77/77 97/97/97 75/75/75 
f 96/96/96 78/78/78 76/76/76 
f 79/79/79 97/97/97 77/77/77 
f 96/96/96 80/80/80 78/78/78 
f 81/81/81 97/97/97 79/79/79 
f 96/96/96 82/82/82 80/80/80 
f 83/83/83 97/97/97 81/81/81 
f 96/96/96 84/84/84 82/82/82 
f 85/85/85 97/97/97 83/83/83 
f 96/96/96 86/86/86 84/84/84 
f 87/87/87 97/97/97 85/85/85 
f 96/96/96 88/88/88 86/86/86 
f 89/89/89 97/97/97 87/87/87 
f 96/96/96 90/90/90 88/88/88 
f 91/91/91 97/97/97 89/89/89 
f 96/96/96 92/92/92 90/90/90 
f 93/93/93 97/97/97 91/91/91 
f 96/96/96 94/94/94 92/92/92 
f 95/95/95 97/97/97 93/93/93 
f 96/96/96 48/48/48 94/94/94 
f 49/49/49 97/97/97 95/95/95 

g s.0020
usemap Standard_2D2D2D
usemtl Standard_2D2D2D
v -0.1035384 0.03890118 -0.08633956
v -0.02780027 0.03576312 -0.08002493
v -0.02431896 0.1116412 -0.08407243
v -0.1000571 0.1147793 -0.09038706
v -0.01470612 0.03947935 -0.02031426
v -0.01003028 0.1149168 -0.02858247
v -0.161262 0.06060636 -0.01446965
v -0.09954943 0.04930583 -0.01667552
v -0.1598368 0.0528036 -0.07905413
v -0.1034621 0.1235263 -0.02434038
v -0.1543479 0.1058617 -0.08073454
v -0.1543462 0.112446 -0.02035569
v -0.09581359 0.05376398 0.05363433
v -0.02118117 0.04849849 0.03991339
v -0.01815705 0.1234969 0.02758139
v -0.09278947 0.1287624 0.04130233
v -0.161262 0.06060638 -0.01446946
v -0.09954942 0.04930586 -0.01667527
v -0.1527273 0.0664825 0.04977009
v -0.1477016 0.1186495 0.03969712

vn -0.1181857 -0.7632331 -0.6352223
vn 0.5004156 -0.6557388 -0.5653236
vn 0.5441373 0.5325047 -0.6483467
vn -0.06404924 0.6352307 -0.769662
vn 0.6730439 -0.7384504 0.04126698
vn 0.7982322 0.592771 -0.1069946
vn -0.8218455 -0.5674746 0.05042352
vn -0.1400634 -0.9780773 0.1541005
vn -0.6892847 -0.5161312 -0.5084242
vn -0.07703948 0.991892 -0.1010702
vn -0.6398851 0.5173293 -0.5682583
vn -0.7450097 0.6663946 -0.02964442
vn -0.03953432 -0.6119052 0.7899424
vn 0.5665041 -0.5285829 0.6321972
vn 0.605268 0.6501217 0.4593392
vn 0.0127478 0.7829909 0.6219025
vn -0.8158401 -0.5559201 0.1592411
vn -0.1446898 -0.9869788 0.07026932
vn -0.6238568 -0.3902453 0.6771346
vn -0.5801839 0.6321967 0.5135309

vt 0.5962928 0.4132253
vt 0.6840998 0.6249309
vt 0.5112441 0.7506721
vt 0.4064391 0.5159111
vt 0.8586917 0.7306924
vt 0.5 1
vt 0.5 0
vt 0.8115505 0.2670092
vt 0.4985131 0.2802882
vt 0.1589326 0.5623375
vt 0.3844071 0.3519971
vt 0.212457 0.2215869
vt 0.5962928 0.4132253
vt 0.6840998 0.6249309
vt 0.5112441 0.7506721
vt 0.4064391 0.5159111
vt 0.5 0
vt 0.8115505 0.2670092
vt 0.4985131 0.2802882
vt 0.3844071 0.3519971

usemap Standard_2D2D2D
usemtl Standard_2D2D2D
f 101/101/101 100/100/100 99/99/99 98/98/98 
f 100/100/100 103/103/103 102/102/102 99/99/99 
f 106/106/106 98/98/98 105/105/105 104/104/104 
f 107/107/107 103/103/103 100/100/100 101/101/101 
f 98/98/98 99/99/99 102/102/102 105/105/105 
f 108/108/108 101/101/101 98/98/98 106/106/106 
f 109/109/109 107/107/107 101/101/101 108/108/108 
f 109/109/109 108/108/108 106/106/106 104/104/104 
f 114/114/114 116/116/116 117/117/117 109/109/109 
f 117/117/117 113/113/113 107/107/107 109/109/109 
f 116/116/116 110/110/110 113/113/113 117/117/117 
f 115/115/115 102/102/102 111/111/111 110/110/110 
f 113/113/113 112/112/112 103/103/103 107/107/107 
f 114/114/114 115/115/115 110/110/110 116/116/116 
f 111/111/111 102/102/102 103/103/103 112/112/112 
f 110/110/110 111/111/111 112/112/112 113/113/113 

g s.0022
usemap Standard_FFFFFF
usemtl Standard_FFFFFF
v 0.01990771 0.09332471 -0.2015808
v 0.03377565 0.09320186 -0.203029
v 0.02941603 0.4165859 -0.1677433
v 0.01555482 0.4172762 -0.1663931
v 0.08456062 0.4572035 -0.06974833
v 0.1014115 0.08506638 -0.04056818
v 0.06998342 0.1326906 0.1403627
v 0.05611547 0.1328135 0.1418108
v 0.04064979 0.4447968 0.03712503
v 0.05440268 0.4432199 0.03545044
v 0.08766453 0.08470918 -0.03826085
v 0.07072438 0.4580656 -0.06830095

vn -0.7048729 -0.5284595 -0.4731645
vn 0.4103973 -0.5418514 -0.7334651
vn 0.3685227 0.4884454 -0.7909564
vn -0.784018 0.4804526 -0.3930407
vn 0.7251496 0.6714197 -0.1528188
vn 0.7527379 -0.6579803 -0.02115562
vn 0.5685093 -0.3824102 0.7283953
vn -0.5777937 -0.3942177 0.7146655
vn -0.6702226 0.6003959 0.4362641
vn 0.5444009 0.6216526 0.5631835
vn -0.5558886 -0.8155091 0.1610363
vn -0.536642 0.8422697 -0.05096359

vt 0.4253319 0.2360588
vt 0.4098341 0.2346927
vt 0.4382896 0.8192297
vt 0.4628184 0.8142838
vt 0.05408406 0.9761413
vt 0.126736 0.02456445
vt 1 0.2340858
vt 0.9844475 0.2354622
vt 0.9536768 0.8186252
vt 0.9781942 0.8225787
vt 0.1398159 -5.960464E-08
vt 2.980232E-08 1

usemap Standard_FFFFFF
usemtl Standard_FFFFFF
f 121/121/121 120/120/120 119/119/119 118/118/118 
f 123/123/123 119/119/119 120/120/120 122/122/122 
f 127/127/127 126/126/126 125/125/125 124/124/124 
f 129/129/129 121/121/121 118/118/118 128/128/128 
f 122/122/122 120/120/120 121/121/121 129/129/129 
f 128/128/128 118/118/118 119/119/119 123/123/123 
f 125/125/125 126/126/126 129/129/129 128/128/128 
f 126/126/126 127/127/127 122/122/122 129/129/129 
f 127/127/127 124/124/124 123/123/123 122/122/122 
f 124/124/124 125/125/125 128/128/128 123/123/123 
