
mtllib ./sub.obj.mtl

g s.0015
usemap Paint_Standard_737373
usemtl Paint_Standard_737373
v 0.2179627 0.1104638 -0.07149941
v 0.06373885 0.1106981 -0.07240814
v 0.064757 0.09878223 -0.09365983
v 0.2201487 0.09872625 -0.09276219
v -0.2426527 0.07459567 -0.09459633
v -0.1223939 0.09742568 -0.09951372
v -0.1236776 0.1091097 -0.07814789
v -0.2439359 0.08480175 -0.07588127
v 0.06587915 0.08177131 -0.1110963
v 0.2224078 0.08187136 -0.1102398
v -0.2412665 0.05989071 -0.1100204
v -0.1210829 0.08060497 -0.1171205
v 0.06702884 0.06082478 -0.1235292
v 0.2245861 0.06104774 -0.1227409
v -0.2398721 0.04168923 -0.1211026
v -0.1198337 0.05979318 -0.1297678
v 0.06812747 0.03736968 -0.1301113
v 0.2265349 0.03767377 -0.1294135
v -0.2385642 0.02123123 -0.1270876
v -0.1187318 0.03640824 -0.1365942
v 0.06910023 0.01300532 -0.1303943
v 0.2281214 0.01334284 -0.1298029
v -0.2374322 -8.893013E-05 -0.1275676
v -0.1178522 0.01204471 -0.1371344
v 0.06988107 -0.01060829 -0.1243588
v 0.2292376 -0.01028684 -0.1238828
v -0.2365531 -0.0208183 -0.1225098
v -0.1172546 -0.01163769 -0.1313514
v 0.07041672 -0.03186277 -0.1124157
v 0.2298075 -0.03160487 -0.1120564
v -0.2359868 -0.03954412 -0.1122589
v -0.11698 -0.03302529 -0.1196395
v 0.07067035 -0.04930814 -0.09537958
v 0.2297921 -0.04915883 -0.09512956
v -0.2357719 -0.0549904 -0.09751359
v -0.117047 -0.05065963 -0.102797
v 0.07062509 -0.06175692 -0.07441078
v 0.2291926 -0.06175265 -0.07425611
v -0.2359232 -0.06610443 -0.07927866
v -0.1174511 -0.06333967 -0.08197124
v 0.07028355 -0.06836012 -0.05093867
v 0.2280497 -0.06852718 -0.05085839
v -0.2364301 -0.07212886 -0.05879676
v -0.1181647 -0.07020113 -0.05858161
v 0.06966951 -0.06866767 -0.02656272
v 0.2264415 -0.0690212 -0.02653106
v -0.2372583 -0.07265309 -0.03746369
v -0.119139 -0.07077611 -0.03422228
v 0.06882466 -0.0626589 -0.002944238
v 0.2244773 -0.06320192 -0.002931602
v -0.2383513 -0.06764142 -0.01673329
v -0.1203079 -0.06502619 -0.0105531
v 0.06780637 -0.05074276 0.01830735
v 0.2222912 -0.05146427 0.01833134
v -0.2396345 -0.05743551 0.001981568
v -0.1215918 -0.05334254 0.01081286
v 0.06668411 -0.03373189 0.0357437
v 0.2200321 -0.03460941 0.0358088
v -0.2410206 -0.0427305 0.01740564
v -0.1229028 -0.03652147 0.02841923
v 0.06553467 -0.01278557 0.04817672
v 0.217854 -0.01378554 0.04830997
v -0.2424151 -0.02452891 0.02848789
v -0.1241519 -0.01570929 0.04106653
v 0.06443605 0.01066907 0.054759
v 0.2159052 0.009588426 0.05498253
v -0.2437229 -0.004070858 0.03447288
v -0.1252539 0.007675599 0.04789278
v 0.06346316 0.03503365 0.05504194
v 0.2143186 0.03391908 0.05537194
v -0.244855 0.01724916 0.03495284
v -0.1261336 0.03203917 0.04843307
v 0.06268242 0.05864771 0.04900617
v 0.2132023 0.05754897 0.04945163
v -0.2457341 0.0379785 0.02989513
v -0.1267311 0.05572153 0.04265001
v 0.0621468 0.07990163 0.03706335
v 0.2126325 0.07886732 0.03762534
v -0.2463004 0.05670448 0.01964411
v -0.1270058 0.0771089 0.03093818
v 0.06189314 0.09734739 0.0200272
v 0.2126478 0.09642129 0.0206986
v -0.2465152 0.07215074 0.004898887
v -0.1269388 0.09474346 0.01409555
v 0.06193854 0.1097961 -0.0009417012
v 0.2132474 0.1090148 -0.0001748875
v -0.2463641 0.08326477 -0.01333604
v -0.1265347 0.1074232 -0.006730035
v 0.06227983 0.1163993 -0.02441382
v 0.2143902 0.1157894 -0.02357265
v -0.245857 0.08928923 -0.03381801
v -0.1258211 0.1142846 -0.03011967
v 0.06289388 0.1167066 -0.04878968
v 0.2159985 0.1162836 -0.04790001
v -0.2450289 0.08981345 -0.05515095
v -0.1248466 0.11486 -0.05447902
v -0.3306051 0.04885466 -0.09053864
v -0.3313231 0.05721138 -0.07653863
v -0.331812 0.06166614 -0.06084571
v -0.3320386 0.06191398 -0.04452914
v -0.3319873 0.05793881 -0.02870055
v -0.3316616 0.05001083 -0.01443878
v -0.3310841 0.03867134 -0.002716042
v -0.3302936 0.0246922 0.005669419
v -0.3293444 0.009026501 0.01014542
v -0.3283009 -0.007257871 0.01040737
v -0.3272343 -0.02305202 0.006437425
v -0.3262173 -0.03727889 -0.001494065
v -0.3253193 -0.0489691 -0.01284652
v -0.3246014 -0.05732594 -0.02684615
v -0.3241124 -0.06178051 -0.04253928
v -0.3238859 -0.06202833 -0.05885579
v -0.323937 -0.05805321 -0.07468449
v -0.3242626 -0.05012567 -0.08894607
v -0.3248403 -0.03878603 -0.1006691
v -0.3256307 -0.02480723 -0.1090541
v -0.32658 -0.009141646 -0.1135304
v -0.3276235 0.0071432 -0.1137924
v -0.32869 0.0229369 -0.1098223
v -0.3297071 0.03716406 -0.1018907
v -0.3582882 -0.00172944 -0.05357632
v 0.3580649 0.1016076 -0.06483878
v 0.3593748 0.0913166 -0.08367948
v 0.3607267 0.0764944 -0.0992055
v 0.3620286 0.05815057 -0.1103589
v 0.3631911 0.03753502 -0.1163791
v 0.3641356 0.016053 -0.1168563
v 0.3647979 -0.004831176 -0.1117581
v 0.3651322 -0.0236951 -0.1014311
v 0.3651161 -0.03925185 -0.08658017
v 0.3647509 -0.0504436 -0.06821653
v 0.3640611 -0.05650572 -0.047592
v 0.363094 -0.05702503 -0.02611228
v 0.3619151 -0.05196749 -0.005241062
v 0.3606051 -0.04167622 0.01359972
v 0.3592534 -0.02685372 0.02912582
v 0.3579517 -0.008510372 0.04027934
v 0.3567891 0.0121057 0.04629949
v 0.3558445 0.0335872 0.04677673
v 0.3551823 0.05447174 0.04167813
v 0.3548478 0.0733351 0.03135172
v 0.3548639 0.08889301 0.01650041
v 0.355229 0.100084 -0.001863066
v 0.3559189 0.1061461 -0.02248765
v 0.3568861 0.1066655 -0.04396725
v 0.4954545 0.08357693 -0.05415603
v 0.4965626 0.07514591 -0.06891931
v 0.497723 0.06317642 -0.08098775
v 0.4988558 0.04848498 -0.08953981
v 0.4998846 0.03207182 -0.09399176
v 0.5007385 0.01505605 -0.09404065
v 0.5013599 -0.001402868 -0.08968325
v 0.5017061 -0.01618335 -0.08121604
v 0.5017538 -0.02827699 -0.06921659
v 0.5014993 -0.0368615 -0.05450292
v 0.5009604 -0.04135099 -0.03807658
v 0.5001737 -0.04143962 -0.0210576
v 0.4991925 -0.03712137 -0.004606098
v 0.4980842 -0.02869014 0.01015709
v 0.496924 -0.01672106 0.02222577
v 0.4957908 -0.002028555 0.03077725
v 0.4947623 0.01438398 0.03522959
v 0.4939084 0.0313993 0.03527867
v 0.493287 0.04785858 0.03092086
v 0.4929406 0.06263862 0.02245388
v 0.492893 0.07473359 0.01045444
v 0.4931475 0.08331793 -0.004259644
v 0.4936865 0.08780737 -0.02068609
v 0.4944731 0.08789527 -0.03770431
v 0.6404812 0.06494448 -0.04789937
v 0.6415313 0.05732605 -0.05940895
v 0.6425871 0.0469816 -0.06854641
v 0.6435769 0.0346161 -0.07468885
v 0.6444329 0.02107251 -0.07741807
v 0.6450968 0.00727299 -0.07654747
v 0.6455235 -0.005841384 -0.07213709
v 0.6456839 -0.01737658 -0.06448671
v 0.6455673 -0.02654656 -0.05411863
v 0.6451812 -0.03272769 -0.04173854
v 0.6445522 -0.0354975 -0.02819043
v 0.6437231 -0.03466704 -0.01439792
v 0.64275 -0.03029417 -0.001300458
v 0.6417001 -0.02267505 0.01020886
v 0.6406444 -0.01233103 0.01934655
v 0.6396548 3.404357E-05 0.02548924
v 0.6387987 0.01357811 0.02821834
v 0.6381347 0.02737667 0.02734797
v 0.6377078 0.04049118 0.02293728
v 0.6375474 0.05202675 0.01528721
v 0.6376642 0.06119726 0.004919112
v 0.6380503 0.0673781 -0.007461051
v 0.6386793 0.07014808 -0.02100936
v 0.6395084 0.06931747 -0.03480162
v 0.6416159 0.01732495 -0.02459978

vn 0.03945968 0.9314466 -0.3617321
vn 0.003542854 0.9290969 -0.3698194
vn 0.00834729 0.8016944 -0.5976758
vn 0.0422399 0.8057215 -0.5907865
vn -0.2131966 0.782431 -0.585106
vn -0.08053808 0.8031542 -0.5903024
vn -0.09388044 0.927066 -0.3629534
vn -0.2345612 0.9030148 -0.3599241
vn 0.01269768 0.6195028 -0.7848917
vn 0.04490161 0.6246733 -0.7795941
vn -0.1878721 0.6076861 -0.7716357
vn -0.06505895 0.6248233 -0.778051
vn 0.01628628 0.3948835 -0.9185869
vn 0.04724648 0.4007196 -0.9149817
vn -0.1602158 0.3902451 -0.906664
vn -0.04842886 0.4039243 -0.9135097
vn 0.01884243 0.1431903 -0.9895159
vn 0.04908777 0.1493945 -0.9875584
vn -0.1320504 0.1446284 -0.9806351
vn -0.03171277 0.1552256 -0.9873699
vn 0.02015153 -0.1183262 -0.9927703
vn 0.05027056 -0.1118989 -0.9924473
vn -0.1052784 -0.1124794 -0.9880611
vn -0.01599151 -0.1045623 -0.9943898
vn 0.02008275 -0.3717262 -0.9281252
vn 0.05069236 -0.3652521 -0.9295273
vn -0.08174534 -0.363378 -0.9280486
vn -0.002306922 -0.3578228 -0.9337866
vn 0.01861188 -0.5996431 -0.8000512
vn 0.05031622 -0.5934694 -0.8032822
vn -0.06311614 -0.590633 -0.8044682
vn 0.008396199 -0.587215 -0.8093875
vn 0.01582457 -0.7865049 -0.6173813
vn 0.04916561 -0.7811697 -0.6223798
vn -0.05074191 -0.7783858 -0.6257323
vn 0.01534677 -0.7768844 -0.629456
vn 0.01191703 -0.9196067 -0.3926594
vn 0.04732354 -0.9157168 -0.399028
vn -0.04554317 -0.9135409 -0.4041892
vn 0.01800698 -0.913608 -0.4061971
vn 0.007184246 -0.9899497 -0.141237
vn 0.04493355 -0.9879274 -0.1482577
vn -0.04793257 -0.9867189 -0.1552045
vn 0.01613198 -0.9877962 -0.1549136
vn 0.001985104 -0.992803 0.1197433
vn 0.04217926 -0.9927081 0.1129227
vn -0.05776771 -0.9929024 0.1039606
vn 0.009801681 -0.9942065 0.1070397
vn -0.003286391 -0.928013 0.3725335
vn 0.03926811 -0.929512 0.3666953
vn -0.07436908 -0.9317583 0.3553809
vn -0.0005774015 -0.9323524 0.3615502
vn -0.00823444 -0.8000078 0.5999332
vn 0.03642376 -0.8025106 0.595525
vn -0.09654837 -0.8076305 0.5817314
vn -0.01429045 -0.8065186 0.591036
vn -0.01250936 -0.6175193 0.7864562
vn 0.03385268 -0.6204647 0.7835034
vn -0.12272 -0.6292276 0.7674715
vn -0.03037098 -0.6254688 0.779658
vn -0.015824 -0.3929819 0.91941
vn 0.03173018 -0.3960564 0.9176779
vn -0.1510204 -0.4089937 0.899954
vn -0.0476683 -0.4017909 0.9144899
vn -0.0179781 -0.1417158 0.9897441
vn 0.03018749 -0.1449445 0.9889791
vn -0.1794549 -0.1622052 0.9703017
vn -0.06494287 -0.150982 0.986401
vn -0.01886537 0.1191312 0.9926993
vn 0.02929311 0.1155227 0.9928729
vn -0.2060522 0.09412693 0.9740034
vn -0.08096357 0.1096827 0.9906638
vn -0.01847077 0.3717861 0.9281347
vn 0.02907336 0.367643 0.9295125
vn -0.2290093 0.3425179 0.911173
vn -0.09460344 0.3623382 0.9272331
vn -0.01685509 0.5990841 0.8005087
vn 0.02951355 0.5945655 0.8035054
vn -0.2468194 0.5662076 0.7864408
vn -0.1049335 0.5897983 0.800704
vn -0.01414266 0.7856331 0.618531
vn 0.0305723 0.7812681 0.6234465
vn -0.2583514 0.750302 0.6085241
vn -0.1112805 0.7767426 0.6199093
vn -0.01051242 0.9188119 0.3945557
vn 0.03218911 0.9153712 0.4013221
vn -0.2629059 0.8826898 0.3895373
vn -0.1132714 0.9106767 0.3972876
vn -0.006179926 0.9895968 0.1437358
vn 0.03428353 0.987811 0.151835
vn -0.260248 0.9547191 0.1441606
vn -0.1108408 0.9827601 0.147976
vn -0.001400401 0.9931374 -0.1169447
vn 0.03675167 0.9934302 -0.1083785
vn -0.2505862 0.9616741 -0.1113083
vn -0.104215 0.9883147 -0.1112357
vn -0.6282564 0.5875528 -0.5099761
vn -0.644298 0.6906042 -0.3285514
vn -0.6572302 0.7428101 -0.1275991
vn -0.6662633 0.7415188 0.07901242
vn -0.6708357 0.6877412 0.2774736
vn -0.6707017 0.5857896 0.4549832
vn -0.6658947 0.4428121 0.600418
vn -0.6567212 0.2681979 0.7048314
vn -0.6437631 0.07307832 0.7617275
vn -0.6278182 -0.1302434 0.7673858
vn -0.6098942 -0.3288516 0.721031
vn -0.5911624 -0.5097988 0.6250058
vn -0.5728836 -0.6608374 0.4848694
vn -0.5563337 -0.7712506 0.309298
vn -0.5426919 -0.8327362 0.109709
vn -0.5329789 -0.8401558 -0.1003584
vn -0.5279042 -0.7921947 -0.3061777
vn -0.5278699 -0.691605 -0.4929867
vn -0.5328789 -0.5451625 -0.647177
vn -0.5425681 -0.3632015 -0.7574329
vn -0.5562248 -0.15881 -0.8157164
vn -0.5728596 0.0532476 -0.8179222
vn -0.5912802 0.2576777 -0.7641922
vn -0.6101832 0.4399695 -0.6588652
vn -0.9978018 -0.06238304 -0.02235678
vn 0.1118355 0.9291495 -0.3523832
vn 0.1184964 0.8060844 -0.579816
vn 0.1239338 0.6282443 -0.7680817
vn 0.1277594 0.4074506 -0.9042463
vn 0.1297106 0.1586093 -0.978784
vn 0.1296664 -0.1013226 -0.9863672
vn 0.1276522 -0.3545617 -0.926278
vn 0.1238323 -0.5836831 -0.8024835
vn 0.118492 -0.7728651 -0.6234093
vn 0.1120031 -0.9090855 -0.4012716
vn 0.1048024 -0.9829232 -0.1512564
vn 0.09736422 -0.9892172 0.1094052
vn 0.09017373 -0.9274998 0.362785
vn 0.08369312 -0.8020202 0.5914043
vn 0.07835156 -0.6215165 0.7794731
vn 0.07450972 -0.3985105 0.9141322
vn 0.07242895 -0.1485056 0.9862556
vn 0.07227035 0.1112227 0.9911642
vn 0.07406211 0.3629455 0.9288624
vn 0.07769877 0.5896432 0.8039178
vn 0.08294418 0.7761835 0.6250274
vn 0.08945298 0.9102094 0.4043723
vn 0.09678053 0.9828818 0.1567699
vn 0.1044219 0.9893677 -0.1012298
vn 0.1417142 0.9201119 -0.3651179
vn 0.1468939 0.794136 -0.5897204
vn 0.1492392 0.6141017 -0.7749883
vn 0.1485468 0.391659 -0.9080403
vn 0.1448144 0.1416268 -0.9792705
vn 0.1382727 -0.1188785 -0.9832338
vn 0.1293523 -0.3718095 -0.9192528
vn 0.1186747 -0.5995028 -0.7915255
vn 0.1069935 -0.7860226 -0.6088686
vn 0.09513852 -0.9184484 -0.3839287
vn 0.08393994 -0.987658 -0.1322338
vn 0.07418305 -0.9888873 0.1288369
vn 0.06654446 -0.9220469 0.3813154
vn 0.06154881 -0.791742 0.6077469
vn 0.05952397 -0.6070079 0.7924635
vn 0.06059366 -0.3807932 0.9226727
vn 0.06464802 -0.1289635 0.9895398
vn 0.07138012 0.1309588 0.9888148
vn 0.08030135 0.3810155 0.9210749
vn 0.09079137 0.6043122 0.7915578
vn 0.1021492 0.7861714 0.609508
vn 0.113635 0.9148844 0.3873935
vn 0.1245114 0.9822906 0.1400081
vn 0.1340808 0.984109 -0.116412
vn 0.7174004 0.6457215 -0.2614965
vn 0.7245728 0.5511264 -0.4138283
vn 0.7307428 0.4196971 -0.5383952
vn 0.7355157 0.2590278 -0.6260362
vn 0.7385081 0.07923109 -0.6695731
vn 0.7394615 -0.1074942 -0.6645612
vn 0.7382137 -0.2878026 -0.6100904
vn 0.7347798 -0.4482436 -0.5090936
vn 0.7293425 -0.5765041 -0.3683786
vn 0.7222359 -0.6626791 -0.1980701
vn 0.7139934 -0.7000691 -0.01080914
vn 0.7052585 -0.685905 0.1792898
vn 0.6966665 -0.6216576 0.3580468
vn 0.6889771 -0.512652 0.5123462
vn 0.6826925 -0.3677503 0.6314196
vn 0.6783006 -0.1980976 0.7075772
vn 0.6760586 -0.01628227 0.7366679
vn 0.6760303 0.1649702 0.7181698
vn 0.6781193 0.3337779 0.6547873
vn 0.6820967 0.4797997 0.5518482
vn 0.6876376 0.5946205 0.4166306
vn 0.6943626 0.6718624 0.2578014
vn 0.7018467 0.7072459 0.08493733
vn 0.7096843 0.6985279 -0.09169
vn 0.9970512 0.05156288 0.05683502

vt 0.5005938 0.2448371
vt 0.489958 0.6784614
vt 0.5302435 0.6810114
vt 0.5423508 0.2438981
vt 0.5273568 0.9323094
vt 0.5242569 0.8774292
vt 0.4859899 0.8753611
vt 0.4854786 0.9311268
vt 0.5711465 0.6838986
vt 0.583918 0.2428289
vt 0.5700025 0.9334776
vt 0.5632797 0.8801255
vt 0.6127795 0.6869618
vt 0.6253426 0.2417056
vt 0.613423 0.934549
vt 0.6032901 0.8833141
vt 0.6552202 0.6900095
vt 0.666679 0.2406068
vt 0.6575637 0.9354434
vt 0.6445088 0.8868147
vt 0.6984944 0.6928231
vt 0.7079822 0.2396101
vt 0.702299 0.9360893
vt 0.6871182 0.8904048
vt 0.7425649 0.6951751
vt 0.7493055 0.2387838
vt 0.7474378 0.9364314
vt 0.7312319 0.8938286
vt 0.787321 0.6968501
vt 0.7906981 0.2381826
vt 0.7927389 0.9364399
vt 0.7768439 0.8968115
vt 0.8325717 0.697677
vt 0.8322045 0.2378454
vt 0.83794 0.9361125
vt 0.8237786 0.8990886
vt 0.8780712 0.6975558
vt 0.8738621 0.2377926
vt 0.8827913 0.9354761
vt 0.8716737 0.9004402
vt 0.9235368 0.696485
vt 0.9157004 0.2380231
vt 0.9270862 0.9345834
vt 0.9199989 0.9007292
vt 0.9686921 0.6945608
vt 0.957742 0.2385193
vt 0.9706819 0.9335061
vt 0.9681413 0.899929
vt 0.001395404 0.6919647
vt 1 0.2392485
vt 0.001600295 0.932327
vt 0.003619075 0.8981277
vt 0.04528767 0.6889352
vt 0.03057098 0.2401585
vt 0.04364523 0.9311315
vt 0.0498037 0.8955089
vt 0.08836874 0.6857277
vt 0.0732528 0.241192
vt 0.08496046 0.9300015
vt 0.09453878 0.8923169
vt 0.1306175 0.6825868
vt 0.1161137 0.2422818
vt 0.125635 0.9290085
vt 0.1377551 0.8888187
vt 0.1720742 0.679726
vt 0.1591107 0.2433567
vt 0.1657866 0.9282132
vt 0.1795222 0.8852738
vt 0.2128254 0.6773135
vt 0.2021859 0.244347
vt 0.2055501 0.9276597
vt 0.2199995 0.8819149
vt 0.2529891 0.6754714
vt 0.2452726 0.2451858
vt 0.2450717 0.9273784
vt 0.2593966 0.8789397
vt 0.2927032 0.6742795
vt 0.2882978 0.2458154
vt 0.2845024 0.9273829
vt 0.2979425 0.8765054
vt 0.3321188 0.6737786
vt 0.331193 0.2461884
vt 0.3239934 0.9276718
vt 0.3358707 0.8747311
vt 0.3713934 0.6739786
vt 0.3739007 0.2462763
vt 0.3636961 0.9282289
vt 0.3734123 0.8736995
vt 0.4106857 0.6748601
vt 0.4163799 0.2460684
vt 0.4037564 0.9290228
vt 0.4107959 0.8734573
vt 0.4501552 0.6763787
vt 0.4586104 0.2455776
vt 0.4443103 0.9300082
vt 0.4482464 0.874018
vt 0.5433224 0.960855
vt 0.4987873 0.9606616
vt 0.4545576 0.9602969
vt 0.4107895 0.9597912
vt 0.3675874 0.9591823
vt 0.3250016 0.9585164
vt 0.2830342 0.9578396
vt 0.2416399 0.957198
vt 0.2007456 0.9566333
vt 0.1602547 0.95618
vt 0.1200542 0.9558654
vt 0.08002687 0.9557074
vt 0.04004976 0.9557152
vt 2.980232E-08 0.9558883
vt 0.9716606 0.9562163
vt 0.931107 0.9566804
vt 0.8901358 0.9572526
vt 0.848656 0.9578977
vt 0.8065976 0.9585741
vt 0.7639252 0.9592364
vt 0.7206429 0.9598371
vt 0.6768079 0.9603323
vt 0.6325321 0.9606837
vt 0.5879718 0.9608629
vt 0.01748595 1
vt 0.5082948 0.0935145
vt 0.551082 0.0954392
vt 0.5930088 0.09739262
vt 0.6341409 0.09924459
vt 0.6745844 0.1008815
vt 0.7144721 0.1022105
vt 0.7539523 0.1031593
vt 0.7931853 0.1036779
vt 0.8323308 0.1037392
vt 0.8715568 0.1033396
vt 0.9110235 0.1024959
vt 0.9508904 0.1012497
vt 0.9913087 0.09966871
vt 0.020509 0.09784135
vt 0.06240866 0.09588179
vt 0.1051683 0.09392154
vt 0.1487995 0.09210065
vt 0.1932343 0.09056354
vt 0.2383292 0.08943689
vt 0.2838577 0.08881894
vt 0.3295422 0.08876398
vt 0.3750784 0.08927464
vt 0.4201866 0.09030303
vt 0.4646407 0.09175655
vt 0.5215458 0.03480047
vt 0.5685149 0.03699654
vt 0.6131462 0.03950804
vt 0.6555664 0.04213065
vt 0.6960565 0.04468137
vt 0.7349532 0.04700765
vt 0.7725987 0.04898903
vt 0.8093165 0.05053222
vt 0.8454032 0.05157077
vt 0.8811386 0.05206335
vt 0.9167886 0.0519886
vt 0.9526144 0.05134806
vt 0.9888843 0.05016536
vt 0.01397949 0.04848713
vt 0.05201852 0.04638717
vt 0.09143111 0.04396635
vt 0.1325606 0.04135987
vt 0.1757344 0.03873283
vt 0.2211943 0.03627983
vt 0.268979 0.03421503
vt 0.3188128 0.03274566
vt 0.3700139 0.03203544
vt 0.4215751 0.03217062
vt 0.4723874 0.03313071
vt 0.5709742 0.00848487
vt 0.6229898 0.01196489
vt 0.6675217 0.01572487
vt 0.7068385 0.01945463
vt 0.7426098 0.02294499
vt 0.7759721 0.02605125
vt 0.8076901 0.02866927
vt 0.8382986 0.03072426
vt 0.868187 0.03216243
vt 0.8976629 0.03294817
vt 0.926983 0.03306147
vt 0.9563899 0.03249633
vt 0.9861371 0.03126454
vt 0.004610568 0.02939168
vt 0.03598729 0.02692461
vt 0.06885487 0.02393135
vt 0.1039164 0.02050859
vt 0.1421996 0.01679453
vt 0.1852359 0.01298499
vt 0.2351607 0.009364992
vt 0.2943552 0.006353259
vt 0.3634983 0.00449267
vt 0.4380904 0.004264593
vt 0.509243 0.005732298
vt 0.9160009 2.980232E-08

usemap Paint_Standard_737373
usemtl Paint_Standard_737373
f 4/4/4 3/3/3 2/2/2 1/1/1 
f 8/8/8 7/7/7 6/6/6 5/5/5 
f 10/10/10 9/9/9 3/3/3 4/4/4 
f 5/5/5 6/6/6 12/12/12 11/11/11 
f 14/14/14 13/13/13 9/9/9 10/10/10 
f 11/11/11 12/12/12 16/16/16 15/15/15 
f 18/18/18 17/17/17 13/13/13 14/14/14 
f 15/15/15 16/16/16 20/20/20 19/19/19 
f 22/22/22 21/21/21 17/17/17 18/18/18 
f 19/19/19 20/20/20 24/24/24 23/23/23 
f 26/26/26 25/25/25 21/21/21 22/22/22 
f 23/23/23 24/24/24 28/28/28 27/27/27 
f 30/30/30 29/29/29 25/25/25 26/26/26 
f 27/27/27 28/28/28 32/32/32 31/31/31 
f 34/34/34 33/33/33 29/29/29 30/30/30 
f 31/31/31 32/32/32 36/36/36 35/35/35 
f 38/38/38 37/37/37 33/33/33 34/34/34 
f 35/35/35 36/36/36 40/40/40 39/39/39 
f 42/42/42 41/41/41 37/37/37 38/38/38 
f 39/39/39 40/40/40 44/44/44 43/43/43 
f 46/46/46 45/45/45 41/41/41 42/42/42 
f 43/43/43 44/44/44 48/48/48 47/47/47 
f 50/50/50 49/49/49 45/45/45 46/46/46 
f 47/47/47 48/48/48 52/52/52 51/51/51 
f 54/54/54 53/53/53 49/49/49 50/50/50 
f 51/51/51 52/52/52 56/56/56 55/55/55 
f 58/58/58 57/57/57 53/53/53 54/54/54 
f 55/55/55 56/56/56 60/60/60 59/59/59 
f 62/62/62 61/61/61 57/57/57 58/58/58 
f 59/59/59 60/60/60 64/64/64 63/63/63 
f 66/66/66 65/65/65 61/61/61 62/62/62 
f 63/63/63 64/64/64 68/68/68 67/67/67 
f 70/70/70 69/69/69 65/65/65 66/66/66 
f 67/67/67 68/68/68 72/72/72 71/71/71 
f 74/74/74 73/73/73 69/69/69 70/70/70 
f 71/71/71 72/72/72 76/76/76 75/75/75 
f 78/78/78 77/77/77 73/73/73 74/74/74 
f 75/75/75 76/76/76 80/80/80 79/79/79 
f 82/82/82 81/81/81 77/77/77 78/78/78 
f 79/79/79 80/80/80 84/84/84 83/83/83 
f 86/86/86 85/85/85 81/81/81 82/82/82 
f 83/83/83 84/84/84 88/88/88 87/87/87 
f 90/90/90 89/89/89 85/85/85 86/86/86 
f 87/87/87 88/88/88 92/92/92 91/91/91 
f 94/94/94 93/93/93 89/89/89 90/90/90 
f 91/91/91 92/92/92 96/96/96 95/95/95 
f 1/1/1 2/2/2 93/93/93 94/94/94 
f 95/95/95 96/96/96 7/7/7 8/8/8 
f 3/3/3 6/6/6 7/7/7 2/2/2 
f 9/9/9 12/12/12 6/6/6 3/3/3 
f 13/13/13 16/16/16 12/12/12 9/9/9 
f 17/17/17 20/20/20 16/16/16 13/13/13 
f 21/21/21 24/24/24 20/20/20 17/17/17 
f 25/25/25 28/28/28 24/24/24 21/21/21 
f 29/29/29 32/32/32 28/28/28 25/25/25 
f 33/33/33 36/36/36 32/32/32 29/29/29 
f 37/37/37 40/40/40 36/36/36 33/33/33 
f 41/41/41 44/44/44 40/40/40 37/37/37 
f 45/45/45 48/48/48 44/44/44 41/41/41 
f 49/49/49 52/52/52 48/48/48 45/45/45 
f 53/53/53 56/56/56 52/52/52 49/49/49 
f 57/57/57 60/60/60 56/56/56 53/53/53 
f 61/61/61 64/64/64 60/60/60 57/57/57 
f 65/65/65 68/68/68 64/64/64 61/61/61 
f 69/69/69 72/72/72 68/68/68 65/65/65 
f 73/73/73 76/76/76 72/72/72 69/69/69 
f 77/77/77 80/80/80 76/76/76 73/73/73 
f 81/81/81 84/84/84 80/80/80 77/77/77 
f 85/85/85 88/88/88 84/84/84 81/81/81 
f 89/89/89 92/92/92 88/88/88 85/85/85 
f 93/93/93 96/96/96 92/92/92 89/89/89 
f 2/2/2 7/7/7 96/96/96 93/93/93 
f 98/98/98 8/8/8 5/5/5 97/97/97 
f 99/99/99 95/95/95 8/8/8 98/98/98 
f 100/100/100 91/91/91 95/95/95 99/99/99 
f 101/101/101 87/87/87 91/91/91 100/100/100 
f 102/102/102 83/83/83 87/87/87 101/101/101 
f 103/103/103 79/79/79 83/83/83 102/102/102 
f 104/104/104 75/75/75 79/79/79 103/103/103 
f 105/105/105 71/71/71 75/75/75 104/104/104 
f 106/106/106 67/67/67 71/71/71 105/105/105 
f 107/107/107 63/63/63 67/67/67 106/106/106 
f 108/108/108 59/59/59 63/63/63 107/107/107 
f 109/109/109 55/55/55 59/59/59 108/108/108 
f 110/110/110 51/51/51 55/55/55 109/109/109 
f 111/111/111 47/47/47 51/51/51 110/110/110 
f 112/112/112 43/43/43 47/47/47 111/111/111 
f 113/113/113 39/39/39 43/43/43 112/112/112 
f 114/114/114 35/35/35 39/39/39 113/113/113 
f 115/115/115 31/31/31 35/35/35 114/114/114 
f 116/116/116 27/27/27 31/31/31 115/115/115 
f 117/117/117 23/23/23 27/27/27 116/116/116 
f 118/118/118 19/19/19 23/23/23 117/117/117 
f 119/119/119 15/15/15 19/19/19 118/118/118 
f 120/120/120 11/11/11 15/15/15 119/119/119 
f 97/97/97 5/5/5 11/11/11 120/120/120 
f 97/97/97 121/121/121 98/98/98 
f 98/98/98 121/121/121 99/99/99 
f 99/99/99 121/121/121 100/100/100 
f 100/100/100 121/121/121 101/101/101 
f 101/101/101 121/121/121 102/102/102 
f 102/102/102 121/121/121 103/103/103 
f 103/103/103 121/121/121 104/104/104 
f 104/104/104 121/121/121 105/105/105 
f 105/105/105 121/121/121 106/106/106 
f 106/106/106 121/121/121 107/107/107 
f 107/107/107 121/121/121 108/108/108 
f 108/108/108 121/121/121 109/109/109 
f 109/109/109 121/121/121 110/110/110 
f 110/110/110 121/121/121 111/111/111 
f 111/111/111 121/121/121 112/112/112 
f 112/112/112 121/121/121 113/113/113 
f 113/113/113 121/121/121 114/114/114 
f 114/114/114 121/121/121 115/115/115 
f 115/115/115 121/121/121 116/116/116 
f 116/116/116 121/121/121 117/117/117 
f 117/117/117 121/121/121 118/118/118 
f 118/118/118 121/121/121 119/119/119 
f 119/119/119 121/121/121 120/120/120 
f 120/120/120 121/121/121 97/97/97 
f 123/123/123 4/4/4 1/1/1 122/122/122 
f 124/124/124 10/10/10 4/4/4 123/123/123 
f 125/125/125 14/14/14 10/10/10 124/124/124 
f 126/126/126 18/18/18 14/14/14 125/125/125 
f 127/127/127 22/22/22 18/18/18 126/126/126 
f 128/128/128 26/26/26 22/22/22 127/127/127 
f 129/129/129 30/30/30 26/26/26 128/128/128 
f 130/130/130 34/34/34 30/30/30 129/129/129 
f 131/131/131 38/38/38 34/34/34 130/130/130 
f 132/132/132 42/42/42 38/38/38 131/131/131 
f 133/133/133 46/46/46 42/42/42 132/132/132 
f 134/134/134 50/50/50 46/46/46 133/133/133 
f 135/135/135 54/54/54 50/50/50 134/134/134 
f 136/136/136 58/58/58 54/54/54 135/135/135 
f 137/137/137 62/62/62 58/58/58 136/136/136 
f 138/138/138 66/66/66 62/62/62 137/137/137 
f 139/139/139 70/70/70 66/66/66 138/138/138 
f 140/140/140 74/74/74 70/70/70 139/139/139 
f 141/141/141 78/78/78 74/74/74 140/140/140 
f 142/142/142 82/82/82 78/78/78 141/141/141 
f 143/143/143 86/86/86 82/82/82 142/142/142 
f 144/144/144 90/90/90 86/86/86 143/143/143 
f 145/145/145 94/94/94 90/90/90 144/144/144 
f 122/122/122 1/1/1 94/94/94 145/145/145 
f 147/147/147 123/123/123 122/122/122 146/146/146 
f 148/148/148 124/124/124 123/123/123 147/147/147 
f 149/149/149 125/125/125 124/124/124 148/148/148 
f 150/150/150 126/126/126 125/125/125 149/149/149 
f 151/151/151 127/127/127 126/126/126 150/150/150 
f 152/152/152 128/128/128 127/127/127 151/151/151 
f 153/153/153 129/129/129 128/128/128 152/152/152 
f 154/154/154 130/130/130 129/129/129 153/153/153 
f 155/155/155 131/131/131 130/130/130 154/154/154 
f 156/156/156 132/132/132 131/131/131 155/155/155 
f 157/157/157 133/133/133 132/132/132 156/156/156 
f 158/158/158 134/134/134 133/133/133 157/157/157 
f 159/159/159 135/135/135 134/134/134 158/158/158 
f 160/160/160 136/136/136 135/135/135 159/159/159 
f 161/161/161 137/137/137 136/136/136 160/160/160 
f 162/162/162 138/138/138 137/137/137 161/161/161 
f 163/163/163 139/139/139 138/138/138 162/162/162 
f 164/164/164 140/140/140 139/139/139 163/163/163 
f 165/165/165 141/141/141 140/140/140 164/164/164 
f 166/166/166 142/142/142 141/141/141 165/165/165 
f 167/167/167 143/143/143 142/142/142 166/166/166 
f 168/168/168 144/144/144 143/143/143 167/167/167 
f 169/169/169 145/145/145 144/144/144 168/168/168 
f 146/146/146 122/122/122 145/145/145 169/169/169 
f 171/171/171 147/147/147 146/146/146 170/170/170 
f 172/172/172 148/148/148 147/147/147 171/171/171 
f 173/173/173 149/149/149 148/148/148 172/172/172 
f 174/174/174 150/150/150 149/149/149 173/173/173 
f 175/175/175 151/151/151 150/150/150 174/174/174 
f 176/176/176 152/152/152 151/151/151 175/175/175 
f 177/177/177 153/153/153 152/152/152 176/176/176 
f 178/178/178 154/154/154 153/153/153 177/177/177 
f 179/179/179 155/155/155 154/154/154 178/178/178 
f 180/180/180 156/156/156 155/155/155 179/179/179 
f 181/181/181 157/157/157 156/156/156 180/180/180 
f 182/182/182 158/158/158 157/157/157 181/181/181 
f 183/183/183 159/159/159 158/158/158 182/182/182 
f 184/184/184 160/160/160 159/159/159 183/183/183 
f 185/185/185 161/161/161 160/160/160 184/184/184 
f 186/186/186 162/162/162 161/161/161 185/185/185 
f 187/187/187 163/163/163 162/162/162 186/186/186 
f 188/188/188 164/164/164 163/163/163 187/187/187 
f 189/189/189 165/165/165 164/164/164 188/188/188 
f 190/190/190 166/166/166 165/165/165 189/189/189 
f 191/191/191 167/167/167 166/166/166 190/190/190 
f 192/192/192 168/168/168 167/167/167 191/191/191 
f 193/193/193 169/169/169 168/168/168 192/192/192 
f 170/170/170 146/146/146 169/169/169 193/193/193 
f 194/194/194 171/171/171 170/170/170 
f 194/194/194 172/172/172 171/171/171 
f 194/194/194 173/173/173 172/172/172 
f 194/194/194 174/174/174 173/173/173 
f 194/194/194 175/175/175 174/174/174 
f 194/194/194 176/176/176 175/175/175 
f 194/194/194 177/177/177 176/176/176 
f 194/194/194 178/178/178 177/177/177 
f 194/194/194 179/179/179 178/178/178 
f 194/194/194 180/180/180 179/179/179 
f 194/194/194 181/181/181 180/180/180 
f 194/194/194 182/182/182 181/181/181 
f 194/194/194 183/183/183 182/182/182 
f 194/194/194 184/184/184 183/183/183 
f 194/194/194 185/185/185 184/184/184 
f 194/194/194 186/186/186 185/185/185 
f 194/194/194 187/187/187 186/186/186 
f 194/194/194 188/188/188 187/187/187 
f 194/194/194 189/189/189 188/188/188 
f 194/194/194 190/190/190 189/189/189 
f 194/194/194 191/191/191 190/190/190 
f 194/194/194 192/192/192 191/191/191 
f 194/194/194 193/193/193 192/192/192 
f 194/194/194 170/170/170 193/193/193 

g s.0017
usemap Paint_Standard_737373
usemtl Paint_Standard_737373
v 0.169161 0.06133223 0.006626647
v -0.05230565 0.05565966 0.003329854
v -0.05463202 0.1528597 -0.007638175
v 0.1668346 0.1585322 -0.004341383
v -0.05057853 0.04473105 -0.09388708
v -0.05290491 0.1419311 -0.1048551
v 0.1708881 0.05040362 -0.09059028
v 0.1685617 0.1476036 -0.1015583

vn 0.5806332 -0.4942793 0.6469567
vn -0.5735611 -0.5238424 0.6297752
vn -0.6010155 0.623252 0.5003374
vn 0.5531788 0.652815 0.5175188
vn -0.5531788 -0.652815 -0.5175188
vn -0.5806332 0.4942793 -0.6469567
vn 0.6010155 -0.623252 -0.5003374
vn 0.5735611 0.5238424 -0.6297752

vt 0.7906758 0
vt 0.2093242 0
vt 0.2093242 1
vt 0.7906758 1
vt 5.960464E-08 0
vt 5.960464E-08 1
vt 1 0
vt 1 1

usemap Paint_Standard_737373
usemtl Paint_Standard_737373
f 198/198/198 197/197/197 196/196/196 195/195/195 
f 197/197/197 200/200/200 199/199/199 196/196/196 
f 200/200/200 202/202/202 201/201/201 199/199/199 
f 202/202/202 198/198/198 195/195/195 201/201/201 
f 202/202/202 200/200/200 197/197/197 198/198/198 
f 195/195/195 196/196/196 199/199/199 201/201/201 

g p.0018
usemap Paint_Standard_737373
usemtl Paint_Standard_737373
v 0.6105598 0.07191695 -0.04115252
v 0.8299491 0.07145794 -0.03682566
v 0.6101909 -0.03933296 -0.03425223
v 0.8295803 -0.03979198 -0.02992537
v 0.8296666 0.07235346 -0.0224027
v 0.6102772 0.07281248 -0.02672957
v 0.8292977 -0.03889646 -0.01550241
v 0.6099083 -0.03843744 -0.01982927

vn -0.5640384 0.5416755 -0.6232562
vn 0.5904351 0.53926 -0.6004874
vn -0.5678595 -0.610804 -0.5517736
vn 0.5866141 -0.6132195 -0.5290046
vn 0.5678594 0.6108041 0.5517736
vn -0.5866141 0.6132194 0.5290046
vn 0.5640385 -0.5416755 0.6232562
vn -0.590435 -0.5392601 0.6004874

vt 0.3333333 0.5
vt 0.3333333 1
vt 0 0.5
vt 0 0
vt 0.6333333 1
vt 0.6333333 0.5
vt 0.3 0
vt 0.3 0.5

usemap Paint_Standard_737373
usemtl Paint_Standard_737373
f 204/204/204 205/205/205 203/203/203 
f 204/204/204 206/206/206 205/205/205 
f 208/208/208 209/209/209 207/207/207 
f 208/208/208 210/210/210 209/209/209 
f 207/207/207 206/206/206 204/204/204 
f 207/207/207 209/209/209 206/206/206 
f 210/210/210 203/203/203 205/205/205 
f 210/210/210 208/208/208 203/203/203 
f 208/208/208 204/204/204 203/203/203 
f 208/208/208 207/207/207 204/204/204 
f 209/209/209 205/205/205 206/206/206 
f 209/209/209 210/210/210 205/205/205 

g p.0019
usemap Paint_Standard_737373
usemtl Paint_Standard_737373
v 0.6127427 0.007809501 -0.08169305
v 0.8319454 0.01497736 -0.07466236
v 0.6089829 0.01367148 0.02955348
v 0.8281856 0.02083934 0.03658417
v 0.8314985 0.02940313 -0.07543761
v 0.6122959 0.02223527 -0.0824683
v 0.8277387 0.03526511 0.03580892
v 0.6085361 0.02809724 0.02877823

vn -0.5394212 -0.6254655 -0.5637532
vn 0.6140699 -0.5877466 -0.5267562
vn -0.5783704 -0.564739 0.5886914
vn 0.5751206 -0.5270202 0.6256884
vn 0.5783704 0.564739 -0.5886914
vn -0.5751206 0.5270202 -0.6256884
vn 0.5394212 0.6254655 0.5637532
vn -0.6140699 0.5877466 0.5267562

vt 0.3333333 0.5
vt 0.3333333 1
vt 0 0.5
vt 0 0
vt 0.6333333 1
vt 0.6333333 0.5
vt 0.3 0
vt 0.3 0.5

usemap Paint_Standard_737373
usemtl Paint_Standard_737373
f 212/212/212 213/213/213 211/211/211 
f 212/212/212 214/214/214 213/213/213 
f 216/216/216 217/217/217 215/215/215 
f 216/216/216 218/218/218 217/217/217 
f 215/215/215 214/214/214 212/212/212 
f 215/215/215 217/217/217 214/214/214 
f 218/218/218 211/211/211 213/213/213 
f 218/218/218 216/216/216 211/211/211 
f 216/216/216 212/212/212 211/211/211 
f 216/216/216 215/215/215 212/212/212 
f 217/217/217 213/213/213 214/214/214 
f 217/217/217 218/218/218 213/213/213 
